<svg width="33" height="33" viewBox="0 0 33 33" fill="none" xmlns="http://www.w3.org/2000/svg">
<circle cx="16.5" cy="16.5" r="16.5" fill="#F0E0FF"/>
<path fill-rule="evenodd" clip-rule="evenodd" d="M17.6064 8.16803L20.394 10.9556V12.3494C20.395 13.4378 19.9716 14.4837 19.2138 15.2649C18.4559 16.0462 17.4233 16.5011 16.3353 16.533C15.2474 16.5649 14.1898 16.1714 13.3874 15.436C12.585 14.7006 12.101 13.6813 12.0382 12.5947L12.0312 10.9556L17.6064 8.16803Z" stroke="#C592F9" stroke-width="1.39379" stroke-linecap="round" stroke-linejoin="round"/>
<path d="M9.24365 18.6214V12.3494C9.24365 10.5011 9.97788 8.72852 11.2848 7.42159C12.5917 6.11466 14.3643 5.38043 16.2126 5.38043C18.0609 5.38043 19.8335 6.11466 21.1404 7.42159C22.4473 8.72852 23.1815 10.5011 23.1815 12.3494V18.6214" stroke="#C592F9" stroke-width="1.39379" stroke-linejoin="round"/>
<path fill-rule="evenodd" clip-rule="evenodd" d="M25.9701 24.8934V23.8788C25.9701 19.4368 20.8326 16.5307 16.2136 16.5307C11.5945 16.5307 6.45703 19.4368 6.45703 23.8788V24.8934C6.45703 25.2631 6.60388 25.6176 6.86526 25.879C7.12665 26.1404 7.48116 26.2872 7.85082 26.2872H24.5763C24.9459 26.2872 25.3005 26.1404 25.5618 25.879C25.8232 25.6176 25.9701 25.2631 25.9701 24.8934Z" stroke="#C592F9" stroke-width="1.39379" stroke-linecap="round" stroke-linejoin="round"/>
</svg>
