<svg width="129" height="45" viewBox="0 0 129 45" fill="none" xmlns="http://www.w3.org/2000/svg">
<g filter="url(#filter0_d_378_1010)">
<rect x="5" y="5.5" width="119" height="34" rx="17" fill="white" shape-rendering="crispEdges"/>
<path d="M19.1006 22.3543C19.3039 22.0624 19.6357 22.0772 19.931 22.0157C20.9806 21.7981 22.035 21.6027 23.0815 21.3713C24.2625 21.1105 25.1047 20.154 25.2465 18.9417C25.3839 17.7677 25.5084 16.5918 25.6403 15.4168C25.6846 15.0201 25.7324 14.6233 25.7821 14.2276C25.8097 14.009 25.9746 13.8574 26.172 13.8594C26.3733 13.8609 26.5392 14.0095 26.5633 14.2266C26.6647 15.1333 26.7499 16.0419 26.8651 16.9467C26.9621 17.7062 26.9778 18.4785 27.1511 19.2252C27.4351 20.4469 28.2311 21.1651 29.448 21.4201C30.5782 21.6563 31.7119 21.8774 32.8436 22.1082C33.1168 22.1638 33.2616 22.3125 33.2419 22.5217C33.2197 22.7614 33.0622 22.8579 32.8353 22.9027C31.646 23.138 30.4562 23.3723 29.2718 23.6287C28.1017 23.8822 27.2392 24.847 27.1033 26.0298C26.9498 27.3662 26.8065 28.7036 26.6578 30.0405C26.6298 30.2916 26.6002 30.5431 26.5628 30.7931C26.5308 31.0048 26.4058 31.1308 26.1867 31.1421C25.979 31.153 25.8097 31.0117 25.7846 30.7936C25.6822 29.9022 25.5931 29.0088 25.4838 28.1184C25.3888 27.3416 25.3578 26.5555 25.1983 25.7886C24.9561 24.6245 24.0582 23.7966 22.8856 23.578C21.7598 23.3683 20.6409 23.1217 19.5161 22.9076C19.3295 22.8722 19.2168 22.7703 19.0996 22.6497V22.3548L19.1006 22.3543ZM30.69 22.5296C30.6767 22.4523 30.6383 22.4602 30.6097 22.4542C29.9757 22.3179 29.3235 22.2524 28.7106 22.0324C27.2653 21.5136 26.3359 20.218 26.2694 18.6744C26.2606 18.4716 26.2222 18.2698 26.1971 18.0675C26.1075 18.3997 26.0666 18.7271 26.0268 19.0544C25.9165 19.9596 25.5138 20.7103 24.8438 21.3265C24.1822 21.9354 23.3621 22.156 22.509 22.3046C22.222 22.3543 21.9375 22.4193 21.652 22.4774C22.1728 22.6354 22.6887 22.7388 23.2041 22.8461C24.7021 23.1586 25.8515 24.4227 26.0268 25.9466C26.0622 26.2567 26.105 26.5663 26.1439 26.876C26.2227 26.6845 26.2562 26.4905 26.2704 26.2946C26.3221 25.5814 26.519 24.9169 26.9291 24.3262C27.5799 23.389 28.5058 22.9179 29.6114 22.7461C29.9737 22.69 30.3316 22.6024 30.69 22.5291V22.5296Z" fill="#FFC700"/>
<path d="M36.5371 11.5C36.6941 11.6285 36.7763 11.7825 36.7965 11.9962C36.8792 12.8807 36.9924 13.7623 37.0742 14.6473C37.1446 15.4132 37.3794 16.0699 38.134 16.4159C38.5076 16.5872 38.9211 16.6108 39.3159 16.7029C39.7826 16.8112 40.2527 16.9062 40.7233 16.9987C40.9542 17.044 41.1033 17.1621 41.1004 17.4038C41.0974 17.6332 40.9532 17.744 40.7317 17.7887C39.9657 17.9443 39.2002 18.1013 38.4377 18.2731C37.7239 18.4341 37.2056 19.0277 37.1258 19.7483C37.0102 20.7943 36.8965 21.8403 36.7822 22.8863C36.7557 23.1285 36.6104 23.2786 36.3978 23.283C36.1817 23.2875 36.0256 23.1413 35.9991 22.9016C35.8829 21.8472 35.7662 20.7923 35.6535 19.7375C35.5796 19.0469 35.0426 18.4277 34.3559 18.2746C33.5938 18.1048 32.8294 17.9458 32.0644 17.7897C31.835 17.743 31.6804 17.6273 31.6814 17.3891C31.6824 17.1626 31.831 17.0455 32.0496 17.0002C32.8136 16.8422 33.5786 16.6881 34.3386 16.5144C35.079 16.345 35.5841 15.7224 35.6599 14.9653C35.7608 13.9592 35.8883 12.9555 35.9892 11.9489C36.0094 11.7486 36.1014 11.6176 36.2427 11.5H36.5376L36.5371 11.5ZM36.3894 19.3457C36.765 18.1894 37.5295 17.5859 38.6465 17.3915C37.5 17.2 36.7552 16.5715 36.3884 15.4354C36.0291 16.572 35.2784 17.1912 34.1491 17.395C35.2646 17.5904 36.0104 18.1983 36.3894 19.3457Z" fill="#FFC700"/>
<path d="M38.7503 28.7942C38.7272 29.0049 38.613 29.1343 38.4028 29.1772C37.8446 29.2909 37.2873 29.411 36.7271 29.5158C35.8962 29.6714 35.525 30.0952 35.4512 30.9384C35.3867 31.6772 35.2932 32.4136 35.2075 33.1505C35.1829 33.3646 35.0111 33.5058 34.8053 33.4994C34.5976 33.493 34.4543 33.3542 34.4273 33.1234C34.3332 32.3215 34.255 31.5177 34.1447 30.7183C34.0482 30.0194 33.6716 29.6556 32.9795 29.5217C32.405 29.4105 31.832 29.2919 31.2581 29.1796C31.0385 29.1368 30.8953 29.0167 30.8953 28.7883C30.8953 28.5604 31.0385 28.4383 31.2576 28.395C31.8227 28.2823 32.3868 28.1612 32.9529 28.0544C33.7228 27.9092 34.1132 27.4583 34.1836 26.6663C34.25 25.9196 34.3411 25.1743 34.4302 24.4296C34.4553 24.2194 34.5917 24.0919 34.8063 24.0762C35.0047 24.0614 35.1814 24.216 35.2065 24.4311C35.2932 25.167 35.3788 25.9033 35.4536 26.6407C35.5265 27.3554 35.7583 27.9289 36.896 28.1031C37.3941 28.1794 37.8854 28.299 38.3806 28.3955C38.6017 28.4388 38.7237 28.5673 38.7503 28.7942ZM34.8201 27.477C34.5228 28.1494 34.0541 28.5698 33.3275 28.7917C34.0605 29.0005 34.5223 29.4262 34.8201 30.0952C35.0982 29.4188 35.5841 29.0201 36.2737 28.7853C35.5737 28.5555 35.1095 28.1504 34.8201 27.477Z" fill="#FFC700"/>
<path d="M58.3527 23.3078H56.8785V20.3727H54.8332V19.1641H56.8785V16.1758H58.3527V23.3078ZM48.259 22.1125C48.8832 21.9 49.4167 21.5923 49.8594 21.1895C50.3065 20.7866 50.643 20.3306 50.8688 19.8215C51.0945 19.3124 51.2074 18.7878 51.2074 18.2477V18.1547H48.7105V16.9594H55.1918V18.1547H52.7082V18.2344C52.7082 18.7302 52.8167 19.2128 53.0336 19.682C53.2505 20.1469 53.5715 20.5652 53.9965 20.9371C54.4215 21.3046 54.935 21.5901 55.5371 21.7937L54.7934 22.9625C54.1426 22.7411 53.5803 22.4158 53.1066 21.9863C52.6329 21.5525 52.2589 21.0456 51.9844 20.4656C51.7143 21.1208 51.3292 21.6919 50.8289 22.1789C50.3286 22.6659 49.7288 23.0333 49.0293 23.2812L48.259 22.1125ZM50.2113 25.8977C50.2069 25.424 50.3685 25.0167 50.6961 24.6758C51.0237 24.3305 51.493 24.0671 52.1039 23.8855C52.7193 23.704 53.4475 23.6133 54.2887 23.6133C55.1342 23.6133 55.8647 23.704 56.4801 23.8855C57.0954 24.0671 57.5669 24.3283 57.8945 24.6691C58.2266 25.01 58.3926 25.4195 58.3926 25.8977C58.3926 26.3758 58.2266 26.7853 57.8945 27.1262C57.5669 27.4671 57.0954 27.7283 56.4801 27.9098C55.8647 28.0913 55.1342 28.182 54.2887 28.182C53.4475 28.182 52.7193 28.0913 52.1039 27.9098C51.493 27.7283 51.0237 27.4648 50.6961 27.1195C50.3685 26.7786 50.2069 26.3714 50.2113 25.8977ZM51.6723 25.8977C51.6678 26.2651 51.8892 26.5484 52.3363 26.7477C52.7879 26.9424 53.4254 27.0398 54.2488 27.0398C55.1077 27.0398 55.7673 26.9424 56.2277 26.7477C56.6882 26.5529 56.9184 26.2695 56.9184 25.8977C56.9184 25.5258 56.6904 25.2402 56.2344 25.041C55.7828 24.8418 55.1342 24.7422 54.2887 24.7422C53.452 24.7422 52.8056 24.8418 52.3496 25.041C51.8936 25.2402 51.6678 25.5258 51.6723 25.8977ZM71.0098 23.5469H60.0527V22.3648H64.7809V21.0633H61.3941V16.7734H69.6816V17.9687H62.8684V19.868H69.7879V21.0633H66.2684V22.3648H71.0098V23.5469ZM61.4074 24.45H62.8551V26.7477H69.8676V27.943H61.4074V24.45ZM78.7926 21.1297H76.5613V22.491C77.6238 22.4467 78.6022 22.3781 79.4965 22.2852L79.6027 23.3477C78.4473 23.507 77.2409 23.6177 75.9836 23.6797C74.7307 23.7372 73.4225 23.7682 72.059 23.7727L71.8598 22.5906C73.272 22.5818 74.3434 22.5663 75.0738 22.5441V21.1297H72.8957V16.9195H78.6996V18.1148H74.3832V19.9477H78.7926V21.1297ZM73.7723 24.5297H75.2598V26.7477H82.166V27.943H73.7723V24.5297ZM80.3332 16.1758H81.8207V25.1937H80.3332V16.1758ZM96.8418 28.182H95.3676V22.0727H92.8309V20.8641H95.3676V16.1758H96.8418V28.182ZM86.7082 24.8617C88.2267 24.118 89.3556 23.237 90.0949 22.2187C90.8342 21.2005 91.2681 20.0008 91.3965 18.6195H87.266V17.4508H92.884C92.8796 18.6992 92.7069 19.8414 92.366 20.8773C92.0296 21.9089 91.4629 22.8585 90.666 23.7262C89.8736 24.5939 88.8111 25.3576 87.4785 26.0172L86.7082 24.8617ZM108.543 28.1953H107.082V16.1758H108.543V28.1953ZM99.1926 17.225H104.85V21.7273H100.72V24.1445C101.72 24.1357 102.646 24.1003 103.496 24.0383C104.346 23.9763 105.218 23.8701 106.112 23.7195L106.245 24.9281C105.315 25.0875 104.399 25.1982 103.496 25.2602C102.597 25.3221 101.596 25.3531 100.494 25.3531H100.255H99.2059V20.5586H103.35V18.4203H99.1926V17.225Z" fill="#FFC700"/>
</g>
<defs>
<filter id="filter0_d_378_1010" x="0.466667" y="0.966667" width="128.067" height="43.0667" filterUnits="userSpaceOnUse" color-interpolation-filters="sRGB">
<feFlood flood-opacity="0" result="BackgroundImageFix"/>
<feColorMatrix in="SourceAlpha" type="matrix" values="0 0 0 0 0 0 0 0 0 0 0 0 0 0 0 0 0 0 127 0" result="hardAlpha"/>
<feOffset/>
<feGaussianBlur stdDeviation="2.26667"/>
<feComposite in2="hardAlpha" operator="out"/>
<feColorMatrix type="matrix" values="0 0 0 0 0 0 0 0 0 0 0 0 0 0 0 0 0 0 0.22 0"/>
<feBlend mode="normal" in2="BackgroundImageFix" result="effect1_dropShadow_378_1010"/>
<feBlend mode="normal" in="SourceGraphic" in2="effect1_dropShadow_378_1010" result="shape"/>
</filter>
</defs>
</svg>
