<svg width="157" height="45" viewBox="0 0 157 45" fill="none" xmlns="http://www.w3.org/2000/svg">
<g filter="url(#filter0_d_378_833)">
<rect x="5" y="5.5" width="147" height="34" rx="17" fill="white" shape-rendering="crispEdges"/>
<path d="M28.2471 32.5H32.9529M30.6 13.6765V12.5M36.4824 16.0294L37.6588 14.8529M24.7176 16.0294L23.5412 14.8529M36.4824 26.6176L37.6588 27.7941M24.7176 26.6176L23.5412 27.7941M22.3647 20.7353H21.1882M40.0118 20.7353H38.8353M30.6 16.6176C31.7945 16.6169 32.9541 17.0201 33.8904 17.7618C34.8268 18.5035 35.4848 19.54 35.7575 20.7029C36.0302 21.8659 35.9017 23.0869 35.3928 24.1675C34.8838 25.2481 34.0244 26.1249 32.9541 26.6553L32.9529 27.7941C32.9529 28.4182 32.705 29.0166 32.2638 29.4579C31.8225 29.8992 31.224 30.1471 30.6 30.1471C29.976 30.1471 29.3775 29.8992 28.9362 29.4579C28.495 29.0166 28.2471 28.4182 28.2471 27.7941V26.6553C27.1769 26.1249 26.3175 25.2483 25.8085 24.1678C25.2996 23.0872 25.1709 21.8664 25.4435 20.7035C25.7161 19.5407 26.3739 18.5041 27.31 17.7624C28.2462 17.0206 29.4056 16.6172 30.6 16.6176Z" stroke="#FFC700" stroke-width="1.17647" stroke-linecap="round" stroke-linejoin="round"/>
<path d="M58.154 24.0648H53.386V28.1688H51.925V24.0648H47.2102V22.8695H58.154V24.0648ZM47.7813 20.9039C48.5472 20.8065 49.229 20.6139 49.8266 20.3262C50.4287 20.0384 50.9024 19.6931 51.2477 19.2902C51.5974 18.8829 51.79 18.4602 51.8254 18.0219H48.2196V16.8531H57.1446V18.0219H53.5387C53.5741 18.4602 53.7623 18.8829 54.1032 19.2902C54.4485 19.6931 54.9222 20.0384 55.5243 20.3262C56.1264 20.6139 56.8125 20.8065 57.5829 20.9039L57.0516 22.0594C56.0334 21.9133 55.1413 21.6189 54.3754 21.1762C53.614 20.7335 53.0495 20.1867 52.6821 19.5359C52.3102 20.1867 51.7458 20.7335 50.9887 21.1762C50.2317 21.6189 49.3485 21.9133 48.3391 22.0594L47.7813 20.9039ZM69.018 25.0477H67.5438V22.0328H65.1266V23.0953H59.5086V16.9727H60.9829V18.9117H63.6657V16.9727H65.1266V18.2609H67.5438V16.1891H69.018V25.0477ZM63.6657 21.9266V20.0539H60.9829V21.9266H63.6657ZM61.1024 24.1711H62.6032V26.7477H69.2836V27.943H61.1024V24.1711ZM67.5438 20.8375V19.4562H65.1266V20.8375H67.5438ZM80.7055 28.1953H79.218V16.1758H80.7055V28.1953ZM71.1032 21.2891C71.1032 20.4435 71.236 19.6997 71.5016 19.0578C71.7672 18.4159 72.1369 17.9223 72.6106 17.577C73.0887 17.2272 73.631 17.0523 74.2375 17.0523C74.8352 17.0523 75.3709 17.2272 75.8446 17.577C76.3227 17.9223 76.6968 18.4159 76.9668 19.0578C77.2369 19.6997 77.3719 20.4435 77.3719 21.2891C77.3719 22.1435 77.2369 22.8917 76.9668 23.5336C76.6968 24.1755 76.3227 24.6714 75.8446 25.0211C75.3709 25.3664 74.8352 25.5391 74.2375 25.5391C73.631 25.5391 73.0887 25.3664 72.6106 25.0211C72.1369 24.6714 71.7672 24.1755 71.5016 23.5336C71.236 22.8917 71.1032 22.1435 71.1032 21.2891ZM72.5243 21.2891C72.5243 21.8956 72.5951 22.418 72.7368 22.8562C72.8829 23.2945 73.0843 23.6288 73.3411 23.859C73.5978 24.0892 73.8967 24.2065 74.2375 24.2109C74.574 24.2065 74.8706 24.0892 75.1274 23.859C75.3842 23.6288 75.5834 23.2945 75.725 22.8562C75.8667 22.418 75.9375 21.8956 75.9375 21.2891C75.9375 20.687 75.8667 20.169 75.725 19.7352C75.5834 19.2969 75.3842 18.9626 75.1274 18.7324C74.8706 18.4978 74.574 18.3805 74.2375 18.3805C73.8967 18.3805 73.5978 18.4978 73.3411 18.7324C73.0843 18.9626 72.8829 19.2969 72.7368 19.7352C72.5951 20.169 72.5243 20.687 72.5243 21.2891ZM87.5719 18.3539H90.3743V16.7602H91.8352V22.0992H86.111V16.7602H87.5719V18.3539ZM86.8282 23.1086H90.8391V26.057H88.3024V26.9469C89.1435 26.9469 89.7943 26.9314 90.2547 26.9004C90.7152 26.865 91.1667 26.7964 91.6094 26.6945L91.7555 27.7969C91.2641 27.8987 90.7639 27.9651 90.2547 27.9961C89.75 28.0315 89.0129 28.0492 88.0434 28.0492H87.625H86.8547V25.0211H89.4047V24.2242H86.8282V23.1086ZM90.3743 20.9305V19.4562H87.5719V20.9305H90.3743ZM91.3571 23.1086H95.1688V28.1156H93.7079V24.2773H91.3571V23.1086ZM93.6946 16.1758H95.1688V18.6594H96.8422V19.8812H95.1688V22.5641H93.6946V16.1758ZM108.397 23.5602H97.4532V22.3781H108.397V23.5602ZM98.5821 18.9914C98.5821 18.4911 98.7592 18.0573 99.1133 17.6898C99.4719 17.3224 99.9766 17.0435 100.627 16.8531C101.278 16.6583 102.04 16.5609 102.912 16.5609C103.779 16.5609 104.539 16.6583 105.19 16.8531C105.845 17.0435 106.349 17.3224 106.704 17.6898C107.062 18.0573 107.241 18.4911 107.241 18.9914C107.241 19.4961 107.062 19.9344 106.704 20.3062C106.349 20.6737 105.845 20.957 105.19 21.1562C104.539 21.351 103.779 21.4484 102.912 21.4484C102.04 21.4484 101.278 21.351 100.627 21.1562C99.9766 20.957 99.4719 20.6737 99.1133 20.3062C98.7592 19.9344 98.5821 19.4961 98.5821 18.9914ZM98.8079 24.45H100.282V26.7477H107.162V27.943H98.8079V24.45ZM100.123 18.9914C100.118 19.3943 100.357 19.7042 100.84 19.9211C101.327 20.1336 102.004 20.2398 102.872 20.2398C103.775 20.2398 104.475 20.1336 104.97 19.9211C105.466 19.7086 105.714 19.3987 105.714 18.9914C105.714 18.5974 105.466 18.2919 104.97 18.075C104.479 17.8536 103.793 17.743 102.912 17.743C102.332 17.743 101.832 17.7917 101.411 17.8891C100.99 17.9865 100.669 18.1303 100.448 18.3207C100.227 18.5066 100.118 18.7302 100.123 18.9914ZM122.488 28.182H121.014V22.0727H118.477V20.8641H121.014V16.1758H122.488V28.182ZM112.355 24.8617C113.873 24.118 115.002 23.237 115.741 22.2187C116.481 21.2005 116.915 20.0008 117.043 18.6195H112.913V17.4508H118.531C118.526 18.6992 118.353 19.8414 118.013 20.8773C117.676 21.9089 117.109 22.8585 116.313 23.7262C115.52 24.5939 114.458 25.3576 113.125 26.0172L112.355 24.8617ZM134.189 28.1953H132.728V16.1758H134.189V28.1953ZM124.839 17.225H130.497V21.7273H126.366V24.1445C127.367 24.1357 128.292 24.1003 129.142 24.0383C129.992 23.9763 130.864 23.8701 131.759 23.7195L131.891 24.9281C130.962 25.0875 130.045 25.1982 129.142 25.2602C128.244 25.3221 127.243 25.3531 126.141 25.3531H125.902H124.852V20.5586H128.996V18.4203H124.839V17.225Z" fill="#FFC700"/>
</g>
<defs>
<filter id="filter0_d_378_833" x="0.466667" y="0.966667" width="156.067" height="43.0667" filterUnits="userSpaceOnUse" color-interpolation-filters="sRGB">
<feFlood flood-opacity="0" result="BackgroundImageFix"/>
<feColorMatrix in="SourceAlpha" type="matrix" values="0 0 0 0 0 0 0 0 0 0 0 0 0 0 0 0 0 0 127 0" result="hardAlpha"/>
<feOffset/>
<feGaussianBlur stdDeviation="2.26667"/>
<feComposite in2="hardAlpha" operator="out"/>
<feColorMatrix type="matrix" values="0 0 0 0 0 0 0 0 0 0 0 0 0 0 0 0 0 0 0.22 0"/>
<feBlend mode="normal" in2="BackgroundImageFix" result="effect1_dropShadow_378_833"/>
<feBlend mode="normal" in="SourceGraphic" in2="effect1_dropShadow_378_833" result="shape"/>
</filter>
</defs>
</svg>
