<svg width="352" height="64" viewBox="0 0 352 64" fill="none" xmlns="http://www.w3.org/2000/svg">
<g filter="url(#filter0_d_209_1467)">
<rect x="8" y="8" width="336" height="47.807" rx="23.9035" fill="#AEAEAE"/>
</g>
<path d="M168.598 37.8682H156.396V36.3301H161.537V34.3232H157.802V29.8408H165.346V28.376H157.787V26.8818H167.191V31.3057H159.677V32.7998H167.499V34.3232H163.397V36.3301H168.598V37.8682ZM180.023 28.8447C180.019 29.6797 180.009 30.3779 179.994 30.9395C179.979 31.4961 179.936 32.1382 179.862 32.8657C179.794 33.5933 179.687 34.3867 179.54 35.2461L177.65 35.085C177.807 34.2891 177.921 33.5371 177.995 32.8291C178.068 32.1162 178.112 31.479 178.126 30.9175C178.146 30.356 178.158 29.665 178.163 28.8447V28.7422H170.619V27.248H180.023V28.8447ZM169.359 36.0664H181.518V37.6045H169.359V36.0664ZM193.485 35.6123H191.61V26.0322H193.485V35.6123ZM182.528 30.2363C182.528 29.5967 182.689 29.0205 183.012 28.5078C183.334 27.9951 183.771 27.5972 184.323 27.314C184.879 27.0259 185.497 26.8818 186.176 26.8818C186.85 26.8818 187.465 27.0259 188.021 27.314C188.578 27.5972 189.018 27.9951 189.34 28.5078C189.662 29.0205 189.823 29.5967 189.823 30.2363C189.823 30.8857 189.662 31.4692 189.34 31.9868C189.018 32.4995 188.578 32.8999 188.021 33.188C187.465 33.4761 186.85 33.6201 186.176 33.6201C185.497 33.6201 184.879 33.4761 184.323 33.188C183.766 32.8999 183.327 32.4995 183.004 31.9868C182.687 31.4692 182.528 30.8857 182.528 30.2363ZM184.359 30.2363C184.354 30.5977 184.43 30.9126 184.586 31.1812C184.743 31.4448 184.958 31.6475 185.231 31.7891C185.509 31.9258 185.824 31.9941 186.176 31.9941C186.518 31.9941 186.823 31.9258 187.091 31.7891C187.365 31.6475 187.58 31.4448 187.736 31.1812C187.897 30.9126 187.978 30.5977 187.978 30.2363C187.978 29.8848 187.897 29.5771 187.736 29.3135C187.58 29.0498 187.365 28.8496 187.091 28.7129C186.818 28.5713 186.513 28.5029 186.176 28.5078C185.824 28.5029 185.509 28.5713 185.231 28.7129C184.958 28.8496 184.743 29.0498 184.586 29.3135C184.43 29.5771 184.354 29.8848 184.359 30.2363ZM184.55 34.6455H186.439V37.6191H193.837V39.1133H184.55V34.6455Z" fill="white"/>
<defs>
<filter id="filter0_d_209_1467" x="0.025559" y="0.025559" width="351.949" height="63.7559" filterUnits="userSpaceOnUse" color-interpolation-filters="sRGB">
<feFlood flood-opacity="0" result="BackgroundImageFix"/>
<feColorMatrix in="SourceAlpha" type="matrix" values="0 0 0 0 0 0 0 0 0 0 0 0 0 0 0 0 0 0 127 0" result="hardAlpha"/>
<feMorphology radius="0.996805" operator="dilate" in="SourceAlpha" result="effect1_dropShadow_209_1467"/>
<feOffset/>
<feGaussianBlur stdDeviation="3.48882"/>
<feComposite in2="hardAlpha" operator="out"/>
<feColorMatrix type="matrix" values="0 0 0 0 0 0 0 0 0 0 0 0 0 0 0 0 0 0 0.03 0"/>
<feBlend mode="normal" in2="BackgroundImageFix" result="effect1_dropShadow_209_1467"/>
<feBlend mode="normal" in="SourceGraphic" in2="effect1_dropShadow_209_1467" result="shape"/>
</filter>
</defs>
</svg>
