<svg width="352" height="65" viewBox="0 0 352 65" fill="none" xmlns="http://www.w3.org/2000/svg">
<g filter="url(#filter0_d_209_1483)">
<rect x="8" y="8.80701" width="336" height="47.807" rx="23.9035" fill="#8000FF"/>
</g>
<path d="M168.598 38.6752H156.396V37.1371H161.537V35.1302H157.802V30.6478H165.346V29.183H157.787V27.6888H167.191V32.1127H159.677V33.6068H167.499V35.1302H163.397V37.1371H168.598V38.6752ZM180.023 29.6517C180.019 30.4867 180.009 31.1849 179.994 31.7465C179.979 32.3031 179.936 32.9452 179.862 33.6727C179.794 34.4003 179.687 35.1937 179.54 36.0531L177.65 35.892C177.807 35.0961 177.921 34.3441 177.995 33.6361C178.068 32.9232 178.112 32.286 178.126 31.7245C178.146 31.163 178.158 30.472 178.163 29.6517V29.5492H170.619V28.0551H180.023V29.6517ZM169.359 36.8734H181.518V38.4115H169.359V36.8734ZM193.485 36.4193H191.61V26.8392H193.485V36.4193ZM182.528 31.0433C182.528 30.4037 182.689 29.8275 183.012 29.3148C183.334 28.8021 183.771 28.4042 184.323 28.121C184.879 27.8329 185.497 27.6888 186.176 27.6888C186.85 27.6888 187.465 27.8329 188.021 28.121C188.578 28.4042 189.018 28.8021 189.34 29.3148C189.662 29.8275 189.823 30.4037 189.823 31.0433C189.823 31.6927 189.662 32.2762 189.34 32.7938C189.018 33.3065 188.578 33.7069 188.021 33.995C187.465 34.2831 186.85 34.4271 186.176 34.4271C185.497 34.4271 184.879 34.2831 184.323 33.995C183.766 33.7069 183.327 33.3065 183.004 32.7938C182.687 32.2762 182.528 31.6927 182.528 31.0433ZM184.359 31.0433C184.354 31.4047 184.43 31.7196 184.586 31.9882C184.743 32.2518 184.958 32.4545 185.231 32.5961C185.509 32.7328 185.824 32.8011 186.176 32.8011C186.518 32.8011 186.823 32.7328 187.091 32.5961C187.365 32.4545 187.58 32.2518 187.736 31.9882C187.897 31.7196 187.978 31.4047 187.978 31.0433C187.978 30.6918 187.897 30.3842 187.736 30.1205C187.58 29.8568 187.365 29.6566 187.091 29.5199C186.818 29.3783 186.513 29.3099 186.176 29.3148C185.824 29.3099 185.509 29.3783 185.231 29.5199C184.958 29.6566 184.743 29.8568 184.586 30.1205C184.43 30.3842 184.354 30.6918 184.359 31.0433ZM184.55 35.4525H186.439V38.4261H193.837V39.9203H184.55V35.4525Z" fill="white"/>
<defs>
<filter id="filter0_d_209_1483" x="0.025559" y="0.832566" width="351.949" height="63.7559" filterUnits="userSpaceOnUse" color-interpolation-filters="sRGB">
<feFlood flood-opacity="0" result="BackgroundImageFix"/>
<feColorMatrix in="SourceAlpha" type="matrix" values="0 0 0 0 0 0 0 0 0 0 0 0 0 0 0 0 0 0 127 0" result="hardAlpha"/>
<feMorphology radius="0.996805" operator="dilate" in="SourceAlpha" result="effect1_dropShadow_209_1483"/>
<feOffset/>
<feGaussianBlur stdDeviation="3.48882"/>
<feComposite in2="hardAlpha" operator="out"/>
<feColorMatrix type="matrix" values="0 0 0 0 0 0 0 0 0 0 0 0 0 0 0 0 0 0 0.03 0"/>
<feBlend mode="normal" in2="BackgroundImageFix" result="effect1_dropShadow_209_1483"/>
<feBlend mode="normal" in="SourceGraphic" in2="effect1_dropShadow_209_1483" result="shape"/>
</filter>
</defs>
</svg>
