<svg width="70" height="62" viewBox="0 0 70 62" fill="none" xmlns="http://www.w3.org/2000/svg">
<mask id="path-1-inside-1_120_5085" fill="white">
<path fill-rule="evenodd" clip-rule="evenodd" d="M36.7321 1.16718C35.9622 -0.16615 34.0378 -0.166151 33.2679 1.16718L29.8038 7.16718H4C1.79086 7.16718 0 8.95805 0 11.1672V57.1672C0 59.3763 1.79086 61.1672 4 61.1672H66C68.2091 61.1672 70 59.3763 70 57.1672V11.1672C70 8.95804 68.2091 7.16718 66 7.16718H40.1962L36.7321 1.16718Z"/>
</mask>
<path d="M33.2679 1.16718L32.4019 0.667174V0.667175L33.2679 1.16718ZM36.7321 1.16718L37.5981 0.667176V0.667175L36.7321 1.16718ZM29.8038 7.16718V8.16718H30.3812L30.6699 7.66718L29.8038 7.16718ZM40.1962 7.16718L39.3301 7.66718L39.6188 8.16718H40.1962V7.16718ZM34.134 1.66718C34.5189 1.00051 35.4811 1.00051 35.866 1.66718L37.5981 0.667175C36.4434 -1.33282 33.5566 -1.33282 32.4019 0.667174L34.134 1.66718ZM30.6699 7.66718L34.134 1.66718L32.4019 0.667175L28.9378 6.66718L30.6699 7.66718ZM4 8.16718H29.8038V6.16718H4V8.16718ZM1 11.1672C1 9.51032 2.34315 8.16718 4 8.16718V6.16718C1.23858 6.16718 -1 8.40575 -1 11.1672H1ZM1 57.1672V11.1672H-1V57.1672H1ZM4 60.1672C2.34315 60.1672 1 58.824 1 57.1672H-1C-1 59.9286 1.23858 62.1672 4 62.1672V60.1672ZM66 60.1672H4V62.1672H66V60.1672ZM69 57.1672C69 58.824 67.6569 60.1672 66 60.1672V62.1672C68.7614 62.1672 71 59.9286 71 57.1672H69ZM69 11.1672V57.1672H71V11.1672H69ZM66 8.16718C67.6569 8.16718 69 9.51032 69 11.1672H71C71 8.40575 68.7614 6.16718 66 6.16718V8.16718ZM40.1962 8.16718H66V6.16718H40.1962V8.16718ZM35.866 1.66718L39.3301 7.66718L41.0622 6.66718L37.5981 0.667176L35.866 1.66718Z" fill="#8000FF" mask="url(#path-1-inside-1_120_5085)"/>
<path d="M34.6133 47.218H30.3242V50.6633H29.2344V47.218H25.0039V46.3391H34.6133V47.218ZM26.1992 40.5851H27.3008V41.9562H32.293V40.5851H33.4062V45.1437H26.1992V40.5851ZM32.293 44.2531V42.8469H27.3008V44.2531H32.293ZM44.1406 46.4094H43.0273V43.7492H41.0703V42.8351H43.0273V40.1633H44.1406V46.4094ZM35.3867 45.4601C35.918 45.2726 36.3828 45.0031 36.7812 44.6516C37.1797 44.2961 37.4844 43.8918 37.6953 43.4387C37.9102 42.9816 38.0156 42.5109 38.0117 42.0266V41.7922H35.7383V40.8898H41.3984V41.7922H39.1484V42.0148C39.1445 42.4601 39.2441 42.8918 39.4473 43.3098C39.6504 43.7277 39.9434 44.1008 40.3262 44.4289C40.709 44.7531 41.1602 45.0031 41.6797 45.1789L41.1055 46.0578C40.5273 45.8586 40.0234 45.5617 39.5938 45.1672C39.168 44.7687 38.8379 44.3039 38.6035 43.7726C38.373 44.3664 38.0312 44.8879 37.5781 45.3371C37.125 45.7863 36.5898 46.1242 35.9727 46.3508L35.3867 45.4601ZM37.0742 48.6828C37.0742 48.2687 37.2148 47.9152 37.4961 47.6223C37.7812 47.3254 38.1895 47.0988 38.7207 46.9426C39.2559 46.7824 39.8906 46.7023 40.625 46.7023C41.3555 46.7023 41.9863 46.7824 42.5176 46.9426C43.0488 47.0988 43.457 47.3254 43.7422 47.6223C44.0312 47.9152 44.1758 48.2687 44.1758 48.6828C44.1758 49.0969 44.0312 49.4504 43.7422 49.7433C43.457 50.0402 43.0488 50.2668 42.5176 50.423C41.9863 50.5832 41.3555 50.6633 40.625 50.6633C39.8906 50.6633 39.2559 50.5832 38.7207 50.423C38.1895 50.2668 37.7812 50.0402 37.4961 49.7433C37.2148 49.4504 37.0742 49.0969 37.0742 48.6828ZM38.1758 48.6828C38.1719 49.0383 38.3848 49.3137 38.8145 49.509C39.248 49.7004 39.8516 49.7922 40.625 49.7844C41.3906 49.7922 41.9883 49.7004 42.418 49.509C42.8516 49.3137 43.0703 49.0383 43.0742 48.6828C43.0703 48.3312 42.8555 48.0578 42.4297 47.8625C42.0078 47.6672 41.418 47.5695 40.6602 47.5695C39.8711 47.5695 39.2578 47.6652 38.8203 47.8566C38.3867 48.048 38.1719 48.3234 38.1758 48.6828Z" fill="#8000FF"/>
<path d="M32.3101 26.4172L33.0501 26.5402C33.0679 26.4327 33.0622 26.3227 33.0332 26.2177C33.0042 26.1127 32.9528 26.0153 32.8823 25.9322C32.8119 25.8491 32.7242 25.7824 32.6254 25.7366C32.5266 25.6908 32.419 25.6671 32.3101 25.6672V26.4172ZM43.3101 26.4172V27.1672C43.509 27.1672 43.6997 27.0881 43.8404 26.9475C43.981 26.8068 44.0601 26.6161 44.0601 26.4172H43.3101ZM41.3101 15.6672H29.9501V17.1672H41.3101V15.6672ZM28.7501 27.1672H32.3101V25.6672H28.7501V27.1672ZM31.5701 26.2942L30.7641 31.1292L32.2441 31.3762L33.0501 26.5402L31.5701 26.2942ZM32.4901 33.1672H32.7041V31.6672H32.4911L32.4901 33.1672ZM35.8251 31.4972L38.3401 27.7242L37.0921 26.8922L34.5771 30.6652L35.8251 31.4972ZM39.3801 27.1672H43.3101V25.6672H39.3801V27.1672ZM44.0601 26.4172V18.4172H42.5601V26.4172H44.0601ZM27.2531 17.8772L26.0531 23.8772L27.5231 24.1722L28.7231 18.1722L27.2531 17.8782V17.8772ZM38.3401 27.7242C38.4542 27.5529 38.6088 27.4134 38.7902 27.3162C38.9716 27.2191 39.1743 27.1682 39.3801 27.1682V25.6682C38.4601 25.6682 37.6021 26.1272 37.0921 26.8922L38.3401 27.7242ZM30.7641 31.1292C30.7224 31.3798 30.7358 31.6375 30.8033 31.8824C30.8709 32.1273 30.991 32.3546 31.1552 32.5485C31.3195 32.7423 31.5239 32.8981 31.7545 33.0049C31.985 33.1117 32.236 33.1671 32.4901 33.1672L32.4911 31.6672C32.4548 31.6671 32.418 31.6591 32.3852 31.6438C32.3523 31.6285 32.3232 31.6062 32.2998 31.5785C32.2764 31.5509 32.2592 31.5184 32.2496 31.4835C32.24 31.4485 32.2381 31.4119 32.2441 31.3762L30.7641 31.1292ZM28.7501 25.6682C27.9601 25.6682 27.3701 24.9462 27.5241 24.1732L26.0531 23.8782C25.9735 24.2771 25.9834 24.6897 26.0821 25.0843C26.1807 25.4789 26.3657 25.8467 26.6237 26.1612C26.8817 26.4757 27.2062 26.7291 27.5739 26.903C27.9416 27.077 28.3433 27.1672 28.7501 27.1672V25.6672V25.6682ZM29.9501 15.6672C29.3144 15.667 28.6982 15.8882 28.2065 16.2911C27.7148 16.694 27.3779 17.2548 27.2531 17.8782L28.7231 18.1732C28.7797 17.8896 28.933 17.6344 29.1568 17.4511C29.3805 17.2679 29.6608 17.1669 29.9501 17.1672V15.6672ZM32.7041 33.1672C33.3214 33.1671 33.9292 33.0157 34.4734 32.7243C35.0177 32.433 35.4816 32.0118 35.8241 31.4982L34.5771 30.6652C34.3715 30.9735 34.093 31.2273 33.7662 31.4021C33.4395 31.5769 33.0746 31.6673 32.7041 31.6672V33.1672ZM41.3101 17.1672C42.0001 17.1672 42.5601 17.7272 42.5601 18.4172H44.0601C44.0601 17.6878 43.7703 16.9883 43.2546 16.4726C42.7389 15.9569 42.0394 15.6672 41.3101 15.6672V17.1672Z" fill="#8000FF"/>
<path d="M39.3101 26.4172V16.4172" stroke="#8000FF" stroke-width="1.1"/>
</svg>
