<svg width="352" height="69" viewBox="0 0 352 69" fill="none" xmlns="http://www.w3.org/2000/svg">
<g filter="url(#filter0_d_120_5218)">
<path d="M7 18.9528C7 11.2469 13.2469 5 20.9528 5H329.047C336.753 5 343 11.2469 343 18.9528V44.0472C343 51.7531 336.753 58 329.047 58H20.9528C13.2469 58 7 51.7531 7 44.0472V18.9528Z" fill="#AEAEAE"/>
</g>
<path d="M172.641 29.846H174.847V31.0407H172.641V38.2857H171.186V24.5309H172.641V29.846ZM162.532 25.8482H168.95V27.0276H163.987V33.6599C165.202 33.6548 166.269 33.6191 167.188 33.5527C168.107 33.4864 169.037 33.3689 169.976 33.2004L170.16 34.4258C169.19 34.5994 168.237 34.7168 167.303 34.7781C166.374 34.8394 165.269 34.87 163.987 34.87H163.635H162.532V25.8482ZM181.755 24.822C182.756 24.822 183.624 24.9266 184.359 25.136C185.094 25.3402 185.661 25.6414 186.059 26.0397C186.457 26.4379 186.656 26.9102 186.656 27.4565C186.656 27.9926 186.457 28.4572 186.059 28.8504C185.661 29.2384 185.094 29.5345 184.359 29.7388C183.624 29.943 182.756 30.0451 181.755 30.0451C180.759 30.0451 179.891 29.943 179.151 29.7388C178.416 29.5345 177.849 29.2384 177.451 28.8504C177.052 28.4572 176.853 27.9926 176.853 27.4565C176.853 26.9102 177.052 26.4379 177.451 26.0397C177.849 25.6414 178.416 25.3402 179.151 25.136C179.891 24.9266 180.759 24.822 181.755 24.822ZM175.505 31.102H188.02V32.2814H175.505V31.102ZM177.007 33.5068H186.488V38.0866H177.007V33.5068ZM178.354 27.4565C178.354 27.7578 178.49 28.0181 178.76 28.2377C179.031 28.4521 179.422 28.6181 179.932 28.7355C180.443 28.8529 181.05 28.9116 181.755 28.9116C182.454 28.9116 183.059 28.8529 183.57 28.7355C184.08 28.6181 184.471 28.4521 184.742 28.2377C185.017 28.0181 185.155 27.7578 185.155 27.4565C185.155 27.1451 185.02 26.8796 184.749 26.66C184.479 26.4354 184.091 26.2643 183.585 26.1469C183.085 26.0295 182.49 25.9708 181.801 25.9708C180.723 25.9708 179.879 26.101 179.266 26.3613C178.653 26.6166 178.349 26.9817 178.354 27.4565ZM185.079 36.9072V34.6709H178.446V36.9072H185.079Z" fill="white"/>
<defs>
<filter id="filter0_d_120_5218" x="0.914492" y="0.266828" width="350.876" height="67.8757" filterUnits="userSpaceOnUse" color-interpolation-filters="sRGB">
<feFlood flood-opacity="0" result="BackgroundImageFix"/>
<feColorMatrix in="SourceAlpha" type="matrix" values="0 0 0 0 0 0 0 0 0 0 0 0 0 0 0 0 0 0 127 0" result="hardAlpha"/>
<feMorphology radius="2.70467" operator="dilate" in="SourceAlpha" result="effect1_dropShadow_120_5218"/>
<feOffset dx="1.35234" dy="2.70467"/>
<feGaussianBlur stdDeviation="2.36659"/>
<feComposite in2="hardAlpha" operator="out"/>
<feColorMatrix type="matrix" values="0 0 0 0 0.867014 0 0 0 0 0.889334 0 0 0 0 0.945833 0 0 0 0.4 0"/>
<feBlend mode="normal" in2="BackgroundImageFix" result="effect1_dropShadow_120_5218"/>
<feBlend mode="normal" in="SourceGraphic" in2="effect1_dropShadow_120_5218" result="shape"/>
</filter>
</defs>
</svg>
