<svg width="142" height="45" viewBox="0 0 142 45" fill="none" xmlns="http://www.w3.org/2000/svg">
<g filter="url(#filter0_d_378_1953)">
<rect x="5" y="5.5" width="132" height="34" rx="17" fill="white" shape-rendering="crispEdges"/>
<path fill-rule="evenodd" clip-rule="evenodd" d="M28.6159 13.2466C28.3861 13.2466 28.1585 13.2918 27.9462 13.3798C27.7339 13.4677 27.541 13.5966 27.3785 13.7591C27.216 13.9216 27.0871 14.1146 26.9991 14.3269C26.9112 14.5392 26.8659 14.7668 26.8659 14.9966C26.8659 15.2264 26.9112 15.454 26.9991 15.6663C27.0871 15.8786 27.216 16.0715 27.3785 16.234C27.541 16.3965 27.7339 16.5254 27.9462 16.6134C28.1585 16.7013 28.3861 16.7466 28.6159 16.7466C29.08 16.7466 29.5252 16.5622 29.8533 16.234C30.1815 15.9058 30.3659 15.4607 30.3659 14.9966C30.3659 14.5325 30.1815 14.0873 29.8533 13.7591C29.5252 13.431 29.08 13.2466 28.6159 13.2466ZM25.3659 14.9966C25.3659 14.1346 25.7083 13.308 26.3178 12.6985C26.9273 12.089 27.7539 11.7466 28.6159 11.7466C29.4779 11.7466 30.3045 12.089 30.914 12.6985C31.5235 13.308 31.8659 14.1346 31.8659 14.9966C31.8659 15.8585 31.5235 16.6852 30.914 17.2947C30.3045 17.9042 29.4779 18.2466 28.6159 18.2466C27.7539 18.2466 26.9273 17.9042 26.3178 17.2947C25.7083 16.6852 25.3659 15.8585 25.3659 14.9966ZM29.6439 21.2496C29.558 21.246 29.4719 21.245 29.3859 21.2466H28.2949L28.2039 22.1586C28.0299 23.8986 27.9689 24.5986 28.1239 25.2596C28.2799 25.9216 28.6459 26.5206 29.5769 28.0016L32.1509 32.0976C32.254 32.2659 32.2866 32.4682 32.2416 32.6604C32.1965 32.8526 32.0775 33.0193 31.9104 33.1243C31.7432 33.2294 31.5414 33.2643 31.3486 33.2214C31.1559 33.1786 30.9878 33.0615 30.8809 32.8956L28.3069 28.7996L28.2339 28.6836C27.3989 27.3566 26.8839 26.5376 26.6639 25.6036C26.4439 24.6686 26.5409 23.7056 26.6979 22.1446L26.7109 22.0086L26.7869 21.2476C26.2869 21.2506 25.9149 21.2596 25.6169 21.2966C25.2389 21.3416 25.0629 21.4216 24.9379 21.5216C24.8139 21.6216 24.6979 21.7756 24.5709 22.1346C24.4379 22.5116 24.3229 23.0226 24.1519 23.7916L23.8479 25.1596C23.8024 25.3514 23.6832 25.5176 23.5162 25.6222C23.3491 25.7268 23.1475 25.7614 22.9551 25.7186C22.7627 25.6757 22.5949 25.5588 22.488 25.3932C22.3811 25.2276 22.3437 25.0266 22.3839 24.8336L22.6979 23.4226C22.8559 22.7086 22.9899 22.1086 23.1569 21.6346C23.3339 21.1326 23.5759 20.6916 23.9999 20.3516C24.4239 20.0116 24.9059 19.8716 25.4349 19.8066C25.9339 19.7466 26.5489 19.7466 27.2799 19.7466H29.4109C29.5469 19.7466 29.6519 19.7466 29.7509 19.7536C30.2956 19.7926 30.8164 19.9929 31.2468 20.3289C31.6773 20.665 31.9979 21.1216 32.1679 21.6406C32.1979 21.7346 32.2239 21.8376 32.2579 21.9696L32.2629 21.9936C32.3189 22.2176 32.3359 22.2816 32.3519 22.3256C32.5619 22.9316 33.1969 23.2806 33.8209 23.1326C33.8669 23.1226 33.9299 23.1016 34.1489 23.0286L34.8789 22.7856C35.0651 22.7313 35.2652 22.7512 35.437 22.8412C35.6088 22.9313 35.7391 23.0844 35.8004 23.2684C35.8618 23.4524 35.8494 23.6531 35.766 23.8282C35.6825 24.0033 35.5345 24.1393 35.3529 24.2076L34.6229 24.4516L34.5909 24.4616C34.4515 24.5109 34.31 24.5542 34.1669 24.5916C33.5041 24.7486 32.8067 24.6541 32.2096 24.3264C31.6125 23.9987 31.1583 23.461 30.9349 22.8176C30.8892 22.6767 30.8495 22.5339 30.8159 22.3896L30.8079 22.3566C30.7884 22.2726 30.7664 22.1892 30.7419 22.1066C30.6646 21.8709 30.5189 21.6636 30.3233 21.511C30.1278 21.3584 29.8913 21.2674 29.6439 21.2496ZM26.5319 27.3726C26.6974 27.4829 26.8123 27.6545 26.8513 27.8495C26.8903 28.0445 26.8502 28.2471 26.7399 28.4126L23.7399 32.9126C23.6858 32.9957 23.6157 33.0673 23.5338 33.1231C23.4518 33.179 23.3596 33.2181 23.2625 33.2381C23.1653 33.258 23.0652 33.2586 22.9678 33.2396C22.8705 33.2206 22.7778 33.1825 22.6953 33.1275C22.6128 33.0725 22.542 33.0016 22.487 32.9191C22.4321 32.8365 22.394 32.7438 22.3751 32.6465C22.3562 32.5491 22.3568 32.449 22.3768 32.3518C22.3969 32.2547 22.436 32.1625 22.4919 32.0806L25.4919 27.5806C25.6022 27.4151 25.7738 27.3002 25.9688 27.2612C26.1639 27.2222 26.3664 27.2623 26.5319 27.3726Z" fill="#FFC700"/>
<path d="M47.327 19.0578C47.3225 19.7794 47.4354 20.4833 47.6656 21.1695C47.9003 21.8557 48.2367 22.4711 48.675 23.0156C49.1177 23.5557 49.6423 23.9719 50.2488 24.2641L49.3457 25.4461C48.7082 25.1229 48.1548 24.6625 47.6855 24.0648C47.2207 23.4672 46.8577 22.7766 46.5965 21.993C46.3264 22.8297 45.9457 23.569 45.4543 24.2109C44.9673 24.8484 44.3874 25.3354 43.7145 25.6719L42.8113 24.4898C43.4355 24.1932 43.9757 23.7616 44.4316 23.1949C44.8921 22.6238 45.2418 21.9797 45.4809 21.2625C45.7243 20.5409 45.8483 19.806 45.8527 19.0578V17.1453H47.327V19.0578ZM50.966 16.1758H52.4402V20.8773H54.2863V22.1391H52.4402V28.182H50.966V16.1758ZM64.2605 19.1109H65.9473V20.3461H64.2605V23.3211H62.7863V16.1891H64.2605V19.1109ZM55.2426 16.8H60.7277V20.3195H56.7301V21.6078C57.8236 21.6034 58.7488 21.579 59.5059 21.5348C60.2629 21.4861 61.0288 21.3953 61.8035 21.2625L61.9629 22.4312C61.1572 22.5818 60.3492 22.6836 59.5391 22.7367C58.7333 22.7898 57.7417 22.8164 56.5641 22.8164H56.2387H55.2559V19.2039H59.2801V17.982H55.2426V16.8ZM56.491 23.8523H64.2605V28.0359H56.491V23.8523ZM62.8129 26.8406V25.0078H57.9387V26.8406H62.8129ZM79.2418 18.7656H80.9152V19.9875H79.2418V22.2187H77.7676V16.1758H79.2418V18.7656ZM70.184 16.9461H75.8684V21.9H70.184V16.9461ZM70.9145 23.2414H72.3621V26.648C73.1457 26.6038 73.8408 26.482 74.4473 26.2828L74.6598 27.4383C74.1772 27.6065 73.6902 27.7172 73.1988 27.7703C72.7074 27.8279 72.1585 27.8544 71.552 27.85H70.9145V23.2414ZM74.4207 20.7445V18.1016H71.6316V20.7445H74.4207ZM74.248 23.3742H76.559V22.4312H78.0066V23.3742H80.291V24.4367H74.248V23.3742ZM74.9785 26.482C74.9741 26.1367 75.0671 25.8379 75.2574 25.5855C75.4478 25.3288 75.7156 25.134 76.0609 25.0012C76.4107 24.8639 76.8113 24.7953 77.2629 24.7953C77.71 24.7953 78.1063 24.8639 78.4516 25.0012C78.8013 25.134 79.0736 25.3288 79.2684 25.5855C79.4632 25.8379 79.5605 26.1367 79.5605 26.482C79.5605 26.8185 79.4632 27.1129 79.2684 27.3652C79.0736 27.6176 78.8013 27.8124 78.4516 27.9496C78.1063 28.0868 77.71 28.1555 77.2629 28.1555C76.8069 28.1555 76.4063 28.0868 76.0609 27.9496C75.7156 27.8124 75.4478 27.6176 75.2574 27.3652C75.0671 27.1129 74.9741 26.8185 74.9785 26.482ZM76.2934 26.4687C76.2934 26.6857 76.3819 26.8561 76.559 26.9801C76.7361 27.0996 76.9707 27.1594 77.2629 27.1594C77.5507 27.1594 77.7831 27.0996 77.9602 26.9801C78.1417 26.8605 78.2324 26.6945 78.2324 26.482C78.2324 26.2695 78.1439 26.1035 77.9668 25.984C77.7897 25.8645 77.5551 25.8047 77.2629 25.8047C76.9751 25.8047 76.7405 25.8645 76.559 25.984C76.3819 26.0991 76.2934 26.2607 76.2934 26.4687ZM92.4699 23.5602H81.5262V22.3781H92.4699V23.5602ZM82.6551 18.9914C82.6551 18.4911 82.8322 18.0573 83.1863 17.6898C83.5449 17.3224 84.0496 17.0435 84.7004 16.8531C85.3512 16.6583 86.1126 16.5609 86.9848 16.5609C87.8525 16.5609 88.6117 16.6583 89.2625 16.8531C89.9177 17.0435 90.4224 17.3224 90.7766 17.6898C91.1352 18.0573 91.3145 18.4911 91.3145 18.9914C91.3145 19.4961 91.1352 19.9344 90.7766 20.3062C90.4224 20.6737 89.9177 20.957 89.2625 21.1562C88.6117 21.351 87.8525 21.4484 86.9848 21.4484C86.1126 21.4484 85.3512 21.351 84.7004 21.1562C84.0496 20.957 83.5449 20.6737 83.1863 20.3062C82.8322 19.9344 82.6551 19.4961 82.6551 18.9914ZM82.8809 24.45H84.3551V26.7477H91.2348V27.943H82.8809V24.45ZM84.1957 18.9914C84.1913 19.3943 84.4303 19.7042 84.9129 19.9211C85.3999 20.1336 86.0772 20.2398 86.9449 20.2398C87.848 20.2398 88.5475 20.1336 89.0434 19.9211C89.5392 19.7086 89.7871 19.3987 89.7871 18.9914C89.7871 18.5974 89.5392 18.2919 89.0434 18.075C88.552 17.8536 87.8658 17.743 86.9848 17.743C86.4048 17.743 85.9046 17.7917 85.484 17.8891C85.0634 17.9865 84.7424 18.1303 84.5211 18.3207C84.2997 18.5066 84.1913 18.7302 84.1957 18.9914ZM106.561 28.182H105.087V22.0727H102.55V20.8641H105.087V16.1758H106.561V28.182ZM96.4277 24.8617C97.9462 24.118 99.0751 23.237 99.8145 22.2187C100.554 21.2005 100.988 20.0008 101.116 18.6195H96.9855V17.4508H102.604C102.599 18.6992 102.426 19.8414 102.086 20.8773C101.749 21.9089 101.182 22.8585 100.386 23.7262C99.5931 24.5939 98.5306 25.3576 97.198 26.0172L96.4277 24.8617ZM118.262 28.1953H116.801V16.1758H118.262V28.1953ZM108.912 17.225H114.57V21.7273H110.439V24.1445C111.44 24.1357 112.365 24.1003 113.215 24.0383C114.065 23.9763 114.937 23.8701 115.832 23.7195L115.964 24.9281C115.035 25.0875 114.118 25.1982 113.215 25.2602C112.317 25.3221 111.316 25.3531 110.214 25.3531H109.975H108.925V20.5586H113.069V18.4203H108.912V17.225Z" fill="#FFC700"/>
</g>
<defs>
<filter id="filter0_d_378_1953" x="0.466667" y="0.966667" width="141.067" height="43.0667" filterUnits="userSpaceOnUse" color-interpolation-filters="sRGB">
<feFlood flood-opacity="0" result="BackgroundImageFix"/>
<feColorMatrix in="SourceAlpha" type="matrix" values="0 0 0 0 0 0 0 0 0 0 0 0 0 0 0 0 0 0 127 0" result="hardAlpha"/>
<feOffset/>
<feGaussianBlur stdDeviation="2.26667"/>
<feComposite in2="hardAlpha" operator="out"/>
<feColorMatrix type="matrix" values="0 0 0 0 0 0 0 0 0 0 0 0 0 0 0 0 0 0 0.22 0"/>
<feBlend mode="normal" in2="BackgroundImageFix" result="effect1_dropShadow_378_1953"/>
<feBlend mode="normal" in="SourceGraphic" in2="effect1_dropShadow_378_1953" result="shape"/>
</filter>
</defs>
</svg>
