<svg width="24" height="24" viewBox="0 0 24 24" fill="none" xmlns="http://www.w3.org/2000/svg">
<path d="M16 16.136L16.011 16.1239M4.99998 16.136L5.01098 16.1239M20.4 22.725V7.32501M20.4 7.32501H18.2V0.725006H22.6V7.32501H20.4ZM16 20.525H1.25998C1.08493 20.525 0.917059 20.4555 0.793285 20.3317C0.669511 20.2079 0.599976 20.04 0.599976 19.865V12.385C0.599976 12.21 0.669511 12.0421 0.793285 11.9183C0.917059 11.7945 1.08493 11.725 1.25998 11.725H16M13.8 7.32501H4.99998M13.8 0.725006H4.99998C3.83302 0.725006 2.71387 1.18858 1.88871 2.01374C1.06355 2.8389 0.599976 3.95805 0.599976 5.12501V7.32501" stroke="white" stroke-width="1.18" stroke-linecap="round" stroke-linejoin="round"/>
<path d="M2.25 20.525V22.615C2.25 22.79 2.31954 22.9579 2.44331 23.0817C2.56708 23.2055 2.73496 23.275 2.91 23.275H5.99C6.16504 23.275 6.33292 23.2055 6.45669 23.0817C6.58046 22.9579 6.65 22.79 6.65 22.615V20.525M14.35 20.525V22.615C14.35 22.79 14.4195 22.9579 14.5433 23.0817C14.6671 23.2055 14.835 23.275 15.01 23.275H16" stroke="white" stroke-width="1.18" stroke-linecap="round"/>
</svg>
