<svg width="20" height="24" viewBox="0 0 20 24" fill="none" xmlns="http://www.w3.org/2000/svg">
<path d="M9.04966 4.85807C9.04966 5.0252 8.98326 5.18549 8.86508 5.30367C8.74691 5.42185 8.58662 5.48824 8.41949 5.48824H6.73904C6.57191 5.48824 6.41162 5.42185 6.29344 5.30367C6.17526 5.18549 6.10887 5.0252 6.10887 4.85807C6.10887 4.69094 6.17526 4.53066 6.29344 4.41248C6.41162 4.2943 6.57191 4.2279 6.73904 4.2279H8.41949C8.58662 4.2279 8.74691 4.2943 8.86508 4.41248C8.98326 4.53066 9.04966 4.69094 9.04966 4.85807ZM14.5258 18.7218L14.9165 21.4525C14.9467 21.6612 14.9315 21.874 14.8722 22.0763C14.8129 22.2787 14.7107 22.4659 14.5726 22.6253C14.4345 22.7847 14.2638 22.9125 14.072 23.0001C13.8801 23.0877 13.6717 23.133 13.4608 23.133H6.73904C6.52816 23.133 6.31974 23.0877 6.12791 23.0001C5.93609 22.9125 5.76534 22.7847 5.62727 22.6253C5.4892 22.4659 5.38703 22.2787 5.32769 22.0763C5.26834 21.874 5.25322 21.6612 5.28335 21.4525L5.67405 18.7218C4.03813 17.9 2.66261 16.64 1.70088 15.0822C0.739139 13.5244 0.228984 11.7302 0.227295 9.89942C0.227295 9.73229 0.293687 9.57201 0.411867 9.45383C0.530047 9.33565 0.690333 9.26925 0.857464 9.26925H2.74797V2.3374C2.74797 1.94743 2.90289 1.57343 3.17864 1.29767C3.45439 1.02192 3.82839 0.867004 4.21836 0.867004H15.9815C16.3715 0.867004 16.7455 1.02192 17.0212 1.29767C17.297 1.57343 17.4519 1.94743 17.4519 2.3374V9.26925H19.3424C19.5095 9.26925 19.6698 9.33565 19.788 9.45383C19.9062 9.57201 19.9726 9.73229 19.9726 9.89942C19.9709 11.7302 19.4607 13.5244 18.499 15.0822C17.5373 16.64 16.1617 17.9 14.5258 18.7218ZM4.00831 9.26925H16.1916V2.3374C16.1916 2.28169 16.1694 2.22826 16.13 2.18887C16.0907 2.14947 16.0372 2.12734 15.9815 2.12734H4.21836C4.16265 2.12734 4.10922 2.14947 4.06983 2.18887C4.03044 2.22826 4.00831 2.28169 4.00831 2.3374V9.26925ZM13.3254 19.2301C11.2357 19.9524 8.96414 19.9524 6.87452 19.2301L6.52898 21.6332C6.52479 21.6629 6.52703 21.6932 6.53554 21.722C6.54406 21.7508 6.55866 21.7775 6.57835 21.8002C6.59828 21.8232 6.62298 21.8416 6.65072 21.8541C6.67847 21.8666 6.7086 21.8729 6.73904 21.8726H13.4608C13.4909 21.8726 13.5206 21.8661 13.548 21.8536C13.5754 21.8411 13.5997 21.8229 13.6194 21.8002C13.6391 21.7775 13.6537 21.7508 13.6622 21.722C13.6707 21.6932 13.673 21.6629 13.6688 21.6332L13.3254 19.2301ZM18.6891 10.5296H1.51074C1.66995 12.6987 2.644 14.7273 4.23725 16.2079C5.8305 17.6885 7.92495 18.5115 10.0999 18.5115C12.2749 18.5115 14.3694 17.6885 15.9626 16.2079C17.5559 14.7273 18.5299 12.6987 18.6891 10.5296Z" fill="#202821"/>
</svg>
