<svg width="70" height="62" viewBox="0 0 70 62" fill="none" xmlns="http://www.w3.org/2000/svg">
<mask id="path-1-inside-1_120_5097" fill="white">
<path fill-rule="evenodd" clip-rule="evenodd" d="M36.7321 1.16718C35.9622 -0.166158 34.0378 -0.166158 33.2679 1.16718L29.8038 7.16718H4C1.79086 7.16718 0 8.95804 0 11.1672V57.1672C0 59.3763 1.79086 61.1672 4 61.1672H66C68.2091 61.1672 70 59.3763 70 57.1672V11.1672C70 8.95804 68.2091 7.16718 66 7.16718H40.1962L36.7321 1.16718Z"/>
</mask>
<path d="M33.2679 1.16718L32.4019 0.667174V0.667175L33.2679 1.16718ZM36.7321 1.16718L37.5981 0.667176V0.667175L36.7321 1.16718ZM29.8038 7.16718V8.16718H30.3812L30.6699 7.66718L29.8038 7.16718ZM40.1962 7.16718L39.3301 7.66718L39.6188 8.16718H40.1962V7.16718ZM34.134 1.66718C34.5189 1.00051 35.4811 1.00051 35.866 1.66718L37.5981 0.667175C36.4434 -1.33282 33.5566 -1.33282 32.4019 0.667174L34.134 1.66718ZM30.6699 7.66718L34.134 1.66718L32.4019 0.667175L28.9378 6.66718L30.6699 7.66718ZM4 8.16718H29.8038V6.16718H4V8.16718ZM1 11.1672C1 9.51032 2.34315 8.16718 4 8.16718V6.16718C1.23858 6.16718 -1 8.40575 -1 11.1672H1ZM1 57.1672V11.1672H-1V57.1672H1ZM4 60.1672C2.34315 60.1672 1 58.824 1 57.1672H-1C-1 59.9286 1.23858 62.1672 4 62.1672V60.1672ZM66 60.1672H4V62.1672H66V60.1672ZM69 57.1672C69 58.824 67.6569 60.1672 66 60.1672V62.1672C68.7614 62.1672 71 59.9286 71 57.1672H69ZM69 11.1672V57.1672H71V11.1672H69ZM66 8.16718C67.6569 8.16718 69 9.51032 69 11.1672H71C71 8.40575 68.7614 6.16718 66 6.16718V8.16718ZM40.1962 8.16718H66V6.16718H40.1962V8.16718ZM35.866 1.66718L39.3301 7.66718L41.0622 6.66718L37.5981 0.667176L35.866 1.66718Z" fill="#8000FF" mask="url(#path-1-inside-1_120_5097)"/>
<path d="M33.4062 41.4992V41.8273C33.4062 42.2961 33.3887 42.7492 33.3535 43.1867C33.3184 43.6203 33.2461 44.093 33.1367 44.6047H34.6133V45.507H25.0156V44.6047H31.9941C32.127 44.0422 32.2109 43.5363 32.2461 43.0871C32.2852 42.634 32.3047 42.1398 32.3047 41.6047H26.2227V40.7023H33.4062V41.4992ZM26.1055 48.6594C26.1055 48.2375 26.2539 47.8762 26.5508 47.5754C26.8477 47.2707 27.2734 47.0402 27.8281 46.884C28.3828 46.7238 29.0391 46.6437 29.7969 46.6437C30.5508 46.6437 31.2031 46.7238 31.7539 46.884C32.3086 47.0402 32.7344 47.2707 33.0312 47.5754C33.3281 47.8762 33.4766 48.2375 33.4766 48.6594C33.4766 49.0773 33.3281 49.4328 33.0312 49.7258C32.7344 50.0226 32.3105 50.2492 31.7598 50.4055C31.209 50.5617 30.5547 50.6398 29.7969 50.6398C29.0352 50.6359 28.377 50.5558 27.8223 50.3996C27.2715 50.2473 26.8477 50.0226 26.5508 49.7258C26.2539 49.4328 26.1055 49.0773 26.1055 48.6594ZM27.2305 48.6594C27.2266 48.9992 27.4492 49.2648 27.8984 49.4562C28.3477 49.6437 28.9805 49.7414 29.7969 49.7492C30.6016 49.7414 31.2285 49.6437 31.6777 49.4562C32.1309 49.2648 32.3594 48.9992 32.3633 48.6594C32.3594 48.3 32.1348 48.0246 31.6895 47.8332C31.248 47.6418 30.6289 47.5461 29.832 47.5461C28.9961 47.5461 28.3516 47.6418 27.8984 47.8332C27.4492 48.0207 27.2266 48.2961 27.2305 48.6594ZM44.1406 46.4094H43.0273V43.7492H41.0703V42.8351H43.0273V40.1633H44.1406V46.4094ZM35.3867 45.4601C35.918 45.2726 36.3828 45.0031 36.7812 44.6516C37.1797 44.2961 37.4844 43.8918 37.6953 43.4387C37.9102 42.9816 38.0156 42.5109 38.0117 42.0266V41.7922H35.7383V40.8898H41.3984V41.7922H39.1484V42.0148C39.1445 42.4601 39.2441 42.8918 39.4473 43.3098C39.6504 43.7277 39.9434 44.1008 40.3262 44.4289C40.709 44.7531 41.1602 45.0031 41.6797 45.1789L41.1055 46.0578C40.5273 45.8586 40.0234 45.5617 39.5938 45.1672C39.168 44.7687 38.8379 44.3039 38.6035 43.7726C38.373 44.3664 38.0312 44.8879 37.5781 45.3371C37.125 45.7863 36.5898 46.1242 35.9727 46.3508L35.3867 45.4601ZM37.0742 48.6828C37.0742 48.2687 37.2148 47.9152 37.4961 47.6223C37.7812 47.3254 38.1895 47.0988 38.7207 46.9426C39.2559 46.7824 39.8906 46.7023 40.625 46.7023C41.3555 46.7023 41.9863 46.7824 42.5176 46.9426C43.0488 47.0988 43.457 47.3254 43.7422 47.6223C44.0312 47.9152 44.1758 48.2687 44.1758 48.6828C44.1758 49.0969 44.0312 49.4504 43.7422 49.7433C43.457 50.0402 43.0488 50.2668 42.5176 50.423C41.9863 50.5832 41.3555 50.6633 40.625 50.6633C39.8906 50.6633 39.2559 50.5832 38.7207 50.423C38.1895 50.2668 37.7812 50.0402 37.4961 49.7433C37.2148 49.4504 37.0742 49.0969 37.0742 48.6828ZM38.1758 48.6828C38.1719 49.0383 38.3848 49.3137 38.8145 49.509C39.248 49.7004 39.8516 49.7922 40.625 49.7844C41.3906 49.7922 41.9883 49.7004 42.418 49.509C42.8516 49.3137 43.0703 49.0383 43.0742 48.6828C43.0703 48.3312 42.8555 48.0578 42.4297 47.8625C42.0078 47.6672 41.418 47.5695 40.6602 47.5695C39.8711 47.5695 39.2578 47.6652 38.8203 47.8566C38.3867 48.048 38.1719 48.3234 38.1758 48.6828Z" fill="#8000FF"/>
<path d="M37.75 22.4182L37.01 22.2952C36.9921 22.4026 36.9979 22.5127 37.0269 22.6176C37.0558 22.7226 37.1073 22.8201 37.1777 22.9031C37.2482 22.9862 37.3358 23.053 37.4347 23.0987C37.5335 23.1445 37.6411 23.1682 37.75 23.1682V22.4182ZM26.75 22.4182V21.6682C26.5511 21.6682 26.3603 21.7472 26.2197 21.8878C26.079 22.0285 26 22.2193 26 22.4182H26.75ZM28.75 33.1682H40.11V31.6682H28.75V33.1682ZM41.31 21.6682H37.75V23.1682H41.31V21.6682ZM38.49 22.5412L39.296 17.7062L37.816 17.4592L37.01 22.2952L38.49 22.5412ZM37.57 15.6682H37.356V17.1682H37.569L37.57 15.6682ZM34.235 17.3382L31.72 21.1112L32.968 21.9432L35.483 18.1702L34.235 17.3382ZM30.68 21.6682H26.75V23.1682H30.68V21.6682ZM26 22.4182V30.4182H27.5V22.4182H26ZM42.807 30.9582L44.007 24.9582L42.537 24.6632L41.337 30.6632L42.807 30.9572V30.9582ZM31.72 21.1112C31.6059 21.2825 31.4513 21.4219 31.2698 21.5191C31.0884 21.6163 30.8858 21.6671 30.68 21.6672V23.1672C31.6 23.1672 32.458 22.7082 32.968 21.9432L31.72 21.1112ZM39.296 17.7062C39.3377 17.4555 39.3243 17.1978 39.2567 16.9529C39.1892 16.708 39.0691 16.4807 38.9049 16.2869C38.7406 16.093 38.5361 15.9373 38.3056 15.8304C38.0751 15.7236 37.8241 15.6682 37.57 15.6682L37.569 17.1682C37.6052 17.1683 37.642 17.1762 37.6749 17.1915C37.7078 17.2068 37.7369 17.2291 37.7603 17.2568C37.7837 17.2845 37.8008 17.3169 37.8104 17.3518C37.82 17.3868 37.8219 17.4234 37.816 17.4592L39.296 17.7062ZM41.31 23.1672C42.1 23.1672 42.69 23.8892 42.536 24.6622L44.007 24.9572C44.0866 24.5583 44.0767 24.1457 43.978 23.7511C43.8793 23.3564 43.6943 22.9886 43.4364 22.6741C43.1784 22.3596 42.8539 22.1063 42.4862 21.9323C42.1185 21.7584 41.7168 21.6682 41.31 21.6682V23.1682V23.1672ZM40.11 33.1682C40.7457 33.1683 41.3618 32.9472 41.8535 32.5443C42.3452 32.1413 42.6822 31.5805 42.807 30.9572L41.337 30.6622C41.2803 30.9458 41.127 31.2009 40.9033 31.3842C40.6796 31.5675 40.3992 31.6685 40.11 31.6682V33.1682ZM37.356 15.6682C36.7387 15.6682 36.1309 15.8197 35.5866 16.111C35.0423 16.4023 34.5784 16.8235 34.236 17.3372L35.483 18.1702C35.6885 17.8618 35.9671 17.608 36.2938 17.4332C36.6206 17.2584 36.9854 17.168 37.356 17.1682V15.6682ZM28.75 31.6682C28.06 31.6682 27.5 31.1082 27.5 30.4182H26C26 31.1475 26.2897 31.847 26.8055 32.3627C27.3212 32.8784 28.0207 33.1682 28.75 33.1682V31.6682Z" fill="#8000FF"/>
<path d="M30.75 22.4182V32.4182" stroke="#8000FF" stroke-width="1.1"/>
</svg>
