<svg width="165" height="35" viewBox="0 0 165 35" fill="none" xmlns="http://www.w3.org/2000/svg">
<rect x="0.5" y="1" width="164" height="33" rx="16.5" fill="white"/>
<path d="M30.3198 15.5005L29.5798 15.3775C29.562 15.4849 29.5677 15.595 29.5967 15.7C29.6256 15.805 29.6771 15.9024 29.7476 15.9855C29.818 16.0685 29.9056 16.1353 30.0045 16.1811C30.1033 16.2268 30.2109 16.2505 30.3198 16.2505V15.5005ZM19.3198 15.5005V14.7505C19.1209 14.7505 18.9301 14.8295 18.7895 14.9702C18.6488 15.1108 18.5698 15.3016 18.5698 15.5005H19.3198ZM21.3198 26.2505H32.6798V24.7505H21.3198V26.2505ZM33.8798 14.7505H30.3198V16.2505H33.8798V14.7505ZM31.0598 15.6235L31.8658 10.7885L30.3858 10.5415L29.5798 15.3775L31.0598 15.6235ZM30.1398 8.75051H29.9258V10.2505H30.1388L30.1398 8.75051ZM26.8048 10.4205L24.2898 14.1935L25.5378 15.0255L28.0528 11.2525L26.8048 10.4205ZM23.2498 14.7505H19.3198V16.2505H23.2498V14.7505ZM18.5698 15.5005V23.5005H20.0698V15.5005H18.5698ZM35.3768 24.0405L36.5768 18.0405L35.1068 17.7455L33.9068 23.7455L35.3768 24.0395V24.0405ZM24.2898 14.1935C24.1757 14.3648 24.0211 14.5043 23.8397 14.6014C23.6582 14.6986 23.4556 14.7495 23.2498 14.7495V16.2495C24.1698 16.2495 25.0278 15.7905 25.5378 15.0255L24.2898 14.1935ZM31.8658 10.7885C31.9075 10.5379 31.8941 10.2802 31.8265 10.0353C31.759 9.79033 31.6389 9.56304 31.4747 9.3692C31.3104 9.17536 31.1059 9.01961 30.8754 8.91276C30.6449 8.80592 30.3939 8.75056 30.1398 8.75051L30.1388 10.2505C30.1751 10.2506 30.2119 10.2586 30.2447 10.2739C30.2776 10.2892 30.3067 10.3114 30.3301 10.3391C30.3535 10.3668 30.3706 10.3992 30.3802 10.4342C30.3899 10.4691 30.3918 10.5058 30.3858 10.5415L31.8658 10.7885ZM33.8798 16.2495C34.6698 16.2495 35.2598 16.9715 35.1058 17.7445L36.5768 18.0395C36.6564 17.6406 36.6465 17.228 36.5478 16.8334C36.4491 16.4388 36.2642 16.071 36.0062 15.7565C35.7482 15.442 35.4237 15.1886 35.056 15.0147C34.6883 14.8407 34.2866 14.7505 33.8798 14.7505V16.2505V16.2495ZM32.6798 26.2505C33.3155 26.2506 33.9316 26.0295 34.4234 25.6266C34.9151 25.2237 35.252 24.6628 35.3768 24.0395L33.9068 23.7445C33.8501 24.0281 33.6969 24.2833 33.4731 24.4665C33.2494 24.6498 32.969 24.7508 32.6798 24.7505V26.2505ZM29.9258 8.75051C29.3085 8.75056 28.7007 8.90201 28.1564 9.19333C27.6122 9.48466 27.1482 9.90584 26.8058 10.4195L28.0528 11.2525C28.2584 10.9442 28.5369 10.6904 28.8636 10.5156C29.1904 10.3408 29.5553 10.2504 29.9258 10.2505V8.75051ZM21.3198 24.7505C20.6298 24.7505 20.0698 24.1905 20.0698 23.5005H18.5698C18.5698 24.2299 18.8596 24.9293 19.3753 25.4451C19.891 25.9608 20.5905 26.2505 21.3198 26.2505V24.7505Z" fill="black"/>
<path d="M23.3198 15.5005V25.5005" stroke="black" stroke-width="1.1"/>
<path d="M54.7724 19.5961H50.0177V23.1953H48.5567V19.5961H43.8286V18.3875H54.7724V19.5961ZM44.4263 16.4883C45.201 16.3953 45.8916 16.2116 46.4981 15.9371C47.1047 15.6582 47.585 15.3284 47.9392 14.9477C48.2933 14.5625 48.4948 14.1685 48.5435 13.7656H44.838V12.5969H48.5567V11.1891H50.0177V12.5969H53.7497V13.7656H50.0442C50.0929 14.1685 50.2922 14.5603 50.6419 14.941C50.9961 15.3217 51.4764 15.6516 52.0829 15.9305C52.6894 16.2094 53.3778 16.3953 54.1481 16.4883L53.6036 17.657C52.6252 17.5331 51.7619 17.2697 51.0138 16.8668C50.2656 16.4639 49.6945 15.9681 49.3005 15.3793C48.9021 15.9725 48.3243 16.4706 47.5673 16.8734C46.8147 17.2719 45.9448 17.5331 44.9575 17.657L44.4263 16.4883ZM59.8989 14.018C59.8945 14.5005 60.003 14.9654 60.2243 15.4125C60.4501 15.8596 60.7799 16.2581 61.2138 16.6078C61.6521 16.9576 62.1789 17.2276 62.7942 17.418L62.0771 18.5734C61.4086 18.3742 60.8286 18.0687 60.3372 17.657C59.8458 17.2453 59.4606 16.7583 59.1817 16.1961C58.9117 16.8026 58.5287 17.3294 58.0329 17.7766C57.5371 18.2193 56.9461 18.5513 56.2599 18.7727L55.5427 17.6172C56.158 17.4268 56.6804 17.1479 57.1099 16.7805C57.5437 16.413 57.8713 15.9924 58.0927 15.5187C58.314 15.0406 58.4247 14.5404 58.4247 14.018V13.832H55.9146V12.6633H58.4247V11.2555H59.9122V12.6633H62.4091V13.832H59.8989V14.018ZM57.7606 19.3305H59.2349V21.7477H65.9419V22.943H57.7606V19.3305ZM62.0106 14.7617H64.1622V11.1891H65.6364V20.1008H64.1622V15.9437H62.0106V14.7617ZM76.7396 15.957H78.5856V17.1789H76.7396V23.182H75.2786V11.1758H76.7396V15.957ZM67.27 13.0219H70.1122V11.3484H71.5864V13.0219H74.3489V14.2039H67.27V13.0219ZM67.8278 17.8164C67.8234 17.2719 67.9518 16.7849 68.213 16.3555C68.4742 15.9216 68.835 15.5852 69.2954 15.3461C69.7558 15.107 70.276 14.9875 70.856 14.9875C71.4271 14.9875 71.9406 15.107 72.3966 15.3461C72.8526 15.5852 73.2112 15.9216 73.4724 16.3555C73.738 16.7849 73.8708 17.2719 73.8708 17.8164C73.8708 18.3609 73.738 18.8479 73.4724 19.2773C73.2112 19.7023 72.8526 20.0344 72.3966 20.2734C71.9406 20.5125 71.4271 20.632 70.856 20.632C70.276 20.632 69.7558 20.5125 69.2954 20.2734C68.835 20.0344 68.4742 19.7023 68.213 19.2773C67.9518 18.8479 67.8234 18.3609 67.8278 17.8164ZM69.2356 17.8164C69.2356 18.1352 69.3043 18.4163 69.4415 18.6598C69.5787 18.8988 69.7691 19.0848 70.0126 19.2176C70.2605 19.346 70.5416 19.4102 70.856 19.4102C71.1614 19.4102 71.4359 19.346 71.6794 19.2176C71.9229 19.0892 72.1132 18.9033 72.2505 18.6598C72.3877 18.4163 72.4586 18.1352 72.463 17.8164C72.4586 17.4977 72.3855 17.2165 72.2438 16.973C72.1066 16.7251 71.9162 16.5348 71.6728 16.402C71.4337 16.2647 71.1614 16.1961 70.856 16.1961C70.5416 16.1961 70.2605 16.2647 70.0126 16.402C69.7691 16.5348 69.5787 16.7251 69.4415 16.973C69.3043 17.2165 69.2356 17.4977 69.2356 17.8164ZM88.8122 15.7445H80.4981V11.6141H81.9591V14.5758H88.8122V15.7445ZM79.0771 17.1391H90.0474V18.3078H79.0771V17.1391ZM80.3919 19.3703H81.8661V21.7078H88.8919V22.9031H80.3919V19.3703ZM100.779 13.2078H99.7161V16.6145C100.216 16.5746 100.646 16.5326 101.004 16.4883V15.4125H102.651V14.3766H101.004V13.1945H102.651V11.1758H104.125V18.5336H102.651V16.5945H101.038L101.097 17.5773C100.079 17.7456 99.0034 17.8585 97.87 17.916C96.7367 17.9691 95.5281 17.9979 94.2442 18.0023L94.0849 16.7805C94.6692 16.7805 95.1208 16.7783 95.4396 16.7738V13.2078H94.3903V12.0125H100.779V13.2078ZM95.9841 20.9641C95.9797 20.4992 96.139 20.1008 96.4622 19.7687C96.7898 19.4323 97.2591 19.1777 97.87 19.0051C98.4854 18.8324 99.2159 18.7461 100.061 18.7461C100.911 18.7461 101.644 18.8324 102.259 19.0051C102.875 19.1777 103.346 19.4301 103.674 19.7621C104.002 20.0941 104.165 20.4948 104.165 20.9641C104.165 21.4201 104.002 21.8141 103.674 22.1461C103.346 22.4781 102.875 22.7305 102.259 22.9031C101.644 23.0802 100.911 23.1688 100.061 23.1688C99.2203 23.1688 98.492 23.0802 97.8767 22.9031C97.2613 22.7305 96.7898 22.4781 96.4622 22.1461C96.139 21.8141 95.9797 21.4201 95.9841 20.9641ZM96.8739 16.7539C97.1838 16.7451 97.6575 16.7273 98.295 16.7008V13.2078H96.8739V16.7539ZM97.445 20.9641C97.4406 21.3094 97.6642 21.5728 98.1157 21.7543C98.5673 21.9358 99.2159 22.0266 100.061 22.0266C100.911 22.0266 101.562 21.9358 102.014 21.7543C102.465 21.5728 102.691 21.3094 102.691 20.9641C102.691 20.6099 102.463 20.3398 102.007 20.1539C101.556 19.968 100.907 19.875 100.061 19.875C99.2159 19.875 98.5673 19.968 98.1157 20.1539C97.6642 20.3398 97.4406 20.6099 97.445 20.9641ZM115.229 15.8641H117.008V17.0992H115.229V23.1555H113.754V11.1758H115.229V15.8641ZM105.759 19.875C107.224 19.1445 108.353 18.2658 109.146 17.2387C109.938 16.2072 110.408 15.0096 110.554 13.6461H106.41V12.4242H112.054C112.046 16.3643 110.226 19.2286 106.596 21.0172L105.759 19.875Z" fill="#202821"/>
<path d="M121.194 21.0455L124.189 18.0267C124.551 17.6528 124.827 17.3506 125.018 17.1199C125.209 16.8852 125.354 16.6585 125.453 16.4398C125.557 16.217 125.609 15.9824 125.609 15.7358C125.609 15.4574 125.539 15.2128 125.4 15.002C125.261 14.7912 125.07 14.6281 124.827 14.5128C124.584 14.3974 124.312 14.3398 124.01 14.3398C123.692 14.3398 123.413 14.4034 123.174 14.5307C122.94 14.658 122.757 14.8369 122.626 15.0676C122.498 15.2943 122.435 15.5608 122.435 15.867H121.194C121.19 15.35 121.309 14.8926 121.552 14.4949C121.794 14.0972 122.132 13.7889 122.566 13.5702C122.999 13.3514 123.489 13.242 124.034 13.242C124.578 13.242 125.064 13.3494 125.489 13.5642C125.919 13.775 126.253 14.0673 126.492 14.4412C126.734 14.8151 126.857 15.2347 126.861 15.7C126.857 16.0301 126.794 16.3483 126.671 16.6545C126.547 16.9568 126.336 17.2949 126.038 17.6687C125.74 18.0386 125.318 18.492 124.773 19.029L123.019 20.8068V20.8784H127.005V22H121.194V21.0455ZM131.396 22.1193C130.859 22.1193 130.371 22.0179 129.934 21.8151C129.496 21.6122 129.148 21.3298 128.89 20.9679C128.631 20.606 128.492 20.1983 128.472 19.7449H129.749C129.773 19.9875 129.86 20.2062 130.011 20.4011C130.163 20.592 130.359 20.7432 130.602 20.8545C130.845 20.9659 131.109 21.0216 131.396 21.0216C131.742 21.0216 132.05 20.944 132.32 20.7889C132.595 20.6338 132.809 20.421 132.965 20.1506C133.12 19.8761 133.197 19.5699 133.197 19.2318C133.197 18.8858 133.118 18.5756 132.959 18.3011C132.799 18.0227 132.579 17.806 132.296 17.6509C132.014 17.4918 131.694 17.4102 131.336 17.4062C130.604 17.4062 130.099 17.6608 129.821 18.1699H128.58L129.14 13.3614H134.032V14.483H130.226L129.94 16.9051H130.023C130.206 16.7301 130.441 16.5909 130.727 16.4875C131.018 16.3801 131.324 16.3244 131.646 16.3205C132.183 16.3205 132.666 16.4457 133.096 16.6963C133.525 16.9429 133.861 17.2849 134.104 17.7224C134.351 18.156 134.474 18.6472 134.474 19.196C134.474 19.7568 134.343 20.2599 134.08 20.7054C133.818 21.1469 133.452 21.4929 132.982 21.7435C132.517 21.994 131.988 22.1193 131.396 22.1193ZM144.413 18.6352H143.28V17.0483H140.953V17.9193H135.989V13.1227H140.953V14.0057H143.28V12.3233H144.413V18.6352ZM139.843 17.0125V14.0295H137.111V17.0125H139.843ZM137.218 20.9739C137.218 20.5443 137.361 20.1764 137.648 19.8702C137.938 19.5639 138.354 19.3312 138.895 19.1722C139.44 19.0131 140.086 18.9335 140.834 18.9335C141.577 18.9335 142.22 19.0131 142.761 19.1722C143.301 19.3312 143.717 19.5639 144.007 19.8702C144.302 20.1764 144.449 20.5443 144.449 20.9739C144.449 21.3994 144.302 21.7634 144.007 22.0656C143.717 22.3679 143.301 22.5966 142.761 22.7517C142.22 22.9108 141.577 22.9903 140.834 22.9903C140.086 22.9903 139.44 22.9108 138.895 22.7517C138.354 22.5966 137.938 22.3679 137.648 22.0656C137.361 21.7634 137.218 21.3994 137.218 20.9739ZM138.34 20.9739C138.34 21.2125 138.437 21.4173 138.632 21.5884C138.831 21.7594 139.117 21.8906 139.491 21.9821C139.865 22.0736 140.313 22.1193 140.834 22.1193C141.351 22.1193 141.796 22.0736 142.17 21.9821C142.544 21.8906 142.83 21.7594 143.029 21.5884C143.228 21.4173 143.327 21.2125 143.327 20.9739C143.323 20.6 143.103 20.3136 142.665 20.1148C142.228 19.9119 141.617 19.8085 140.834 19.8045C140.042 19.8085 139.428 19.9119 138.99 20.1148C138.553 20.3136 138.336 20.6 138.34 20.9739ZM143.28 16.1295V14.9125H140.953V16.1295H143.28Z" fill="#717579"/>
<rect x="0.5" y="1" width="164" height="33" rx="16.5" stroke="#F2F2F2"/>
</svg>
