<svg width="165" height="34" viewBox="0 0 165 34" fill="none" xmlns="http://www.w3.org/2000/svg">
<rect x="0.5" y="0.5" width="164" height="33" rx="16.5" fill="white"/>
<path d="M30.3198 15.0005L29.5798 14.8775C29.562 14.9849 29.5677 15.095 29.5967 15.2C29.6256 15.305 29.6771 15.4024 29.7476 15.4855C29.818 15.5685 29.9056 15.6353 30.0045 15.681C30.1033 15.7268 30.2109 15.7505 30.3198 15.7505V15.0005ZM19.3198 15.0005V14.2505C19.1209 14.2505 18.9301 14.3295 18.7895 14.4702C18.6488 14.6108 18.5698 14.8016 18.5698 15.0005H19.3198ZM21.3198 25.7505H32.6798V24.2505H21.3198V25.7505ZM33.8798 14.2505H30.3198V15.7505H33.8798V14.2505ZM31.0598 15.1235L31.8658 10.2885L30.3858 10.0415L29.5798 14.8775L31.0598 15.1235ZM30.1398 8.2505H29.9258V9.7505H30.1388L30.1398 8.2505ZM26.8048 9.9205L24.2898 13.6935L25.5378 14.5255L28.0528 10.7525L26.8048 9.9205ZM23.2498 14.2505H19.3198V15.7505H23.2498V14.2505ZM18.5698 15.0005V23.0005H20.0698V15.0005H18.5698ZM35.3768 23.5405L36.5768 17.5405L35.1068 17.2455L33.9068 23.2455L35.3768 23.5395V23.5405ZM24.2898 13.6935C24.1757 13.8648 24.0211 14.0042 23.8397 14.1014C23.6582 14.1986 23.4556 14.2494 23.2498 14.2495V15.7495C24.1698 15.7495 25.0278 15.2905 25.5378 14.5255L24.2898 13.6935ZM31.8658 10.2885C31.9075 10.0379 31.8941 9.78017 31.8265 9.53524C31.759 9.29031 31.6389 9.06303 31.4747 8.86919C31.3104 8.67534 31.1059 8.51959 30.8754 8.41275C30.6449 8.30591 30.3939 8.25054 30.1398 8.2505L30.1388 9.7505C30.1751 9.75059 30.2119 9.75856 30.2447 9.77386C30.2776 9.78915 30.3067 9.81142 30.3301 9.8391C30.3535 9.86678 30.3706 9.89922 30.3802 9.93417C30.3899 9.96912 30.3918 10.0057 30.3858 10.0415L31.8658 10.2885ZM33.8798 15.7495C34.6698 15.7495 35.2598 16.4715 35.1058 17.2445L36.5768 17.5395C36.6564 17.1406 36.6465 16.728 36.5478 16.3334C36.4491 15.9388 36.2642 15.571 36.0062 15.2565C35.7482 14.942 35.4237 14.6886 35.056 14.5146C34.6883 14.3407 34.2866 14.2505 33.8798 14.2505V15.7505V15.7495ZM32.6798 25.7505C33.3155 25.7506 33.9316 25.5295 34.4234 25.1266C34.9151 24.7237 35.252 24.1628 35.3768 23.5395L33.9068 23.2445C33.8501 23.5281 33.6969 23.7833 33.4731 23.9665C33.2494 24.1498 32.969 24.2508 32.6798 24.2505V25.7505ZM29.9258 8.2505C29.3085 8.25054 28.7007 8.40199 28.1564 8.69332C27.6122 8.98464 27.1482 9.40583 26.8058 9.9195L28.0528 10.7525C28.2584 10.4442 28.5369 10.1904 28.8636 10.0156C29.1904 9.84075 29.5553 9.75036 29.9258 9.7505V8.2505ZM21.3198 24.2505C20.6298 24.2505 20.0698 23.6905 20.0698 23.0005H18.5698C18.5698 23.7298 18.8596 24.4293 19.3753 24.945C19.891 25.4608 20.5905 25.7505 21.3198 25.7505V24.2505Z" fill="black"/>
<path d="M23.3198 15.0005V25.0005" stroke="black" stroke-width="1.1"/>
<path d="M54.7724 19.0961H50.0177V22.6953H48.5567V19.0961H43.8286V17.8875H54.7724V19.0961ZM44.4263 15.9883C45.201 15.8953 45.8916 15.7116 46.4981 15.4371C47.1047 15.1582 47.585 14.8284 47.9392 14.4477C48.2933 14.0625 48.4948 13.6685 48.5435 13.2656H44.838V12.0969H48.5567V10.6891H50.0177V12.0969H53.7497V13.2656H50.0442C50.0929 13.6685 50.2922 14.0603 50.6419 14.441C50.9961 14.8217 51.4764 15.1516 52.0829 15.4305C52.6894 15.7094 53.3778 15.8953 54.1481 15.9883L53.6036 17.157C52.6252 17.0331 51.7619 16.7697 51.0138 16.3668C50.2656 15.9639 49.6945 15.4681 49.3005 14.8793C48.9021 15.4725 48.3243 15.9706 47.5673 16.3734C46.8147 16.7719 45.9448 17.0331 44.9575 17.157L44.4263 15.9883ZM59.8989 13.518C59.8945 14.0005 60.003 14.4654 60.2243 14.9125C60.4501 15.3596 60.7799 15.7581 61.2138 16.1078C61.6521 16.4576 62.1789 16.7276 62.7942 16.918L62.0771 18.0734C61.4086 17.8742 60.8286 17.5687 60.3372 17.157C59.8458 16.7453 59.4606 16.2583 59.1817 15.6961C58.9117 16.3026 58.5287 16.8294 58.0329 17.2766C57.5371 17.7193 56.9461 18.0513 56.2599 18.2727L55.5427 17.1172C56.158 16.9268 56.6804 16.6479 57.1099 16.2805C57.5437 15.913 57.8713 15.4924 58.0927 15.0187C58.314 14.5406 58.4247 14.0404 58.4247 13.518V13.332H55.9146V12.1633H58.4247V10.7555H59.9122V12.1633H62.4091V13.332H59.8989V13.518ZM57.7606 18.8305H59.2349V21.2477H65.9419V22.443H57.7606V18.8305ZM62.0106 14.2617H64.1622V10.6891H65.6364V19.6008H64.1622V15.4437H62.0106V14.2617ZM76.7396 15.457H78.5856V16.6789H76.7396V22.682H75.2786V10.6758H76.7396V15.457ZM67.27 12.5219H70.1122V10.8484H71.5864V12.5219H74.3489V13.7039H67.27V12.5219ZM67.8278 17.3164C67.8234 16.7719 67.9518 16.2849 68.213 15.8555C68.4742 15.4216 68.835 15.0852 69.2954 14.8461C69.7558 14.607 70.276 14.4875 70.856 14.4875C71.4271 14.4875 71.9406 14.607 72.3966 14.8461C72.8526 15.0852 73.2112 15.4216 73.4724 15.8555C73.738 16.2849 73.8708 16.7719 73.8708 17.3164C73.8708 17.8609 73.738 18.3479 73.4724 18.7773C73.2112 19.2023 72.8526 19.5344 72.3966 19.7734C71.9406 20.0125 71.4271 20.132 70.856 20.132C70.276 20.132 69.7558 20.0125 69.2954 19.7734C68.835 19.5344 68.4742 19.2023 68.213 18.7773C67.9518 18.3479 67.8234 17.8609 67.8278 17.3164ZM69.2356 17.3164C69.2356 17.6352 69.3043 17.9163 69.4415 18.1598C69.5787 18.3988 69.7691 18.5848 70.0126 18.7176C70.2605 18.846 70.5416 18.9102 70.856 18.9102C71.1614 18.9102 71.4359 18.846 71.6794 18.7176C71.9229 18.5892 72.1132 18.4033 72.2505 18.1598C72.3877 17.9163 72.4586 17.6352 72.463 17.3164C72.4586 16.9977 72.3855 16.7165 72.2438 16.473C72.1066 16.2251 71.9162 16.0348 71.6728 15.902C71.4337 15.7647 71.1614 15.6961 70.856 15.6961C70.5416 15.6961 70.2605 15.7647 70.0126 15.902C69.7691 16.0348 69.5787 16.2251 69.4415 16.473C69.3043 16.7165 69.2356 16.9977 69.2356 17.3164ZM88.8122 15.2445H80.4981V11.1141H81.9591V14.0758H88.8122V15.2445ZM79.0771 16.6391H90.0474V17.8078H79.0771V16.6391ZM80.3919 18.8703H81.8661V21.2078H88.8919V22.4031H80.3919V18.8703ZM100.779 12.7078H99.7161V16.1145C100.216 16.0746 100.646 16.0326 101.004 15.9883V14.9125H102.651V13.8766H101.004V12.6945H102.651V10.6758H104.125V18.0336H102.651V16.0945H101.038L101.097 17.0773C100.079 17.2456 99.0034 17.3585 97.87 17.416C96.7367 17.4691 95.5281 17.4979 94.2442 17.5023L94.0849 16.2805C94.6692 16.2805 95.1208 16.2783 95.4396 16.2738V12.7078H94.3903V11.5125H100.779V12.7078ZM95.9841 20.4641C95.9797 19.9992 96.139 19.6008 96.4622 19.2687C96.7898 18.9323 97.2591 18.6777 97.87 18.5051C98.4854 18.3324 99.2159 18.2461 100.061 18.2461C100.911 18.2461 101.644 18.3324 102.259 18.5051C102.875 18.6777 103.346 18.9301 103.674 19.2621C104.002 19.5941 104.165 19.9948 104.165 20.4641C104.165 20.9201 104.002 21.3141 103.674 21.6461C103.346 21.9781 102.875 22.2305 102.259 22.4031C101.644 22.5802 100.911 22.6688 100.061 22.6688C99.2203 22.6688 98.492 22.5802 97.8767 22.4031C97.2613 22.2305 96.7898 21.9781 96.4622 21.6461C96.139 21.3141 95.9797 20.9201 95.9841 20.4641ZM96.8739 16.2539C97.1838 16.2451 97.6575 16.2273 98.295 16.2008V12.7078H96.8739V16.2539ZM97.445 20.4641C97.4406 20.8094 97.6642 21.0728 98.1157 21.2543C98.5673 21.4358 99.2159 21.5266 100.061 21.5266C100.911 21.5266 101.562 21.4358 102.014 21.2543C102.465 21.0728 102.691 20.8094 102.691 20.4641C102.691 20.1099 102.463 19.8398 102.007 19.6539C101.556 19.468 100.907 19.375 100.061 19.375C99.2159 19.375 98.5673 19.468 98.1157 19.6539C97.6642 19.8398 97.4406 20.1099 97.445 20.4641ZM115.229 15.3641H117.008V16.5992H115.229V22.6555H113.754V10.6758H115.229V15.3641ZM105.759 19.375C107.224 18.6445 108.353 17.7658 109.146 16.7387C109.938 15.7072 110.408 14.5096 110.554 13.1461H106.41V11.9242H112.054C112.046 15.8643 110.226 18.7286 106.596 20.5172L105.759 19.375Z" fill="#202821"/>
<path d="M124.201 21.6193C123.536 21.6193 122.966 21.4463 122.488 21.1003C122.015 20.7503 121.653 20.2432 121.403 19.579C121.152 18.9148 121.027 18.1153 121.027 17.1807C121.027 16.25 121.152 15.4526 121.403 14.7884C121.657 14.1241 122.021 13.617 122.494 13.267C122.972 12.917 123.54 12.742 124.201 12.742C124.857 12.742 125.422 12.917 125.895 13.267C126.372 13.617 126.738 14.1241 126.993 14.7884C127.247 15.4526 127.374 16.25 127.374 17.1807C127.374 18.1153 127.247 18.9168 126.993 19.5849C126.742 20.2491 126.38 20.7543 125.907 21.1003C125.434 21.4463 124.865 21.6193 124.201 21.6193ZM122.339 17.2105C122.339 17.9145 122.413 18.5111 122.56 19.0003C122.707 19.4895 122.92 19.8594 123.198 20.1099C123.477 20.3605 123.811 20.4858 124.201 20.4858C124.59 20.4858 124.924 20.3605 125.203 20.1099C125.481 19.8554 125.694 19.4815 125.841 18.9884C125.988 18.4952 126.062 17.8926 126.062 17.1807C126.062 16.4727 125.986 15.8702 125.835 15.373C125.688 14.8759 125.475 14.5 125.197 14.2455C124.919 13.9869 124.586 13.8557 124.201 13.8517C123.811 13.8517 123.477 13.983 123.198 14.2455C122.92 14.504 122.707 14.8858 122.56 15.3909C122.413 15.892 122.339 16.4986 122.339 17.2105ZM131.742 21.6193C131.077 21.6193 130.507 21.4463 130.029 21.1003C129.556 20.7503 129.194 20.2432 128.944 19.579C128.693 18.9148 128.568 18.1153 128.568 17.1807C128.568 16.25 128.693 15.4526 128.944 14.7884C129.198 14.1241 129.562 13.617 130.035 13.267C130.513 12.917 131.081 12.742 131.742 12.742C132.398 12.742 132.963 12.917 133.436 13.267C133.913 13.617 134.279 14.1241 134.534 14.7884C134.788 15.4526 134.915 16.25 134.915 17.1807C134.915 18.1153 134.788 18.9168 134.534 19.5849C134.283 20.2491 133.921 20.7543 133.448 21.1003C132.974 21.4463 132.406 21.6193 131.742 21.6193ZM129.88 17.2105C129.88 17.9145 129.954 18.5111 130.101 19.0003C130.248 19.4895 130.461 19.8594 130.739 20.1099C131.018 20.3605 131.352 20.4858 131.742 20.4858C132.131 20.4858 132.465 20.3605 132.744 20.1099C133.022 19.8554 133.235 19.4815 133.382 18.9884C133.529 18.4952 133.603 17.8926 133.603 17.1807C133.603 16.4727 133.527 15.8702 133.376 15.373C133.229 14.8759 133.016 14.5 132.738 14.2455C132.459 13.9869 132.127 13.8557 131.742 13.8517C131.352 13.8517 131.018 13.983 130.739 14.2455C130.461 14.504 130.248 14.8858 130.101 15.3909C129.954 15.892 129.88 16.4986 129.88 17.2105ZM144.819 18.1352H143.685V16.5483H141.359V17.4193H136.395V12.6227H141.359V13.5057H143.685V11.8233H144.819V18.1352ZM140.249 16.5125V13.5295H137.517V16.5125H140.249ZM137.624 20.4739C137.624 20.0443 137.767 19.6764 138.053 19.3702C138.344 19.0639 138.759 18.8312 139.3 18.6722C139.845 18.5131 140.492 18.4335 141.239 18.4335C141.983 18.4335 142.625 18.5131 143.166 18.6722C143.707 18.8312 144.123 19.0639 144.413 19.3702C144.707 19.6764 144.855 20.0443 144.855 20.4739C144.855 20.8994 144.707 21.2634 144.413 21.5656C144.123 21.8679 143.707 22.0966 143.166 22.2517C142.625 22.4108 141.983 22.4903 141.239 22.4903C140.492 22.4903 139.845 22.4108 139.3 22.2517C138.759 22.0966 138.344 21.8679 138.053 21.5656C137.767 21.2634 137.624 20.8994 137.624 20.4739ZM138.746 20.4739C138.746 20.7125 138.843 20.9173 139.038 21.0884C139.237 21.2594 139.523 21.3906 139.897 21.4821C140.271 21.5736 140.718 21.6193 141.239 21.6193C141.756 21.6193 142.202 21.5736 142.576 21.4821C142.949 21.3906 143.236 21.2594 143.435 21.0884C143.634 20.9173 143.733 20.7125 143.733 20.4739C143.729 20.1 143.508 19.8136 143.071 19.6148C142.633 19.4119 142.023 19.3085 141.239 19.3045C140.448 19.3085 139.833 19.4119 139.396 19.6148C138.958 19.8136 138.742 20.1 138.746 20.4739ZM143.685 15.6295V14.4125H141.359V15.6295H143.685Z" fill="#717579"/>
<rect x="0.5" y="0.5" width="164" height="33" rx="16.5" stroke="#F2F2F2"/>
</svg>
