<svg width="68" height="30" viewBox="0 0 68 30" fill="none" xmlns="http://www.w3.org/2000/svg">
<g clip-path="url(#clip0_297_2114)">
<path d="M20.6697 17.2568C21.5505 15.9632 21.9908 14.3944 21.9908 12.5779C21.9908 10.7614 21.5505 9.19258 20.6697 7.87148C19.789 6.55038 18.578 5.53203 16.9817 4.81644C15.3853 4.10084 13.4862 3.74304 11.3119 3.74304H2.25688C1.01835 3.74304 0 4.76139 0 5.99992V27.8807C0 29.0366 0.93578 29.9724 2.09174 29.9724H7.89908V21.3027H9.6055L13.4037 28.7889C13.789 29.532 14.5321 29.9999 15.3578 29.9999H22.4312L17.3119 20.0366C18.6881 19.3485 19.844 18.4678 20.6147 17.2843L20.6697 17.2568ZM13.211 10.5687C13.7339 11.0641 14.0092 11.7247 14.0092 12.5779C14.0092 13.4311 13.7339 14.0917 13.211 14.5871C12.6881 15.0825 11.8899 15.3302 10.789 15.3302H7.89908V9.82561H10.789C11.8899 9.82561 12.6881 10.0733 13.211 10.5687Z" fill="white"/>
<path d="M25.321 10.734V28.2386C25.321 29.2294 26.1192 30 27.0825 30H32.7798V9.16516H26.8623C26.0091 9.16516 25.321 9.85324 25.321 10.7064V10.734Z" fill="white"/>
<path d="M66.2755 12.3029C65.6425 11.1194 64.7893 10.2386 63.6884 9.68817C62.5875 9.13771 61.3765 8.83496 60.0003 8.83496C58.3214 8.83496 56.8627 9.24781 55.5967 10.101C54.9911 10.5139 54.4407 11.0093 53.9728 11.5597C53.5875 10.9542 53.0921 10.4588 52.5141 10.0735C51.3031 9.24781 49.8994 8.83496 48.3031 8.83496C46.8994 8.83496 45.6058 9.16524 44.4774 9.85331C44.0095 10.1285 43.5966 10.5139 43.1838 10.8992V9.16524H37.7618C36.826 9.16524 36.0829 9.93588 36.0829 10.8441V28.1836C36.0829 29.1744 36.8811 29.9726 37.8719 29.9726H43.5691V18.4129C43.5691 17.5873 43.6792 16.9542 43.8719 16.4863C44.0921 16.0184 44.3673 15.6606 44.7251 15.4405C45.0829 15.2203 45.4682 15.1102 45.9086 15.1102C46.5416 15.1102 47.037 15.3579 47.3948 15.8258C47.7526 16.2937 47.9177 17.0918 47.9177 18.2203V28.3212C47.9177 29.257 48.6609 30.0001 49.5967 30.0001H55.3765V18.4405C55.3765 17.6148 55.4866 16.9817 55.6792 16.5139C55.8994 16.046 56.1746 15.6882 56.5324 15.468C56.8902 15.2478 57.2755 15.1377 57.7159 15.1377C58.3214 15.1377 58.7893 15.3854 59.1746 15.8533C59.56 16.3212 59.7251 17.1194 59.7251 18.2478V28.2386C59.7251 29.2295 60.5233 30.0001 61.4866 30.0001H67.1838V16.9542C67.1838 15.0551 66.8811 13.5139 66.248 12.3304L66.2755 12.3029Z" fill="white"/>
<path d="M25.2935 3.77071C25.2935 3.24777 25.376 2.77988 25.5962 2.31199C25.7889 1.87162 26.0641 1.45878 26.3944 1.12851C26.7522 0.770707 27.1375 0.523001 27.6054 0.33034C28.0733 0.13768 28.5412 0.0275879 29.0641 0.0275879C29.587 0.0275879 30.0549 0.13768 30.5228 0.33034C30.9907 0.523001 31.376 0.79823 31.7338 1.12851C32.0641 1.4863 32.3393 1.87162 32.532 2.31199C32.7246 2.77988 32.8347 3.24777 32.8347 3.77071C32.8347 4.29364 32.7522 4.76153 32.532 5.22942C32.3393 5.69731 32.0641 6.08263 31.7338 6.44043C31.376 6.77071 30.9907 7.04594 30.5228 7.2386C30.0824 7.43126 29.587 7.54135 29.0641 7.54135C28.5412 7.54135 28.0733 7.45878 27.6054 7.2386C27.1375 7.01841 26.7522 6.77071 26.3944 6.44043C26.0641 6.08263 25.7889 5.69731 25.5962 5.22942C25.4036 4.78906 25.2935 4.29364 25.2935 3.77071Z" fill="white"/>
</g>
<defs>
<clipPath id="clip0_297_2114">
<rect width="67.211" height="30" fill="white"/>
</clipPath>
</defs>
</svg>
