<svg width="23" height="22" viewBox="0 0 23 22" fill="none" xmlns="http://www.w3.org/2000/svg">
<path d="M0.100594 10.8544C0.303899 10.5626 0.635685 10.5773 0.931044 10.5158C1.98055 10.2982 3.03498 10.1028 4.08154 9.87146C5.26248 9.61058 6.10474 8.65417 6.24652 7.4418C6.38386 6.26783 6.5084 5.09189 6.64033 3.91694C6.68463 3.5202 6.73238 3.12346 6.7821 2.72771C6.80967 2.50915 6.97458 2.35755 7.17197 2.35952C7.37331 2.36099 7.5392 2.50965 7.56332 2.72672C7.66473 3.63341 7.74989 4.54207 7.86508 5.44679C7.96206 6.2063 7.97781 6.97862 8.15109 7.72533C8.43512 8.94705 9.23112 9.66521 10.448 9.92019C11.5782 10.1565 12.7119 10.3775 13.8436 10.6083C14.1168 10.664 14.2616 10.8126 14.2419 11.0218C14.2197 11.2615 14.0622 11.358 13.8353 11.4028C12.646 11.6381 11.4562 11.8724 10.2718 12.1288C9.10165 12.3823 8.2392 13.3471 8.10334 14.5299C7.94975 15.8663 7.8065 17.2037 7.65784 18.5406C7.62978 18.7917 7.60024 19.0432 7.56283 19.2933C7.53083 19.5049 7.4058 19.6309 7.18674 19.6423C6.97901 19.6531 6.80967 19.5118 6.78456 19.2938C6.68217 18.4023 6.59307 17.5089 6.48379 16.6185C6.38878 15.8417 6.35777 15.0556 6.19827 14.2887C5.95608 13.1246 5.05819 12.2967 3.88562 12.0781C2.75981 11.8684 1.64089 11.6218 0.516065 11.4077C0.329497 11.3723 0.216768 11.2704 0.0996094 11.1498V10.8549L0.100594 10.8544ZM11.69 11.0297C11.6767 10.9524 11.6383 10.9603 11.6097 10.9544C10.9757 10.818 10.3235 10.7526 9.71058 10.5325C8.26529 10.0137 7.3359 8.71816 7.26944 7.17452C7.26058 6.97172 7.22219 6.76991 7.19708 6.5676C7.10749 6.89986 7.06663 7.22719 7.02676 7.55453C6.91649 8.45974 6.51382 9.21039 5.84384 9.82667C5.18224 10.4356 4.36213 10.6561 3.50903 10.8047C3.22204 10.8544 2.93751 10.9194 2.652 10.9775C3.17282 11.1355 3.68871 11.2389 4.20411 11.3462C5.70207 11.6588 6.85151 12.9228 7.02676 14.4467C7.0622 14.7569 7.10503 15.0665 7.14391 15.3761C7.22268 15.1846 7.25615 14.9907 7.27043 14.7948C7.32211 14.0815 7.51902 13.417 7.92908 12.8263C8.57985 11.8891 9.5058 11.4181 10.6114 11.2463C10.9737 11.1901 11.3316 11.1025 11.69 11.0292V11.0297Z" fill="#202821"/>
<path d="M17.5371 0.000244141C17.6941 0.128717 17.7763 0.282785 17.7965 0.496413C17.8792 1.38095 17.9924 2.26254 18.0742 3.14757C18.1446 3.91348 18.3794 4.57012 19.134 4.91616C19.5076 5.08746 19.9211 5.11108 20.3159 5.20313C20.7826 5.31142 21.2527 5.40642 21.7233 5.49896C21.9542 5.54425 22.1033 5.66238 22.1004 5.90407C22.0974 6.13345 21.9532 6.2442 21.7317 6.28899C20.9657 6.44454 20.2002 6.60156 19.4377 6.77335C18.7239 6.93431 18.2056 7.52794 18.1258 8.24857C18.0102 9.29456 17.8965 10.3405 17.7822 11.3865C17.7557 11.6287 17.6104 11.7788 17.3978 11.7833C17.1817 11.7877 17.0256 11.6415 16.9991 11.4018C16.8829 10.3474 16.7662 9.29259 16.6535 8.23774C16.5796 7.54714 16.0426 6.92791 15.3559 6.77483C14.5938 6.60501 13.8294 6.44601 13.0644 6.28998C12.835 6.24321 12.6804 6.12754 12.6814 5.8893C12.6824 5.66287 12.831 5.54572 13.0496 5.50044C13.8136 5.34243 14.5786 5.18836 15.3386 5.01461C16.079 4.84528 16.5841 4.22261 16.6599 3.46555C16.7608 2.45943 16.8883 1.45577 16.9892 0.449159C17.0094 0.248821 17.1014 0.117887 17.2427 0.000244141H17.5376L17.5371 0.000244141ZM17.3894 7.84592C17.765 6.68967 18.5295 6.08619 19.6465 5.89176C18.5 5.70028 17.7552 5.0717 17.3884 3.93563C17.0291 5.0722 16.2784 5.69142 15.1491 5.89521C16.2646 6.09062 17.0104 6.69853 17.3894 7.84592Z" fill="#202821"/>
<path d="M19.7503 17.2943C19.7272 17.505 19.613 17.6345 19.4028 17.6773C18.8446 17.791 18.2873 17.9111 17.7271 18.0159C16.8962 18.1715 16.525 18.5953 16.4512 19.4385C16.3867 20.1773 16.2932 20.9137 16.2075 21.6506C16.1829 21.8647 16.0111 22.006 15.8053 21.9996C15.5976 21.9932 15.4543 21.8544 15.4273 21.6235C15.3332 20.8217 15.255 20.0178 15.1447 19.2185C15.0482 18.5195 14.6716 18.1557 13.9795 18.0218C13.405 17.9106 12.832 17.792 12.2581 17.6797C12.0385 17.6369 11.8953 17.5168 11.8953 17.2884C11.8953 17.0605 12.0385 16.9384 12.2576 16.8951C12.8227 16.7824 13.3868 16.6613 13.9529 16.5545C14.7228 16.4093 15.1132 15.9584 15.1836 15.1664C15.25 14.4197 15.3411 13.6745 15.4302 12.9297C15.4553 12.7195 15.5917 12.592 15.8063 12.5763C16.0047 12.5615 16.1814 12.7161 16.2065 12.9312C16.2932 13.6671 16.3788 14.4035 16.4536 15.1408C16.5265 15.8555 16.7583 16.429 17.896 16.6032C18.3941 16.6795 18.8854 16.7991 19.3806 16.8956C19.6017 16.9389 19.7237 17.0674 19.7503 17.2943ZM15.8201 15.9771C15.5228 16.6495 15.0541 17.0699 14.3275 17.2919C15.0605 17.5006 15.5223 17.9264 15.8201 18.5953C16.0982 17.919 16.5841 17.5203 17.2737 17.2855C16.5737 17.0556 16.1095 16.6505 15.8201 15.9771Z" fill="#202821"/>
</svg>
