<svg width="21" height="22" viewBox="0 0 21 22" fill="none" xmlns="http://www.w3.org/2000/svg">
<path d="M8.24706 21H12.9529M10.6 2.17647V1M16.4824 4.52941L17.6588 3.35294M4.71764 4.52941L3.54117 3.35294M16.4824 15.1176L17.6588 16.2941M4.71764 15.1176L3.54117 16.2941M2.3647 9.23529H1.18823M20.0118 9.23529H18.8353M10.6 5.11765C11.7945 5.11692 12.9541 5.52015 13.8904 6.26182C14.8268 7.00349 15.4848 8.04001 15.7575 9.20294C16.0302 10.3659 15.9017 11.5869 15.3928 12.6675C14.8838 13.7481 14.0244 14.6249 12.9541 15.1553L12.9529 16.2941C12.9529 16.9182 12.705 17.5166 12.2638 17.9579C11.8225 18.3992 11.224 18.6471 10.6 18.6471C9.97596 18.6471 9.37748 18.3992 8.93622 17.9579C8.49496 17.5166 8.24706 16.9182 8.24706 16.2941V15.1553C7.17689 14.6249 6.31751 13.7483 5.80855 12.6678C5.29958 11.5872 5.17094 10.3664 5.44353 9.20351C5.71612 8.04065 6.37392 7.00414 7.31004 6.26237C8.24617 5.5206 9.40562 5.11718 10.6 5.11765Z" stroke="#202821" stroke-width="1.17647" stroke-linecap="round" stroke-linejoin="round"/>
</svg>
