<svg width="14" height="22" viewBox="0 0 14 22" fill="none" xmlns="http://www.w3.org/2000/svg">
<path fill-rule="evenodd" clip-rule="evenodd" d="M6.61578 1.74658C6.38597 1.74658 6.1584 1.79185 5.94608 1.87979C5.73376 1.96774 5.54085 2.09664 5.37834 2.25915C5.21584 2.42165 5.08694 2.61457 4.99899 2.82689C4.91105 3.03921 4.86578 3.26677 4.86578 3.49658C4.86578 3.7264 4.91105 3.95396 4.99899 4.16628C5.08694 4.3786 5.21584 4.57152 5.37834 4.73402C5.54085 4.89652 5.73376 5.02543 5.94608 5.11337C6.1584 5.20132 6.38597 5.24658 6.61578 5.24658C7.07991 5.24658 7.52503 5.06221 7.85322 4.73402C8.18141 4.40583 8.36578 3.96071 8.36578 3.49658C8.36578 3.03245 8.18141 2.58733 7.85322 2.25915C7.52503 1.93096 7.07991 1.74658 6.61578 1.74658ZM3.36578 3.49658C3.36578 2.63463 3.70819 1.80798 4.31768 1.19848C4.92718 0.588992 5.75383 0.246582 6.61578 0.246582C7.47773 0.246582 8.30438 0.588992 8.91388 1.19848C9.52337 1.80798 9.86578 2.63463 9.86578 3.49658C9.86578 4.35854 9.52337 5.18519 8.91388 5.79468C8.30438 6.40417 7.47773 6.74658 6.61578 6.74658C5.75383 6.74658 4.92718 6.40417 4.31768 5.79468C3.70819 5.18519 3.36578 4.35854 3.36578 3.49658ZM7.64378 9.74958C7.55783 9.74601 7.47179 9.74501 7.38578 9.74658H6.29478L6.20378 10.6586C6.02978 12.3986 5.96878 13.0986 6.12378 13.7596C6.27978 14.4216 6.64578 15.0206 7.57678 16.5016L10.1508 20.5976C10.2539 20.7659 10.2865 20.9682 10.2414 21.1604C10.1964 21.3526 10.0774 21.5193 9.91023 21.6243C9.74307 21.7294 9.54123 21.7643 9.34851 21.7214C9.15579 21.6786 8.98773 21.5615 8.88078 21.3956L6.30678 17.2996L6.23378 17.1836C5.39878 15.8566 4.88378 15.0376 4.66378 14.1036C4.44378 13.1686 4.54078 12.2056 4.69778 10.6446L4.71078 10.5086L4.78678 9.74758C4.28678 9.75058 3.91478 9.75958 3.61678 9.79658C3.23878 9.84158 3.06278 9.92158 2.93778 10.0216C2.81378 10.1216 2.69778 10.2756 2.57078 10.6346C2.43778 11.0116 2.32278 11.5226 2.15178 12.2916L1.84778 13.6596C1.80229 13.8514 1.68311 14.0176 1.51604 14.1222C1.34896 14.2268 1.14742 14.2614 0.955013 14.2186C0.762605 14.1757 0.594799 14.0588 0.487898 13.8932C0.380996 13.7276 0.343593 13.5266 0.38378 13.3336L0.69778 11.9226C0.85578 11.2086 0.98978 10.6086 1.15678 10.1346C1.33378 9.63258 1.57578 9.19158 1.99978 8.85158C2.42378 8.51158 2.90578 8.37158 3.43478 8.30658C3.93378 8.24658 4.54878 8.24658 5.27978 8.24658H7.41078C7.54678 8.24658 7.65178 8.24658 7.75078 8.25358C8.29549 8.29258 8.81625 8.49287 9.2467 8.82894C9.67715 9.165 9.9978 9.62161 10.1678 10.1406C10.1978 10.2346 10.2238 10.3376 10.2578 10.4696L10.2628 10.4936C10.3188 10.7176 10.3358 10.7816 10.3518 10.8256C10.5618 11.4316 11.1968 11.7806 11.8208 11.6326C11.8668 11.6226 11.9298 11.6016 12.1488 11.5286L12.8788 11.2856C13.065 11.2313 13.265 11.2512 13.4369 11.3412C13.6087 11.4313 13.7389 11.5844 13.8003 11.7684C13.8616 11.9524 13.8493 12.1531 13.7658 12.3282C13.6824 12.5033 13.5343 12.6393 13.3528 12.7076L12.6228 12.9516L12.5908 12.9616C12.4513 13.0109 12.3099 13.0542 12.1668 13.0916C11.504 13.2486 10.8066 13.1541 10.2095 12.8264C9.61238 12.4987 9.15816 11.961 8.93478 11.3176C8.88905 11.1767 8.84935 11.0339 8.81578 10.8896L8.80778 10.8566C8.78829 10.7726 8.76628 10.6892 8.74178 10.6066C8.66444 10.3709 8.51873 10.1636 8.32321 10.011C8.12768 9.85837 7.89117 9.76738 7.64378 9.74958ZM4.53178 15.8726C4.69727 15.9829 4.81215 16.1545 4.85115 16.3495C4.89016 16.5445 4.8501 16.7471 4.73978 16.9126L1.73978 21.4126C1.68567 21.4957 1.61561 21.5673 1.53366 21.6231C1.45171 21.679 1.35948 21.7181 1.26233 21.7381C1.16518 21.758 1.06503 21.7586 0.967681 21.7396C0.870328 21.7206 0.777708 21.6825 0.695181 21.6275C0.612653 21.5725 0.541859 21.5016 0.486895 21.4191C0.431931 21.3365 0.39389 21.2438 0.374973 21.1465C0.356056 21.0491 0.35664 20.949 0.37669 20.8518C0.39674 20.7547 0.435858 20.6625 0.49178 20.5806L3.49178 16.0806C3.60212 15.9151 3.77367 15.8002 3.96871 15.7612C4.16374 15.7222 4.36628 15.7623 4.53178 15.8726Z" fill="white"/>
</svg>
