<svg width="16" height="15" viewBox="0 0 16 15" fill="none" xmlns="http://www.w3.org/2000/svg">
<path d="M7.38861 1.38168C7.58105 0.789405 8.41895 0.789404 8.61139 1.38168L9.8763 5.27464C9.96236 5.53952 10.2092 5.71885 10.4877 5.71885H14.581C15.2037 5.71885 15.4627 6.51574 14.9589 6.88179L11.6473 9.28777C11.422 9.45147 11.3277 9.74164 11.4138 10.0065L12.6787 13.8995C12.8711 14.4917 12.1932 14.9843 11.6894 14.6182L8.37786 12.2122C8.15255 12.0485 7.84745 12.0485 7.62214 12.2122L4.31058 14.6182C3.80677 14.9843 3.12889 14.4917 3.32133 13.8995L4.58623 10.0065C4.67229 9.74164 4.57801 9.45147 4.3527 9.28777L1.04114 6.88179C0.537325 6.51574 0.796252 5.71885 1.419 5.71885H5.51231C5.79081 5.71885 6.03764 5.53952 6.1237 5.27464L7.38861 1.38168Z" fill="#FF5C00"/>
</svg>
