<svg width="16" height="15" viewBox="0 0 16 15" fill="none" xmlns="http://www.w3.org/2000/svg">
<path d="M7.38861 0.881676C7.58105 0.289405 8.41895 0.289404 8.61139 0.881675L9.8763 4.77464C9.96236 5.03952 10.2092 5.21885 10.4877 5.21885H14.581C15.2037 5.21885 15.4627 6.01574 14.9589 6.38179L11.6473 8.78777C11.422 8.95147 11.3277 9.24164 11.4138 9.50651L12.6787 13.3995C12.8711 13.9917 12.1932 14.4843 11.6894 14.1182L8.37786 11.7122C8.15255 11.5485 7.84745 11.5485 7.62214 11.7122L4.31058 14.1182C3.80677 14.4843 3.12889 13.9917 3.32133 13.3995L4.58623 9.50651C4.67229 9.24164 4.57801 8.95147 4.3527 8.78777L1.04114 6.38179C0.537325 6.01574 0.796252 5.21885 1.419 5.21885H5.51231C5.79081 5.21885 6.03764 5.03952 6.1237 4.77464L7.38861 0.881676Z" fill="#9CEC37"/>
</svg>
