<svg width="347" height="44" viewBox="0 0 347 44" fill="none" xmlns="http://www.w3.org/2000/svg">
<g filter="url(#filter0_d_120_5353)">
<rect x="5" y="5" width="337" height="34" rx="17" fill="#8000FF" shape-rendering="crispEdges"/>
<path d="M40.5999 12.2484V14.6863" stroke="white" stroke-width="1.14568" stroke-linecap="round" stroke-linejoin="round"/>
<path d="M33.7061 15.1042L35.433 16.8317" stroke="white" stroke-width="1.14568" stroke-linecap="round" stroke-linejoin="round"/>
<path d="M30.8511 22H33.2883" stroke="white" stroke-width="1.14568" stroke-linecap="round" stroke-linejoin="round"/>
<path d="M33.7061 28.8958L35.433 27.1683" stroke="white" stroke-width="1.14568" stroke-linecap="round" stroke-linejoin="round"/>
<path d="M40.5999 31.7516V29.3137" stroke="white" stroke-width="1.14568" stroke-linecap="round" stroke-linejoin="round"/>
<path d="M47.4938 28.8958L45.7668 27.1683" stroke="white" stroke-width="1.14568" stroke-linecap="round" stroke-linejoin="round"/>
<path d="M50.3491 22H47.9119" stroke="white" stroke-width="1.14568" stroke-linecap="round" stroke-linejoin="round"/>
<path d="M47.4938 15.1042L45.7668 16.8317" stroke="white" stroke-width="1.14568" stroke-linecap="round" stroke-linejoin="round"/>
<path d="M63.4044 18.7703H57.5208V17.5883H59.7521V16.0211H61.213V17.5883H63.4044V18.7703ZM57.8661 22.1969C57.8617 21.6612 57.9701 21.1809 58.1915 20.7559C58.4173 20.3309 58.7294 20.001 59.1278 19.7664C59.5307 19.5273 59.9823 19.4078 60.4825 19.4078C60.9872 19.4078 61.4366 19.5273 61.8306 19.7664C62.229 20.001 62.5389 20.3309 62.7603 20.7559C62.986 21.1809 63.0989 21.6612 63.0989 22.1969C63.0989 22.7458 62.986 23.235 62.7603 23.6645C62.5389 24.0939 62.229 24.4281 61.8306 24.6672C61.4366 24.9062 60.9872 25.0258 60.4825 25.0258C59.9823 25.0258 59.5307 24.9062 59.1278 24.6672C58.7294 24.4281 58.4173 24.0939 58.1915 23.6645C57.9701 23.235 57.8617 22.7458 57.8661 22.1969ZM59.1677 22.1969C59.1677 22.5156 59.2208 22.7945 59.3271 23.0336C59.4377 23.2682 59.5927 23.4497 59.7919 23.5781C59.9955 23.7021 60.2257 23.7641 60.4825 23.7641C60.7393 23.7641 60.9673 23.7021 61.1665 23.5781C61.3657 23.4497 61.5207 23.2682 61.6313 23.0336C61.742 22.7945 61.7974 22.5156 61.7974 22.1969C61.7974 21.887 61.742 21.6147 61.6313 21.3801C61.5207 21.141 61.3657 20.9573 61.1665 20.8289C60.9673 20.6961 60.7393 20.6297 60.4825 20.6297C60.2257 20.6297 59.9978 20.6961 59.7985 20.8289C59.5993 20.9573 59.4444 21.141 59.3337 21.3801C59.223 21.6147 59.1677 21.887 59.1677 22.1969ZM63.9091 15.9281H65.2903V20.6164H66.4591V15.6758H67.8669V27.682H66.4591V21.8117H65.2903V27.1375H63.9091V15.9281ZM78.7841 18.6242H80.4442V19.8328H78.7841V22.6883H77.2966V15.6758H78.7841V18.6242ZM69.7661 16.5258H75.145V17.7211H71.2271V20.7359C72.4179 20.7315 73.3764 20.7049 74.1024 20.6562C74.8285 20.6031 75.5346 20.5057 76.2208 20.3641L76.3669 21.5461C75.6276 21.7055 74.8595 21.8095 74.0626 21.8582C73.2701 21.9069 72.1612 21.9312 70.7356 21.9312H69.7661V16.5258ZM70.8021 25.2781C70.8021 24.7867 70.9659 24.3639 71.2935 24.0098C71.6255 23.6556 72.097 23.3855 72.7079 23.1996C73.3233 23.0092 74.0427 22.9141 74.8661 22.9141C75.6851 22.9141 76.3957 23.0092 76.9978 23.1996C77.6043 23.3855 78.0713 23.6556 78.3989 24.0098C78.7265 24.3639 78.8903 24.7867 78.8903 25.2781C78.8903 25.7784 78.7265 26.2078 78.3989 26.5664C78.0713 26.925 77.6043 27.1973 76.9978 27.3832C76.3957 27.5736 75.6851 27.6688 74.8661 27.6688C74.0382 27.6688 73.3188 27.5736 72.7079 27.3832C72.097 27.1973 71.6255 26.925 71.2935 26.5664C70.9659 26.2078 70.8021 25.7784 70.8021 25.2781ZM72.263 25.2781C72.2586 25.6633 72.4843 25.9621 72.9403 26.1746C73.3963 26.3827 74.0382 26.4867 74.8661 26.4867C75.6763 26.4867 76.3093 26.3827 76.7653 26.1746C77.2213 25.9621 77.4515 25.6633 77.456 25.2781C77.4515 24.9018 77.2235 24.6118 76.772 24.4082C76.3248 24.2001 75.7028 24.0961 74.906 24.0961C74.0604 24.0961 73.4074 24.1979 72.947 24.4016C72.4866 24.6052 72.2586 24.8974 72.263 25.2781ZM87.6161 16.207C88.1297 16.207 88.6011 16.3 89.0306 16.4859C89.46 16.6674 89.8186 16.9264 90.1063 17.2629C90.3985 17.5949 90.5933 17.9779 90.6907 18.4117H92.8622V15.6758H94.3364V22.1172H92.8622V19.607H90.704C90.611 20.0542 90.4185 20.4482 90.1263 20.7891C89.8385 21.1299 89.4777 21.3956 89.0438 21.5859C88.61 21.7719 88.1341 21.8648 87.6161 21.8648C87.0096 21.8648 86.4651 21.7431 85.9825 21.4996C85.5 21.2561 85.1215 20.9197 84.847 20.4902C84.5769 20.0564 84.4419 19.5672 84.4419 19.0227C84.4419 18.4826 84.5769 17.9978 84.847 17.5684C85.1215 17.1389 85.5 16.8047 85.9825 16.5656C86.4651 16.3266 87.0096 16.207 87.6161 16.207ZM85.8497 19.0227C85.8497 19.337 85.925 19.6159 86.0755 19.8594C86.226 20.1029 86.4341 20.291 86.6997 20.4238C86.9698 20.5522 87.2752 20.6164 87.6161 20.6164C87.9481 20.6164 88.2448 20.5522 88.506 20.4238C88.7716 20.291 88.9797 20.1029 89.1302 19.8594C89.2807 19.6159 89.356 19.337 89.356 19.0227C89.356 18.7083 89.2807 18.4316 89.1302 18.1926C88.9797 17.9491 88.7738 17.7632 88.5126 17.6348C88.2514 17.5064 87.9526 17.4422 87.6161 17.4422C87.2708 17.4422 86.9653 17.5064 86.6997 17.6348C86.4341 17.7632 86.226 17.9491 86.0755 18.1926C85.925 18.4316 85.8497 18.7083 85.8497 19.0227ZM86.4208 22.675H87.8817V23.95H92.8622V22.675H94.3364V27.5359H86.4208V22.675ZM92.8622 26.3406V25.0922H87.8817V26.3406H92.8622ZM99.7021 19.3414C99.7021 19.9789 99.7906 20.5965 99.9677 21.1941C100.145 21.7874 100.417 22.3275 100.784 22.8145C101.152 23.297 101.606 23.6844 102.146 23.9766L101.322 25.0656C100.782 24.7779 100.317 24.3861 99.9278 23.8902C99.5427 23.39 99.2394 22.8122 99.0181 22.157C98.7967 22.8654 98.4935 23.494 98.1083 24.043C97.7231 24.5919 97.2583 25.0258 96.7138 25.3445L95.8505 24.2289C96.395 23.9146 96.851 23.4984 97.2185 22.9805C97.5859 22.4625 97.8582 21.8914 98.0353 21.2672C98.2123 20.6385 98.3031 19.9966 98.3075 19.3414V18.9695H96.2622V17.7742H98.3075V16.1008H99.7021V17.7742H101.708V18.9695H99.7021V19.3414ZM100.964 20.2844H102.531V15.9016H103.925V27.0977H102.531V21.5062H100.964V20.2844ZM104.961 15.6758H106.369V27.682H104.961V15.6758ZM117.193 20.3641H118.973V21.5992H117.193V27.6555H115.719V15.6758H117.193V20.3641ZM107.724 24.375C109.189 23.6445 110.318 22.7658 111.111 21.7387C111.903 20.7072 112.372 19.5096 112.518 18.1461H108.375V16.9242H114.019C114.01 20.8643 112.191 23.7286 108.561 25.5172L107.724 24.375ZM133.104 27.682H131.697V15.6758H133.104V27.682ZM122.559 24.2687C123.117 23.9279 123.582 23.4785 123.954 22.9207C124.33 22.3585 124.607 21.7387 124.784 21.0613C124.965 20.3796 125.056 19.6779 125.056 18.9562V18.1594H122.971V16.9641H128.416V18.1594H126.477V18.9562C126.477 19.6557 126.563 20.3286 126.736 20.975C126.909 21.6214 127.177 22.2079 127.54 22.7348C127.907 23.2616 128.367 23.6844 128.921 24.0031L128.044 25.0922C127.504 24.7734 127.046 24.344 126.67 23.8039C126.293 23.2594 125.997 22.6329 125.78 21.9246C125.558 22.6949 125.253 23.3767 124.863 23.9699C124.478 24.5632 124.011 25.0302 123.462 25.3711L122.559 24.2687ZM127.54 19.8594H129.266V15.9016H130.661V27.0977H129.266V21.0547H127.54V19.8594ZM139.931 23.1797C140.799 23.1797 141.551 23.2704 142.189 23.452C142.831 23.629 143.324 23.888 143.67 24.2289C144.019 24.5654 144.194 24.9682 144.194 25.4375C144.194 25.8979 144.019 26.2941 143.67 26.6262C143.324 26.9626 142.831 27.2194 142.189 27.3965C141.551 27.578 140.799 27.6688 139.931 27.6688C139.072 27.6688 138.322 27.578 137.68 27.3965C137.042 27.2194 136.549 26.9626 136.199 26.6262C135.854 26.2941 135.681 25.8979 135.681 25.4375C135.681 24.9682 135.854 24.5654 136.199 24.2289C136.549 23.888 137.042 23.629 137.68 23.452C138.322 23.2704 139.072 23.1797 139.931 23.1797ZM134.552 21.1211H138.775V18.943H140.236V21.1211H145.443V22.3164H134.552V21.1211ZM135.8 16.2469H144.115V17.243V17.5949C144.115 18.1129 144.092 18.5932 144.048 19.0359C144.008 19.4786 143.92 19.9435 143.783 20.4305L142.322 20.2977C142.454 19.7753 142.541 19.2993 142.581 18.8699C142.62 18.4405 142.64 17.9557 142.64 17.4156H135.8V16.2469ZM137.168 25.4375C137.164 25.7872 137.403 26.0573 137.886 26.2477C138.373 26.4336 139.054 26.5266 139.931 26.5266C140.808 26.5266 141.492 26.4336 141.983 26.2477C142.479 26.0573 142.729 25.7872 142.733 25.4375C142.729 25.0745 142.479 24.7934 141.983 24.5941C141.492 24.3949 140.808 24.2953 139.931 24.2953C139.059 24.2953 138.379 24.3949 137.892 24.5941C137.405 24.7934 137.164 25.0745 137.168 25.4375ZM155.683 20.457H157.529V21.6789H155.683V27.682H154.222V15.6758H155.683V20.457ZM146.213 17.5219H149.055V15.8484H150.529V17.5219H153.292V18.7039H146.213V17.5219ZM146.771 22.3164C146.766 21.7719 146.895 21.2849 147.156 20.8555C147.417 20.4216 147.778 20.0852 148.238 19.8461C148.699 19.607 149.219 19.4875 149.799 19.4875C150.37 19.4875 150.884 19.607 151.34 19.8461C151.796 20.0852 152.154 20.4216 152.415 20.8555C152.681 21.2849 152.814 21.7719 152.814 22.3164C152.814 22.8609 152.681 23.3479 152.415 23.7773C152.154 24.2023 151.796 24.5344 151.34 24.7734C150.884 25.0125 150.37 25.132 149.799 25.132C149.219 25.132 148.699 25.0125 148.238 24.7734C147.778 24.5344 147.417 24.2023 147.156 23.7773C146.895 23.3479 146.766 22.8609 146.771 22.3164ZM148.179 22.3164C148.179 22.6352 148.247 22.9163 148.384 23.1598C148.522 23.3988 148.712 23.5848 148.956 23.7176C149.203 23.846 149.485 23.9102 149.799 23.9102C150.104 23.9102 150.379 23.846 150.622 23.7176C150.866 23.5892 151.056 23.4033 151.193 23.1598C151.331 22.9163 151.402 22.6352 151.406 22.3164C151.402 21.9977 151.328 21.7165 151.187 21.473C151.05 21.2251 150.859 21.0348 150.616 20.902C150.377 20.7647 150.104 20.6961 149.799 20.6961C149.485 20.6961 149.203 20.7647 148.956 20.902C148.712 21.0348 148.522 21.2251 148.384 21.473C148.247 21.7165 148.179 21.9977 148.179 22.3164ZM167.755 20.2445H159.441V16.1141H160.902V19.0758H167.755V20.2445ZM158.02 21.6391H168.99V22.8078H158.02V21.6391ZM159.335 23.8703H160.809V26.2078H167.835V27.4031H159.335V23.8703ZM178.42 23.1797C179.288 23.1797 180.04 23.2704 180.678 23.452C181.32 23.629 181.813 23.888 182.159 24.2289C182.508 24.5654 182.683 24.9682 182.683 25.4375C182.683 25.8979 182.508 26.2941 182.159 26.6262C181.813 26.9626 181.32 27.2194 180.678 27.3965C180.04 27.578 179.288 27.6688 178.42 27.6688C177.561 27.6688 176.811 27.578 176.169 27.3965C175.531 27.2194 175.038 26.9626 174.688 26.6262C174.343 26.2941 174.17 25.8979 174.17 25.4375C174.17 24.9682 174.343 24.5654 174.688 24.2289C175.038 23.888 175.531 23.629 176.169 23.452C176.811 23.2704 177.561 23.1797 178.42 23.1797ZM173.041 21.1211H177.265V18.943H178.725V21.1211H183.932V22.3164H173.041V21.1211ZM174.29 16.2469H182.604V17.243V17.5949C182.604 18.1129 182.581 18.5932 182.537 19.0359C182.497 19.4786 182.409 19.9435 182.272 20.4305L180.811 20.2977C180.943 19.7753 181.03 19.2993 181.07 18.8699C181.109 18.4405 181.129 17.9557 181.129 17.4156H174.29V16.2469ZM175.658 25.4375C175.653 25.7872 175.892 26.0573 176.375 26.2477C176.862 26.4336 177.543 26.5266 178.42 26.5266C179.297 26.5266 179.981 26.4336 180.472 26.2477C180.968 26.0573 181.218 25.7872 181.222 25.4375C181.218 25.0745 180.968 24.7934 180.472 24.5941C179.981 24.3949 179.297 24.2953 178.42 24.2953C177.548 24.2953 176.868 24.3949 176.381 24.5941C175.894 24.7934 175.653 25.0745 175.658 25.4375ZM194.238 19.1289H195.911V20.3641H194.238V24.3352H192.737V15.6758H194.238V19.1289ZM184.729 21.918C185.636 21.6568 186.422 21.3203 187.086 20.9086C187.75 20.4969 188.272 20.0298 188.653 19.5074C189.038 18.9806 189.273 18.4117 189.357 17.8008H185.233V16.5922H190.971C190.971 17.6458 190.749 18.5999 190.307 19.4543C189.864 20.3043 189.222 21.037 188.381 21.6523C187.54 22.2633 186.526 22.7414 185.34 23.0867L184.729 21.918ZM186.522 23.4453H188.022V26.2477H194.69V27.443H186.522V23.4453ZM200.414 16.5125C201.042 16.5125 201.607 16.6365 202.107 16.8844C202.607 17.1279 202.999 17.471 203.283 17.9137C203.57 18.352 203.716 18.85 203.721 19.4078C203.716 19.9701 203.57 20.4725 203.283 20.9152C202.999 21.3535 202.607 21.6966 202.107 21.9445C201.607 22.1924 201.042 22.3164 200.414 22.3164C199.79 22.3164 199.225 22.1924 198.72 21.9445C198.22 21.6966 197.828 21.3513 197.545 20.9086C197.262 20.4659 197.12 19.9656 197.12 19.4078C197.12 18.85 197.262 18.352 197.545 17.9137C197.833 17.471 198.227 17.1279 198.727 16.8844C199.227 16.6365 199.79 16.5125 200.414 16.5125ZM196.575 23.9766C198.045 23.9766 199.418 23.9522 200.693 23.9035C201.968 23.8504 203.181 23.7419 204.332 23.5781L204.451 24.6539C203.265 24.8797 202.054 25.0258 200.819 25.0922C199.588 25.1542 198.236 25.1852 196.761 25.1852L196.575 23.9766ZM198.581 19.4078C198.581 19.7354 198.658 20.0232 198.813 20.2711C198.973 20.5146 199.192 20.7027 199.471 20.8355C199.75 20.9639 200.064 21.0281 200.414 21.0281C200.768 21.0281 201.084 20.9639 201.363 20.8355C201.647 20.7027 201.868 20.5146 202.027 20.2711C202.191 20.0232 202.273 19.7354 202.273 19.4078C202.273 19.0802 202.191 18.7947 202.027 18.5512C201.868 18.3077 201.647 18.1195 201.363 17.9867C201.084 17.8539 200.768 17.7875 200.414 17.7875C200.064 17.7875 199.75 17.8539 199.471 17.9867C199.192 18.1195 198.973 18.3099 198.813 18.5578C198.658 18.8013 198.581 19.0846 198.581 19.4078ZM205.049 15.6758H206.523V27.6953H205.049V15.6758ZM218.29 16.8312C218.286 17.3891 218.268 17.8893 218.237 18.332C218.211 18.7703 218.142 19.2639 218.031 19.8129C218.456 19.7863 218.875 19.7531 219.286 19.7133L219.366 20.643C218.339 20.7802 217.228 20.8776 216.033 20.9352V22.7016H214.572V20.9949C213.722 21.0171 212.748 21.0281 211.65 21.0281L211.49 19.9922C213.598 19.9833 215.284 19.9523 216.55 19.8992C216.617 19.5628 216.672 19.2241 216.717 18.8832L212.42 19.1422L212.194 18.1062L216.803 17.9203C216.812 17.7565 216.821 17.5042 216.829 17.1633H212.54V16.0875H218.29V16.8312ZM213.243 23.0602H221.571V25.743H214.744V26.5266H221.89V27.5758H213.297V24.7734H220.11V24.0695H213.243V23.0602ZM217.839 21.2672H220.083V15.6891H221.571V22.6883H220.083V22.1969H217.839V21.2672ZM233.258 27.6953H231.797V15.6758H233.258V27.6953ZM223.908 16.725H229.566V21.2273H225.436V23.6445C226.436 23.6357 227.361 23.6003 228.211 23.5383C229.061 23.4763 229.934 23.3701 230.828 23.2195L230.961 24.4281C230.031 24.5875 229.115 24.6982 228.211 24.7602C227.313 24.8221 226.312 24.8531 225.21 24.8531H224.971H223.922V20.0586H228.065V17.9203H223.908V16.725ZM241.718 17.9203H237.163V20.0586H241.24V21.2273H237.163V23.6977C238.212 23.6932 239.133 23.6667 239.925 23.618C240.722 23.5648 241.533 23.4719 242.356 23.3391L242.502 24.5344C241.612 24.676 240.727 24.7712 239.846 24.8199C238.965 24.8686 237.92 24.893 236.711 24.893H235.702V16.7117H241.718V17.9203ZM243.551 15.6758H245.039V27.682H243.551V15.6758ZM256.168 20.3641H257.948V21.5992H256.168V27.6555H254.694V15.6758H256.168V20.3641ZM246.699 24.375C248.164 23.6445 249.293 22.7658 250.086 21.7387C250.878 20.7072 251.347 19.5096 251.493 18.1461H247.35V16.9242H252.994C252.985 20.8643 251.166 23.7286 247.536 25.5172L246.699 24.375ZM265.027 16.5523C265.563 16.5523 266.047 16.6962 266.481 16.984C266.915 17.2717 267.269 17.6835 267.544 18.2191C267.818 18.7504 267.991 19.3768 268.062 20.0984H270.353V15.6758H271.814V27.6953H270.353V21.2937H268.075C268.022 22.0552 267.86 22.7193 267.59 23.2859C267.32 23.8482 266.964 24.282 266.521 24.5875C266.078 24.8885 265.58 25.0391 265.027 25.0391C264.425 25.0391 263.889 24.8664 263.42 24.5211C262.955 24.1714 262.592 23.6755 262.331 23.0336C262.074 22.3917 261.946 21.6435 261.946 20.7891C261.946 19.9391 262.074 19.1953 262.331 18.5578C262.592 17.9159 262.957 17.4223 263.427 17.077C263.896 16.7272 264.429 16.5523 265.027 16.5523ZM263.367 20.7891C263.367 21.3956 263.436 21.918 263.573 22.3562C263.71 22.7945 263.903 23.1288 264.15 23.359C264.403 23.5892 264.695 23.7065 265.027 23.7109C265.359 23.7065 265.651 23.5892 265.904 23.359C266.156 23.1288 266.351 22.7945 266.488 22.3562C266.63 21.918 266.7 21.3956 266.7 20.7891C266.7 20.187 266.63 19.6668 266.488 19.2285C266.351 18.7902 266.156 18.456 265.904 18.2258C265.651 17.9956 265.359 17.8805 265.027 17.8805C264.695 17.8805 264.403 17.9978 264.15 18.2324C263.903 18.4626 263.71 18.7969 263.573 19.2352C263.436 19.669 263.367 20.187 263.367 20.7891ZM283.979 27.443H275.426V23.6445H276.9V26.2477H283.979V27.443ZM273.74 16.6187H276.847V17.8141H275.187V21.4066C275.798 21.3845 276.383 21.3115 276.94 21.1875L277.06 22.3828C276.635 22.4802 276.236 22.5422 275.865 22.5687C275.497 22.5909 275.023 22.6042 274.443 22.6086H274.297H273.74V16.6187ZM277.458 16.6187H280.818V17.8141H278.919V21.4199C279.393 21.4111 279.798 21.3889 280.134 21.3535C280.471 21.3137 280.81 21.2539 281.15 21.1742L281.297 22.3695C280.849 22.4669 280.409 22.5311 279.975 22.5621C279.546 22.5887 278.919 22.6042 278.096 22.6086H277.458V16.6187ZM280.367 18.9031H282.213V15.6891H283.661V24.375H282.213V20.0984H280.367V18.9031ZM294.658 20.3641H296.437V21.5992H294.658V27.6555H293.183V15.6758H294.658V20.3641ZM285.188 24.375C286.653 23.6445 287.782 22.7658 288.575 21.7387C289.367 20.7072 289.836 19.5096 289.983 18.1461H285.839V16.9242H291.483C291.474 20.8643 289.655 23.7286 286.025 25.5172L285.188 24.375ZM307.979 26.2211H297.008V25.0125H299.545V21.9777C299.058 21.6988 298.68 21.3469 298.409 20.9219C298.144 20.4969 298.013 20.0232 298.018 19.5008C298.018 18.8721 298.206 18.3187 298.582 17.8406C298.963 17.3581 299.492 16.9862 300.169 16.725C300.847 16.4594 301.612 16.3266 302.467 16.3266C303.326 16.3266 304.094 16.4594 304.771 16.725C305.453 16.9862 305.984 17.3581 306.365 17.8406C306.75 18.3187 306.943 18.8721 306.943 19.5008C306.947 20.0143 306.819 20.4792 306.558 20.8953C306.296 21.3115 305.929 21.6612 305.455 21.9445V25.0125H307.979V26.2211ZM299.465 19.5008C299.465 19.9036 299.589 20.2578 299.837 20.5633C300.09 20.8643 300.442 21.0967 300.893 21.2605C301.349 21.4243 301.874 21.5062 302.467 21.5062C303.06 21.5062 303.585 21.4243 304.041 21.2605C304.501 21.0967 304.858 20.8643 305.11 20.5633C305.367 20.2578 305.495 19.9036 305.495 19.5008C305.495 19.0935 305.367 18.7371 305.11 18.4316C304.858 18.1262 304.501 17.8937 304.041 17.7344C303.585 17.575 303.06 17.4953 302.467 17.4953C301.869 17.4953 301.342 17.575 300.886 17.7344C300.435 17.8937 300.085 18.1262 299.837 18.4316C299.589 18.7327 299.465 19.0891 299.465 19.5008ZM303.954 25.0125V22.509C303.485 22.6108 302.989 22.6617 302.467 22.6617C301.967 22.6617 301.48 22.613 301.006 22.5156V25.0125H303.954ZM310.794 23.5516C310.799 23.007 310.852 22.5665 310.954 22.2301C311.055 21.8936 311.197 21.6236 311.379 21.4199C311.565 21.2163 311.812 21.0193 312.122 20.8289C312.437 20.6253 312.682 20.4061 312.859 20.1715C313.037 19.9368 313.123 19.6646 313.118 19.3547C313.118 19.1112 313.061 18.8987 312.946 18.7172C312.835 18.5312 312.68 18.3874 312.481 18.2855C312.282 18.1837 312.06 18.1328 311.817 18.1328C311.591 18.1328 311.379 18.1815 311.179 18.2789C310.98 18.3763 310.816 18.5246 310.688 18.7238C310.56 18.923 310.489 19.1643 310.475 19.4477H308.815C308.829 18.8721 308.97 18.3829 309.24 17.9801C309.51 17.5728 309.869 17.2673 310.316 17.0637C310.768 16.8556 311.272 16.7516 311.83 16.7516C312.423 16.7516 312.948 16.8578 313.404 17.0703C313.864 17.2784 314.221 17.5772 314.473 17.9668C314.73 18.3564 314.858 18.8102 314.858 19.3281C314.854 19.8461 314.73 20.291 314.486 20.6629C314.247 21.0348 313.902 21.3557 313.45 21.6258C313.185 21.7896 312.972 21.9556 312.813 22.1238C312.658 22.2921 312.543 22.4891 312.468 22.7148C312.392 22.9406 312.353 23.2195 312.348 23.5516V23.6711H310.794V23.5516ZM310.582 25.5703C310.582 25.3888 310.628 25.2206 310.721 25.0656C310.814 24.9062 310.94 24.7801 311.1 24.6871C311.259 24.5941 311.432 24.5477 311.618 24.5477C311.799 24.5477 311.967 24.5941 312.122 24.6871C312.282 24.7801 312.408 24.9062 312.501 25.0656C312.594 25.2206 312.64 25.3888 312.64 25.5703C312.64 25.7562 312.594 25.9289 312.501 26.0883C312.408 26.2477 312.282 26.3738 312.122 26.4668C311.967 26.5598 311.799 26.6063 311.618 26.6063C311.432 26.6063 311.259 26.5598 311.1 26.4668C310.94 26.3738 310.814 26.2477 310.721 26.0883C310.628 25.9289 310.582 25.7562 310.582 25.5703Z" fill="white"/>
</g>
<g filter="url(#filter1_d_120_5353)">
<rect x="5" y="5" width="337" height="34" rx="17" fill="#8000FF" shape-rendering="crispEdges"/>
<path d="M52.5001 26.136L52.5111 26.1239M41.5001 26.136L41.5111 26.1239M56.9001 32.725V17.325M56.9001 17.325H54.7001V10.725H59.1001V17.325H56.9001ZM52.5001 30.525H37.7601C37.5851 30.525 37.4172 30.4554 37.2934 30.3317C37.1696 30.2079 37.1001 30.04 37.1001 29.865V22.385C37.1001 22.2099 37.1696 22.0421 37.2934 21.9183C37.4172 21.7945 37.5851 21.725 37.7601 21.725H52.5001M50.3001 17.325H41.5001M50.3001 10.725H41.5001C40.3331 10.725 39.214 11.1885 38.3888 12.0137C37.5637 12.8389 37.1001 13.958 37.1001 15.125V17.325" stroke="white" stroke-width="1.18" stroke-linecap="round" stroke-linejoin="round"/>
<path d="M38.7502 30.525V32.615C38.7502 32.7901 38.8198 32.9579 38.9436 33.0817C39.0673 33.2055 39.2352 33.275 39.4102 33.275H42.4902C42.6653 33.275 42.8332 33.2055 42.9569 33.0817C43.0807 32.9579 43.1502 32.7901 43.1502 32.615V30.525M50.8502 30.525V32.615C50.8502 32.7901 50.9198 32.9579 51.0436 33.0817C51.1673 33.2055 51.3352 33.275 51.5102 33.275H52.5002" stroke="white" stroke-width="1.18" stroke-linecap="round"/>
<path d="M72.1554 18.7703H66.2718V17.5883H68.503V16.0211H69.964V17.5883H72.1554V18.7703ZM66.6171 22.1969C66.6127 21.6612 66.7211 21.1809 66.9425 20.7559C67.1683 20.3309 67.4804 20.001 67.8788 19.7664C68.2817 19.5273 68.7332 19.4078 69.2335 19.4078C69.7382 19.4078 70.1875 19.5273 70.5815 19.7664C70.98 20.001 71.2899 20.3309 71.5112 20.7559C71.737 21.1809 71.8499 21.6612 71.8499 22.1969C71.8499 22.7458 71.737 23.235 71.5112 23.6645C71.2899 24.0939 70.98 24.4281 70.5815 24.6672C70.1875 24.9062 69.7382 25.0258 69.2335 25.0258C68.7332 25.0258 68.2817 24.9062 67.8788 24.6672C67.4804 24.4281 67.1683 24.0939 66.9425 23.6645C66.7211 23.235 66.6127 22.7458 66.6171 22.1969ZM67.9187 22.1969C67.9187 22.5156 67.9718 22.7945 68.078 23.0336C68.1887 23.2682 68.3437 23.4497 68.5429 23.5781C68.7465 23.7021 68.9767 23.7641 69.2335 23.7641C69.4903 23.7641 69.7183 23.7021 69.9175 23.5781C70.1167 23.4497 70.2716 23.2682 70.3823 23.0336C70.493 22.7945 70.5483 22.5156 70.5483 22.1969C70.5483 21.887 70.493 21.6147 70.3823 21.3801C70.2716 21.141 70.1167 20.9573 69.9175 20.8289C69.7183 20.6961 69.4903 20.6297 69.2335 20.6297C68.9767 20.6297 68.7487 20.6961 68.5495 20.8289C68.3503 20.9573 68.1953 21.141 68.0847 21.3801C67.974 21.6147 67.9187 21.887 67.9187 22.1969ZM72.6601 15.9281H74.0413V20.6164H75.2101V15.6758H76.6179V27.682H75.2101V21.8117H74.0413V27.1375H72.6601V15.9281ZM87.5351 18.6242H89.1952V19.8328H87.5351V22.6883H86.0476V15.6758H87.5351V18.6242ZM78.5171 16.5258H83.896V17.7211H79.978V20.7359C81.1689 20.7315 82.1274 20.7049 82.8534 20.6562C83.5795 20.6031 84.2856 20.5057 84.9718 20.3641L85.1179 21.5461C84.3785 21.7055 83.6104 21.8095 82.8136 21.8582C82.0211 21.9069 80.9121 21.9312 79.4866 21.9312H78.5171V16.5258ZM79.553 25.2781C79.553 24.7867 79.7168 24.3639 80.0444 24.0098C80.3765 23.6556 80.8479 23.3855 81.4589 23.1996C82.0743 23.0092 82.7937 22.9141 83.6171 22.9141C84.4361 22.9141 85.1466 23.0092 85.7487 23.1996C86.3552 23.3855 86.8223 23.6556 87.1499 24.0098C87.4775 24.3639 87.6413 24.7867 87.6413 25.2781C87.6413 25.7784 87.4775 26.2078 87.1499 26.5664C86.8223 26.925 86.3552 27.1973 85.7487 27.3832C85.1466 27.5736 84.4361 27.6688 83.6171 27.6688C82.7892 27.6688 82.0698 27.5736 81.4589 27.3832C80.8479 27.1973 80.3765 26.925 80.0444 26.5664C79.7168 26.2078 79.553 25.7784 79.553 25.2781ZM81.014 25.2781C81.0095 25.6633 81.2353 25.9621 81.6913 26.1746C82.1473 26.3827 82.7892 26.4867 83.6171 26.4867C84.4272 26.4867 85.0603 26.3827 85.5163 26.1746C85.9723 25.9621 86.2025 25.6633 86.2069 25.2781C86.2025 24.9018 85.9745 24.6118 85.5229 24.4082C85.0758 24.2001 84.4538 24.0961 83.6569 24.0961C82.8114 24.0961 82.1584 24.1979 81.6979 24.4016C81.2375 24.6052 81.0095 24.8974 81.014 25.2781ZM97.5624 19.0891C97.5624 19.7487 97.6864 20.4017 97.9343 21.048C98.1866 21.69 98.5452 22.2677 99.0101 22.7812C99.4793 23.2904 100.028 23.6755 100.657 23.9367L99.8468 25.1055C99.1517 24.8044 98.5474 24.3595 98.0339 23.7707C97.5203 23.1775 97.1219 22.4891 96.8386 21.7055C96.5552 22.5466 96.1546 23.2904 95.6366 23.9367C95.1187 24.5831 94.5166 25.0701 93.8304 25.3977L92.9804 24.2422C93.5957 23.9589 94.1358 23.5427 94.6007 22.9937C95.0655 22.4448 95.4241 21.8272 95.6765 21.141C95.9288 20.4548 96.0572 19.7708 96.0616 19.0891V18.0797H93.4187V16.8578H100.192V18.0797H97.5624V19.0891ZM101.533 15.6758H103.021V27.682H101.533V15.6758ZM114.841 22.6484H113.367V19.7398H111.295V18.5312H113.367V15.6758H114.841V22.6484ZM104.761 21.4531C105.381 21.2495 105.91 20.9507 106.348 20.5566C106.791 20.1626 107.125 19.7133 107.351 19.2086C107.581 18.6995 107.696 18.1771 107.696 17.6414V17.5484H105.199V16.3531H111.68V17.5484H109.197V17.6547C109.197 18.1461 109.305 18.6242 109.522 19.0891C109.739 19.5539 110.06 19.9745 110.485 20.3508C110.91 20.7227 111.424 21.0104 112.026 21.2141L111.282 22.3828C110.627 22.157 110.06 21.8294 109.582 21.4C109.108 20.9661 108.736 20.457 108.466 19.8727C108.192 20.519 107.804 21.079 107.304 21.5527C106.808 22.0264 106.213 22.3784 105.518 22.6086L104.761 21.4531ZM106.859 23.1664H114.841V27.5359H106.859V23.1664ZM113.394 26.3406V24.3352H108.333V26.3406H113.394ZM126.901 27.682H125.48V15.6758H126.901V27.682ZM116.661 20.8687C116.661 19.9966 116.767 19.2396 116.98 18.5977C117.192 17.9513 117.493 17.4555 117.883 17.1102C118.277 16.7648 118.733 16.5922 119.251 16.5922C119.733 16.5922 120.16 16.7361 120.532 17.0238C120.909 17.3116 121.21 17.7255 121.435 18.2656C121.666 18.8057 121.81 19.4477 121.867 20.1914H123.023V15.8883H124.43V27.0977H123.023V21.3867H121.88C121.836 22.1615 121.699 22.8344 121.469 23.4055C121.243 23.9721 120.94 24.406 120.559 24.707C120.178 25.0081 119.742 25.1586 119.251 25.1586C118.733 25.1586 118.277 24.9859 117.883 24.6406C117.493 24.2953 117.192 23.7995 116.98 23.1531C116.767 22.5023 116.661 21.7409 116.661 20.8687ZM118.029 20.9086C118.029 21.825 118.135 22.5289 118.348 23.0203C118.564 23.5117 118.866 23.7552 119.251 23.7508C119.654 23.7552 119.966 23.5095 120.187 23.0137C120.408 22.5178 120.521 21.8029 120.526 20.8687C120.521 19.9391 120.408 19.2263 120.187 18.7305C119.966 18.2302 119.654 17.9823 119.251 17.9867C118.861 17.9823 118.56 18.2324 118.348 18.7371C118.135 19.2418 118.029 19.9656 118.029 20.9086ZM132.731 18.5578C132.727 19.3104 132.842 20.0365 133.076 20.7359C133.311 21.4354 133.652 22.0574 134.099 22.602C134.551 23.1421 135.086 23.5471 135.706 23.8172L134.816 24.9992C134.152 24.676 133.581 24.2112 133.103 23.6047C132.625 22.9982 132.255 22.2921 131.994 21.4863C131.724 22.3408 131.343 23.0934 130.852 23.7441C130.36 24.3905 129.778 24.8841 129.105 25.225L128.176 24.0297C128.809 23.7331 129.356 23.2992 129.816 22.7281C130.276 22.157 130.626 21.5085 130.865 20.7824C131.104 20.0564 131.226 19.3148 131.23 18.5578V16.6453H132.731V18.5578ZM134.378 19.5539H136.901V15.6758H138.362V27.6953H136.901V20.7492H134.378V19.5539ZM153.33 22.8078H151.856V19.8727H149.811V18.6641H151.856V15.6758H153.33V22.8078ZM143.237 21.6125C143.861 21.4 144.394 21.0923 144.837 20.6895C145.284 20.2866 145.621 19.8306 145.846 19.3215C146.072 18.8124 146.185 18.2878 146.185 17.7477V17.6547H143.688V16.4594H150.169V17.6547H147.686V17.7344C147.686 18.2302 147.794 18.7128 148.011 19.182C148.228 19.6469 148.549 20.0652 148.974 20.4371C149.399 20.8046 149.913 21.0901 150.515 21.2937L149.771 22.4625C149.12 22.2411 148.558 21.9158 148.084 21.4863C147.611 21.0525 147.236 20.5456 146.962 19.9656C146.692 20.6208 146.307 21.1919 145.807 21.6789C145.306 22.1659 144.706 22.5333 144.007 22.7812L143.237 21.6125ZM145.189 25.3977C145.185 24.924 145.346 24.5167 145.674 24.1758C146.001 23.8305 146.471 23.5671 147.082 23.3855C147.697 23.204 148.425 23.1133 149.266 23.1133C150.112 23.1133 150.842 23.204 151.458 23.3855C152.073 23.5671 152.545 23.8283 152.872 24.1691C153.204 24.51 153.37 24.9195 153.37 25.3977C153.37 25.8758 153.204 26.2853 152.872 26.6262C152.545 26.9671 152.073 27.2283 151.458 27.4098C150.842 27.5913 150.112 27.682 149.266 27.682C148.425 27.682 147.697 27.5913 147.082 27.4098C146.471 27.2283 146.001 26.9648 145.674 26.6195C145.346 26.2786 145.185 25.8714 145.189 25.3977ZM146.65 25.3977C146.645 25.7651 146.867 26.0484 147.314 26.2477C147.766 26.4424 148.403 26.5398 149.226 26.5398C150.085 26.5398 150.745 26.4424 151.205 26.2477C151.666 26.0529 151.896 25.7695 151.896 25.3977C151.896 25.0258 151.668 24.7402 151.212 24.541C150.76 24.3418 150.112 24.2422 149.266 24.2422C148.43 24.2422 147.783 24.3418 147.327 24.541C146.871 24.7402 146.645 25.0258 146.65 25.3977ZM165.987 23.9234H163.344V27.682H161.857V23.9234H159.161V27.682H157.687V23.9234H155.017V22.768H165.987V23.9234ZM156.305 16.0742H164.712V19.4344H157.819V20.5766H164.978V21.7719H156.332V18.332H163.198V17.2828H156.305V16.0742ZM171.087 17.8406C171.087 18.3365 171.194 18.8102 171.406 19.2617C171.623 19.7133 171.942 20.1139 172.362 20.4637C172.787 20.8134 173.305 21.0812 173.916 21.2672L173.212 22.4227C172.553 22.2146 171.984 21.9069 171.506 21.4996C171.028 21.0923 170.654 20.612 170.383 20.0586C170.113 20.7049 169.724 21.265 169.215 21.7387C168.71 22.2124 168.104 22.5687 167.395 22.8078L166.651 21.6391C167.276 21.4354 167.809 21.1388 168.252 20.7492C168.699 20.3596 169.035 19.9147 169.261 19.4145C169.487 18.9142 169.6 18.394 169.6 17.8539V17.7078H167.063V16.5125H173.584V17.7078H171.087V17.8406ZM168.285 25.3711C168.285 24.8974 168.449 24.4901 168.776 24.1492C169.104 23.8083 169.573 23.5493 170.184 23.3723C170.795 23.1908 171.517 23.1 172.349 23.1C173.177 23.1 173.892 23.1908 174.494 23.3723C175.096 23.5493 175.559 23.8083 175.882 24.1492C176.21 24.4901 176.373 24.8974 176.373 25.3711C176.373 25.8492 176.21 26.2609 175.882 26.6063C175.559 26.9516 175.096 27.215 174.494 27.3965C173.892 27.578 173.177 27.6688 172.349 27.6688C171.517 27.6688 170.795 27.578 170.184 27.3965C169.573 27.215 169.104 26.9516 168.776 26.6063C168.449 26.2609 168.285 25.8492 168.285 25.3711ZM169.759 25.3711C169.759 25.7385 169.983 26.0197 170.43 26.2145C170.877 26.4092 171.517 26.5089 172.349 26.5133C173.173 26.5089 173.806 26.4092 174.248 26.2145C174.691 26.0197 174.912 25.7385 174.912 25.3711C174.912 25.0081 174.691 24.7314 174.248 24.541C173.806 24.3507 173.173 24.2555 172.349 24.2555C171.521 24.2555 170.882 24.3507 170.43 24.541C169.983 24.7314 169.759 25.0081 169.759 25.3711ZM174.78 15.6758H176.254V18.5578H177.927V19.7664H176.254V22.8344H174.78V15.6758ZM188.114 20.4703H189.774V21.6922H188.114V27.682H186.626V15.6758H188.114V20.4703ZM178.366 24.2422C178.914 23.6578 179.355 23.0513 179.687 22.4227C180.019 21.794 180.265 21.1344 180.424 20.4437C180.588 19.7531 180.69 18.9872 180.73 18.1461H178.844V16.9375H182.137C182.133 18.0885 182.06 19.1245 181.918 20.0453C181.777 20.9617 181.513 21.8427 181.128 22.6883C180.747 23.5339 180.212 24.3307 179.521 25.0789L178.366 24.2422ZM181.766 25.0391C182.314 24.3794 182.751 23.6888 183.074 22.9672C183.401 22.2411 183.638 21.4908 183.784 20.716C183.93 19.9368 184.021 19.0802 184.057 18.1461H182.536V16.9375H185.458C185.453 18.1638 185.387 19.275 185.258 20.2711C185.135 21.2672 184.889 22.2411 184.521 23.193C184.158 24.1404 183.634 25.0258 182.948 25.8492L181.766 25.0391ZM194.821 19.0891C194.821 19.7487 194.945 20.4017 195.193 21.048C195.445 21.69 195.804 22.2677 196.269 22.7812C196.738 23.2904 197.287 23.6755 197.916 23.9367L197.105 25.1055C196.41 24.8044 195.806 24.3595 195.292 23.7707C194.779 23.1775 194.381 22.4891 194.097 21.7055C193.814 22.5466 193.413 23.2904 192.895 23.9367C192.377 24.5831 191.775 25.0701 191.089 25.3977L190.239 24.2422C190.854 23.9589 191.394 23.5427 191.859 22.9937C192.324 22.4448 192.683 21.8272 192.935 21.141C193.187 20.4548 193.316 19.7708 193.32 19.0891V18.0797H190.677V16.8578H197.451V18.0797H194.821V19.0891ZM198.792 15.6758H200.28V27.682H198.792V15.6758ZM205.937 16.5125C206.566 16.5125 207.13 16.6365 207.631 16.8844C208.131 17.1279 208.523 17.471 208.806 17.9137C209.094 18.352 209.24 18.85 209.244 19.4078C209.24 19.9701 209.094 20.4725 208.806 20.9152C208.523 21.3535 208.131 21.6966 207.631 21.9445C207.13 22.1924 206.566 22.3164 205.937 22.3164C205.313 22.3164 204.749 22.1924 204.244 21.9445C203.744 21.6966 203.352 21.3513 203.069 20.9086C202.785 20.4659 202.644 19.9656 202.644 19.4078C202.644 18.85 202.785 18.352 203.069 17.9137C203.356 17.471 203.75 17.1279 204.251 16.8844C204.751 16.6365 205.313 16.5125 205.937 16.5125ZM202.099 23.9766C203.569 23.9766 204.941 23.9522 206.216 23.9035C207.491 23.8504 208.704 23.7419 209.855 23.5781L209.975 24.6539C208.788 24.8797 207.578 25.0258 206.342 25.0922C205.112 25.1542 203.759 25.1852 202.285 25.1852L202.099 23.9766ZM204.105 19.4078C204.105 19.7354 204.182 20.0232 204.337 20.2711C204.496 20.5146 204.716 20.7027 204.994 20.8355C205.273 20.9639 205.588 21.0281 205.937 21.0281C206.292 21.0281 206.608 20.9639 206.887 20.8355C207.17 20.7027 207.392 20.5146 207.551 20.2711C207.715 20.0232 207.797 19.7354 207.797 19.4078C207.797 19.0802 207.715 18.7947 207.551 18.5512C207.392 18.3077 207.17 18.1195 206.887 17.9867C206.608 17.8539 206.292 17.7875 205.937 17.7875C205.588 17.7875 205.273 17.8539 204.994 17.9867C204.716 18.1195 204.496 18.3099 204.337 18.5578C204.182 18.8013 204.105 19.0846 204.105 19.4078ZM210.573 15.6758H212.047V27.6953H210.573V15.6758ZM227.081 27.682H225.607V21.5727H223.07V20.3641H225.607V15.6758H227.081V27.682ZM216.948 24.3617C218.466 23.618 219.595 22.737 220.334 21.7187C221.074 20.7005 221.507 19.5008 221.636 18.1195H217.505V16.9508H223.123C223.119 18.1992 222.946 19.3414 222.605 20.3773C222.269 21.4089 221.702 22.3585 220.905 23.2262C220.113 24.0939 219.05 24.8576 217.718 25.5172L216.948 24.3617ZM238.782 27.6953H237.321V15.6758H238.782V27.6953ZM229.432 16.725H235.09V21.2273H230.959V23.6445C231.96 23.6357 232.885 23.6003 233.735 23.5383C234.585 23.4763 235.457 23.3701 236.351 23.2195L236.484 24.4281C235.555 24.5875 234.638 24.6982 233.735 24.7602C232.836 24.8221 231.836 24.8531 230.734 24.8531H230.494H229.445V20.0586H233.589V17.9203H229.432V16.725ZM250.257 20.2445H241.943V16.1141H243.404V19.0758H250.257V20.2445ZM240.522 21.6391H251.492V22.8078H240.522V21.6391ZM241.837 23.8703H243.311V26.2078H250.337V27.4031H241.837V23.8703ZM258.797 16.5523C259.332 16.5523 259.817 16.6962 260.251 16.984C260.685 17.2717 261.039 17.6835 261.314 18.2191C261.588 18.7504 261.761 19.3768 261.832 20.0984H264.123V15.6758H265.583V27.6953H264.123V21.2937H261.845C261.792 22.0552 261.63 22.7193 261.36 23.2859C261.09 23.8482 260.734 24.282 260.291 24.5875C259.848 24.8885 259.35 25.0391 258.797 25.0391C258.195 25.0391 257.659 24.8664 257.19 24.5211C256.725 24.1714 256.362 23.6755 256.101 23.0336C255.844 22.3917 255.716 21.6435 255.716 20.7891C255.716 19.9391 255.844 19.1953 256.101 18.5578C256.362 17.9159 256.727 17.4223 257.196 17.077C257.666 16.7272 258.199 16.5523 258.797 16.5523ZM257.137 20.7891C257.137 21.3956 257.205 21.918 257.342 22.3562C257.48 22.7945 257.672 23.1288 257.92 23.359C258.173 23.5892 258.465 23.7065 258.797 23.7109C259.129 23.7065 259.421 23.5892 259.673 23.359C259.926 23.1288 260.12 22.7945 260.258 22.3562C260.399 21.918 260.47 21.3956 260.47 20.7891C260.47 20.187 260.399 19.6668 260.258 19.2285C260.12 18.7902 259.926 18.456 259.673 18.2258C259.421 17.9956 259.129 17.8805 258.797 17.8805C258.465 17.8805 258.173 17.9978 257.92 18.2324C257.672 18.4626 257.48 18.7969 257.342 19.2352C257.205 19.669 257.137 20.187 257.137 20.7891ZM275.319 18.5445H276.341V15.6758H277.749V22.582H276.341V19.7266H275.319V22.4891H273.964V15.9148H275.319V18.5445ZM267.549 16.5391H270.073V17.7344H268.904V20.7824C269.32 20.7603 269.741 20.7005 270.166 20.6031L270.272 21.7984C269.683 21.9268 269.07 21.991 268.432 21.991L268.054 21.9844H267.549V16.5391ZM268.001 26.4602C268.501 26.2875 268.924 26.0484 269.269 25.743C269.619 25.4331 269.88 25.0878 270.053 24.707C270.23 24.3219 270.32 23.9279 270.325 23.525V23.0336H271.733V23.525C271.733 24.0518 271.857 24.5543 272.105 25.0324C272.353 25.5105 272.727 25.9112 273.227 26.2344C273.723 25.8935 274.097 25.4796 274.349 24.9926C274.601 24.5012 274.73 24.012 274.734 23.525V23.0336H276.208V23.525C276.208 23.9544 276.293 24.3639 276.461 24.7535C276.633 25.1387 276.892 25.4818 277.238 25.7828C277.588 26.0794 278.019 26.3052 278.533 26.4602L277.789 27.5492C277.227 27.3589 276.749 27.0822 276.355 26.7191C275.965 26.3561 275.662 25.9267 275.445 25.4309C275.237 25.9355 274.949 26.3827 274.582 26.7723C274.214 27.1618 273.765 27.4607 273.233 27.6688C272.689 27.4607 272.233 27.1663 271.866 26.7855C271.503 26.4048 271.224 25.9599 271.029 25.4508C270.807 25.9333 270.504 26.3539 270.119 26.7125C269.734 27.0755 269.271 27.3544 268.731 27.5492L268.001 26.4602ZM270.63 16.5391H273.26V17.7344H271.985V20.7824C272.45 20.7603 272.919 20.6961 273.393 20.5898L273.526 21.8117C272.91 21.9312 272.268 21.991 271.6 21.991L271.162 21.9844H270.63V16.5391ZM290.207 21.5195H288.427V27.6555H286.953V15.6758H288.427V20.3109H290.207V21.5195ZM279.449 16.8445H280.91V23.4719C282.725 23.4409 284.43 23.2594 286.023 22.9273L286.183 24.1758C285.24 24.3661 284.299 24.499 283.36 24.5742C282.422 24.6495 281.455 24.6893 280.458 24.6937H279.449V16.8445ZM301.748 26.2211H290.778V25.0125H293.315V21.9777C292.828 21.6988 292.449 21.3469 292.179 20.9219C291.914 20.4969 291.783 20.0232 291.787 19.5008C291.787 18.8721 291.976 18.3187 292.352 17.8406C292.733 17.3581 293.262 16.9862 293.939 16.725C294.616 16.4594 295.382 16.3266 296.237 16.3266C297.095 16.3266 297.864 16.4594 298.541 16.725C299.223 16.9862 299.754 17.3581 300.135 17.8406C300.52 18.3187 300.712 18.8721 300.712 19.5008C300.717 20.0143 300.588 20.4792 300.327 20.8953C300.066 21.3115 299.699 21.6612 299.225 21.9445V25.0125H301.748V26.2211ZM293.235 19.5008C293.235 19.9036 293.359 20.2578 293.607 20.5633C293.859 20.8643 294.211 21.0967 294.663 21.2605C295.119 21.4243 295.643 21.5062 296.237 21.5062C296.83 21.5062 297.354 21.4243 297.81 21.2605C298.271 21.0967 298.627 20.8643 298.88 20.5633C299.136 20.2578 299.265 19.9036 299.265 19.5008C299.265 19.0935 299.136 18.7371 298.88 18.4316C298.627 18.1262 298.271 17.8937 297.81 17.7344C297.354 17.575 296.83 17.4953 296.237 17.4953C295.639 17.4953 295.112 17.575 294.656 17.7344C294.205 17.8937 293.855 18.1262 293.607 18.4316C293.359 18.7327 293.235 19.0891 293.235 19.5008ZM297.724 25.0125V22.509C297.255 22.6108 296.759 22.6617 296.237 22.6617C295.736 22.6617 295.249 22.613 294.776 22.5156V25.0125H297.724ZM304.564 23.5516C304.568 23.007 304.622 22.5665 304.723 22.2301C304.825 21.8936 304.967 21.6236 305.148 21.4199C305.334 21.2163 305.582 21.0193 305.892 20.8289C306.206 20.6253 306.452 20.4061 306.629 20.1715C306.806 19.9368 306.893 19.6646 306.888 19.3547C306.888 19.1112 306.831 18.8987 306.716 18.7172C306.605 18.5312 306.45 18.3874 306.251 18.2855C306.051 18.1837 305.83 18.1328 305.587 18.1328C305.361 18.1328 305.148 18.1815 304.949 18.2789C304.75 18.3763 304.586 18.5246 304.458 18.7238C304.329 18.923 304.258 19.1643 304.245 19.4477H302.585C302.598 18.8721 302.74 18.3829 303.01 17.9801C303.28 17.5728 303.639 17.2673 304.086 17.0637C304.537 16.8556 305.042 16.7516 305.6 16.7516C306.193 16.7516 306.718 16.8578 307.174 17.0703C307.634 17.2784 307.991 17.5772 308.243 17.9668C308.5 18.3564 308.628 18.8102 308.628 19.3281C308.624 19.8461 308.5 20.291 308.256 20.6629C308.017 21.0348 307.672 21.3557 307.22 21.6258C306.955 21.7896 306.742 21.9556 306.583 22.1238C306.428 22.2921 306.313 22.4891 306.237 22.7148C306.162 22.9406 306.122 23.2195 306.118 23.5516V23.6711H304.564V23.5516ZM304.351 25.5703C304.351 25.3888 304.398 25.2206 304.491 25.0656C304.584 24.9062 304.71 24.7801 304.869 24.6871C305.029 24.5941 305.201 24.5477 305.387 24.5477C305.569 24.5477 305.737 24.5941 305.892 24.6871C306.051 24.7801 306.178 24.9062 306.271 25.0656C306.364 25.2206 306.41 25.3888 306.41 25.5703C306.41 25.7562 306.364 25.9289 306.271 26.0883C306.178 26.2477 306.051 26.3738 305.892 26.4668C305.737 26.5598 305.569 26.6063 305.387 26.6063C305.201 26.6063 305.029 26.5598 304.869 26.4668C304.71 26.3738 304.584 26.2477 304.491 26.0883C304.398 25.9289 304.351 25.7562 304.351 25.5703Z" fill="white"/>
</g>
<defs>
<filter id="filter0_d_120_5353" x="0.466667" y="0.466667" width="346.067" height="43.0667" filterUnits="userSpaceOnUse" color-interpolation-filters="sRGB">
<feFlood flood-opacity="0" result="BackgroundImageFix"/>
<feColorMatrix in="SourceAlpha" type="matrix" values="0 0 0 0 0 0 0 0 0 0 0 0 0 0 0 0 0 0 127 0" result="hardAlpha"/>
<feOffset/>
<feGaussianBlur stdDeviation="2.26667"/>
<feComposite in2="hardAlpha" operator="out"/>
<feColorMatrix type="matrix" values="0 0 0 0 0 0 0 0 0 0 0 0 0 0 0 0 0 0 0.22 0"/>
<feBlend mode="normal" in2="BackgroundImageFix" result="effect1_dropShadow_120_5353"/>
<feBlend mode="normal" in="SourceGraphic" in2="effect1_dropShadow_120_5353" result="shape"/>
</filter>
<filter id="filter1_d_120_5353" x="0.466667" y="0.466667" width="346.067" height="43.0667" filterUnits="userSpaceOnUse" color-interpolation-filters="sRGB">
<feFlood flood-opacity="0" result="BackgroundImageFix"/>
<feColorMatrix in="SourceAlpha" type="matrix" values="0 0 0 0 0 0 0 0 0 0 0 0 0 0 0 0 0 0 127 0" result="hardAlpha"/>
<feOffset/>
<feGaussianBlur stdDeviation="2.26667"/>
<feComposite in2="hardAlpha" operator="out"/>
<feColorMatrix type="matrix" values="0 0 0 0 0 0 0 0 0 0 0 0 0 0 0 0 0 0 0.22 0"/>
<feBlend mode="normal" in2="BackgroundImageFix" result="effect1_dropShadow_120_5353"/>
<feBlend mode="normal" in="SourceGraphic" in2="effect1_dropShadow_120_5353" result="shape"/>
</filter>
</defs>
</svg>
