<svg width="347" height="44" viewBox="0 0 347 44" fill="none" xmlns="http://www.w3.org/2000/svg">
<g filter="url(#filter0_d_120_5371)">
<rect x="5" y="5" width="337" height="34" rx="17" fill="#8000FF" shape-rendering="crispEdges"/>
<path d="M70.5497 14.8581C70.5497 15.0253 70.4833 15.1856 70.3651 15.3037C70.2469 15.4219 70.0866 15.4883 69.9195 15.4883H68.239C68.0719 15.4883 67.9116 15.4219 67.7934 15.3037C67.6753 15.1856 67.6089 15.0253 67.6089 14.8581C67.6089 14.691 67.6753 14.5307 67.7934 14.4125C67.9116 14.2944 68.0719 14.228 68.239 14.228H69.9195C70.0866 14.228 70.2469 14.2944 70.3651 14.4125C70.4833 14.5307 70.5497 14.691 70.5497 14.8581ZM76.0258 28.7218L76.4165 31.4526C76.4467 31.6613 76.4315 31.874 76.3722 32.0764C76.3129 32.2788 76.2107 32.466 76.0726 32.6254C75.9345 32.7848 75.7638 32.9126 75.572 33.0002C75.3801 33.0878 75.1717 33.1331 74.9608 33.133H68.239C68.0282 33.1331 67.8197 33.0878 67.6279 33.0002C67.4361 32.9126 67.2653 32.7848 67.1273 32.6254C66.9892 32.466 66.887 32.2788 66.8277 32.0764C66.7683 31.874 66.7532 31.6613 66.7833 31.4526L67.1741 28.7218C65.5381 27.9001 64.1626 26.64 63.2009 25.0823C62.2391 23.5245 61.729 21.7302 61.7273 19.8995C61.7273 19.7324 61.7937 19.5721 61.9119 19.4539C62.03 19.3357 62.1903 19.2693 62.3575 19.2693H64.248V12.3375C64.248 11.9475 64.4029 11.5735 64.6786 11.2977C64.9544 11.022 65.3284 10.8671 65.7184 10.8671H77.4815C77.8715 10.8671 78.2455 11.022 78.5212 11.2977C78.797 11.5735 78.9519 11.9475 78.9519 12.3375V19.2693H80.8424C81.0095 19.2693 81.1698 19.3357 81.288 19.4539C81.4062 19.5721 81.4726 19.7324 81.4726 19.8995C81.4709 21.7302 80.9607 23.5245 79.999 25.0823C79.0373 26.64 77.6617 27.9001 76.0258 28.7218ZM65.5083 19.2693H77.6916V12.3375C77.6916 12.2817 77.6694 12.2283 77.63 12.1889C77.5907 12.1495 77.5372 12.1274 77.4815 12.1274H65.7184C65.6627 12.1274 65.6092 12.1495 65.5698 12.1889C65.5304 12.2283 65.5083 12.2817 65.5083 12.3375V19.2693ZM74.8254 29.2302C72.7357 29.9525 70.4641 29.9525 68.3745 29.2302L68.029 31.6332C68.0248 31.663 68.027 31.6933 68.0355 31.7221C68.0441 31.7509 68.0587 31.7775 68.0783 31.8002C68.0983 31.8232 68.123 31.8416 68.1507 31.8541C68.1785 31.8666 68.2086 31.873 68.239 31.8727H74.9608C74.9909 31.8727 75.0206 31.8662 75.048 31.8537C75.0754 31.8412 75.0997 31.823 75.1194 31.8002C75.1391 31.7775 75.1537 31.7509 75.1622 31.7221C75.1707 31.6933 75.173 31.663 75.1688 31.6332L74.8254 29.2302ZM80.1891 20.5297H63.0107C63.17 22.6988 64.144 24.7274 65.7373 26.208C67.3305 27.6886 69.4249 28.5115 71.5999 28.5115C73.7749 28.5115 75.8694 27.6886 77.4626 26.208C79.0559 24.7274 80.0299 22.6988 80.1891 20.5297Z" fill="white"/>
<path d="M94.5282 18.7703H88.6446V17.5883H90.8758V16.0211H92.3368V17.5883H94.5282V18.7703ZM88.9899 22.1969C88.9855 21.6612 89.0939 21.1809 89.3153 20.7559C89.5411 20.3309 89.8532 20.001 90.2516 19.7664C90.6545 19.5273 91.106 19.4078 91.6063 19.4078C92.111 19.4078 92.5603 19.5273 92.9543 19.7664C93.3528 20.001 93.6627 20.3309 93.884 20.7559C94.1098 21.1809 94.2227 21.6612 94.2227 22.1969C94.2227 22.7458 94.1098 23.235 93.884 23.6645C93.6627 24.0939 93.3528 24.4281 92.9543 24.6672C92.5603 24.9062 92.111 25.0258 91.6063 25.0258C91.106 25.0258 90.6545 24.9062 90.2516 24.6672C89.8532 24.4281 89.5411 24.0939 89.3153 23.6645C89.0939 23.235 88.9855 22.7458 88.9899 22.1969ZM90.2915 22.1969C90.2915 22.5156 90.3446 22.7945 90.4508 23.0336C90.5615 23.2682 90.7165 23.4497 90.9157 23.5781C91.1193 23.7021 91.3495 23.7641 91.6063 23.7641C91.8631 23.7641 92.0911 23.7021 92.2903 23.5781C92.4895 23.4497 92.6444 23.2682 92.7551 23.0336C92.8658 22.7945 92.9211 22.5156 92.9211 22.1969C92.9211 21.887 92.8658 21.6147 92.7551 21.3801C92.6444 21.141 92.4895 20.9573 92.2903 20.8289C92.0911 20.6961 91.8631 20.6297 91.6063 20.6297C91.3495 20.6297 91.1215 20.6961 90.9223 20.8289C90.7231 20.9573 90.5681 21.141 90.4575 21.3801C90.3468 21.6147 90.2915 21.887 90.2915 22.1969ZM95.0329 15.9281H96.4141V20.6164H97.5829V15.6758H98.9907V27.682H97.5829V21.8117H96.4141V27.1375H95.0329V15.9281ZM109.908 18.6242H111.568V19.8328H109.908V22.6883H108.42V15.6758H109.908V18.6242ZM100.89 16.5258H106.269V17.7211H102.351V20.7359C103.542 20.7315 104.5 20.7049 105.226 20.6562C105.952 20.6031 106.658 20.5057 107.345 20.3641L107.491 21.5461C106.751 21.7055 105.983 21.8095 105.186 21.8582C104.394 21.9069 103.285 21.9312 101.859 21.9312H100.89V16.5258ZM101.926 25.2781C101.926 24.7867 102.09 24.3639 102.417 24.0098C102.749 23.6556 103.221 23.3855 103.832 23.1996C104.447 23.0092 105.166 22.9141 105.99 22.9141C106.809 22.9141 107.519 23.0092 108.122 23.1996C108.728 23.3855 109.195 23.6556 109.523 24.0098C109.85 24.3639 110.014 24.7867 110.014 25.2781C110.014 25.7784 109.85 26.2078 109.523 26.5664C109.195 26.925 108.728 27.1973 108.122 27.3832C107.519 27.5736 106.809 27.6688 105.99 27.6688C105.162 27.6688 104.443 27.5736 103.832 27.3832C103.221 27.1973 102.749 26.925 102.417 26.5664C102.09 26.2078 101.926 25.7784 101.926 25.2781ZM103.387 25.2781C103.382 25.6633 103.608 25.9621 104.064 26.1746C104.52 26.3827 105.162 26.4867 105.99 26.4867C106.8 26.4867 107.433 26.3827 107.889 26.1746C108.345 25.9621 108.575 25.6633 108.58 25.2781C108.575 24.9018 108.347 24.6118 107.896 24.4082C107.449 24.2001 106.827 24.0961 106.03 24.0961C105.184 24.0961 104.531 24.1979 104.071 24.4016C103.61 24.6052 103.382 24.8974 103.387 25.2781ZM118.74 16.207C119.253 16.207 119.725 16.3 120.154 16.4859C120.584 16.6674 120.942 16.9264 121.23 17.2629C121.522 17.5949 121.717 17.9779 121.815 18.4117H123.986V15.6758H125.46V22.1172H123.986V19.607H121.828C121.735 20.0542 121.542 20.4482 121.25 20.7891C120.962 21.1299 120.601 21.3956 120.168 21.5859C119.734 21.7719 119.258 21.8648 118.74 21.8648C118.133 21.8648 117.589 21.7431 117.106 21.4996C116.624 21.2561 116.245 20.9197 115.971 20.4902C115.701 20.0564 115.566 19.5672 115.566 19.0227C115.566 18.4826 115.701 17.9978 115.971 17.5684C116.245 17.1389 116.624 16.8047 117.106 16.5656C117.589 16.3266 118.133 16.207 118.74 16.207ZM116.973 19.0227C116.973 19.337 117.049 19.6159 117.199 19.8594C117.35 20.1029 117.558 20.291 117.823 20.4238C118.094 20.5522 118.399 20.6164 118.74 20.6164C119.072 20.6164 119.369 20.5522 119.63 20.4238C119.895 20.291 120.103 20.1029 120.254 19.8594C120.404 19.6159 120.48 19.337 120.48 19.0227C120.48 18.7083 120.404 18.4316 120.254 18.1926C120.103 17.9491 119.898 17.7632 119.636 17.6348C119.375 17.5064 119.076 17.4422 118.74 17.4422C118.395 17.4422 118.089 17.5064 117.823 17.6348C117.558 17.7632 117.35 17.9491 117.199 18.1926C117.049 18.4316 116.973 18.7083 116.973 19.0227ZM117.545 22.675H119.006V23.95H123.986V22.675H125.46V27.5359H117.545V22.675ZM123.986 26.3406V25.0922H119.006V26.3406H123.986ZM130.826 19.3414C130.826 19.9789 130.914 20.5965 131.091 21.1941C131.269 21.7874 131.541 22.3275 131.908 22.8145C132.276 23.297 132.729 23.6844 133.27 23.9766L132.446 25.0656C131.906 24.7779 131.441 24.3861 131.052 23.8902C130.666 23.39 130.363 22.8122 130.142 22.157C129.92 22.8654 129.617 23.494 129.232 24.043C128.847 24.5919 128.382 25.0258 127.838 25.3445L126.974 24.2289C127.519 23.9146 127.975 23.4984 128.342 22.9805C128.71 22.4625 128.982 21.8914 129.159 21.2672C129.336 20.6385 129.427 19.9966 129.431 19.3414V18.9695H127.386V17.7742H129.431V16.1008H130.826V17.7742H132.831V18.9695H130.826V19.3414ZM132.088 20.2844H133.655V15.9016H135.049V27.0977H133.655V21.5062H132.088V20.2844ZM136.085 15.6758H137.493V27.682H136.085V15.6758ZM142.806 16.5125C143.434 16.5125 143.999 16.6365 144.499 16.8844C144.999 17.1279 145.391 17.471 145.674 17.9137C145.962 18.352 146.108 18.85 146.113 19.4078C146.108 19.9701 145.962 20.4725 145.674 20.9152C145.391 21.3535 144.999 21.6966 144.499 21.9445C143.999 22.1924 143.434 22.3164 142.806 22.3164C142.181 22.3164 141.617 22.1924 141.112 21.9445C140.612 21.6966 140.22 21.3513 139.937 20.9086C139.653 20.4659 139.512 19.9656 139.512 19.4078C139.512 18.85 139.653 18.352 139.937 17.9137C140.225 17.471 140.619 17.1279 141.119 16.8844C141.619 16.6365 142.181 16.5125 142.806 16.5125ZM138.967 23.9766C140.437 23.9766 141.809 23.9522 143.084 23.9035C144.359 23.8504 145.572 23.7419 146.723 23.5781L146.843 24.6539C145.657 24.8797 144.446 25.0258 143.211 25.0922C141.98 25.1542 140.627 25.1852 139.153 25.1852L138.967 23.9766ZM140.973 19.4078C140.973 19.7354 141.05 20.0232 141.205 20.2711C141.365 20.5146 141.584 20.7027 141.863 20.8355C142.141 20.9639 142.456 21.0281 142.806 21.0281C143.16 21.0281 143.476 20.9639 143.755 20.8355C144.038 20.7027 144.26 20.5146 144.419 20.2711C144.583 20.0232 144.665 19.7354 144.665 19.4078C144.665 19.0802 144.583 18.7947 144.419 18.5512C144.26 18.3077 144.038 18.1195 143.755 17.9867C143.476 17.8539 143.16 17.7875 142.806 17.7875C142.456 17.7875 142.141 17.8539 141.863 17.9867C141.584 18.1195 141.365 18.3099 141.205 18.5578C141.05 18.8013 140.973 19.0846 140.973 19.4078ZM147.441 15.6758H148.915V27.6953H147.441V15.6758ZM163.391 20.6297H165.078V21.8648H163.391V27.682H161.904V15.6758H163.391V20.6297ZM153.749 24.3484C155.06 24.3484 156.082 24.3396 156.817 24.3219V23.1996C156.383 23.1243 156.003 22.9871 155.675 22.7879C155.352 22.5887 155.102 22.3385 154.925 22.0375C154.752 21.7365 154.666 21.4 154.666 21.0281C154.666 20.581 154.787 20.187 155.031 19.8461C155.274 19.5052 155.615 19.2418 156.054 19.0559C156.496 18.8655 157.003 18.7703 157.574 18.7703C158.141 18.7703 158.643 18.8655 159.082 19.0559C159.524 19.2418 159.87 19.5052 160.118 19.8461C160.366 20.187 160.492 20.581 160.496 21.0281C160.492 21.4 160.399 21.7387 160.217 22.0441C160.036 22.3452 159.779 22.5953 159.447 22.7945C159.119 22.9937 158.739 23.1288 158.305 23.1996V24.2687C159.451 24.2068 160.439 24.1182 161.266 24.0031L161.359 25.0789C160.222 25.287 159.06 25.422 157.873 25.484C156.687 25.5415 155.383 25.5703 153.962 25.5703L153.749 24.3484ZM153.975 17.057H156.817V15.7289H158.305V17.057H161.134V18.2258H153.975V17.057ZM156.06 21.0281C156.056 21.3646 156.189 21.6302 156.459 21.825C156.733 22.0198 157.098 22.1172 157.554 22.1172C158.019 22.1172 158.389 22.022 158.663 21.8316C158.938 21.6413 159.075 21.3734 159.075 21.0281C159.075 20.6828 158.938 20.4105 158.663 20.2113C158.389 20.0077 158.026 19.9036 157.574 19.8992C157.114 19.9036 156.744 20.0077 156.465 20.2113C156.191 20.4105 156.056 20.6828 156.06 21.0281ZM169.952 17.8406C169.952 18.3365 170.059 18.8102 170.271 19.2617C170.488 19.7133 170.807 20.1139 171.227 20.4637C171.652 20.8134 172.17 21.0812 172.781 21.2672L172.077 22.4227C171.418 22.2146 170.849 21.9069 170.371 21.4996C169.893 21.0923 169.519 20.612 169.248 20.0586C168.978 20.7049 168.589 21.265 168.08 21.7387C167.575 22.2124 166.969 22.5687 166.26 22.8078L165.516 21.6391C166.141 21.4354 166.674 21.1388 167.117 20.7492C167.564 20.3596 167.9 19.9147 168.126 19.4145C168.352 18.9142 168.465 18.394 168.465 17.8539V17.7078H165.928V16.5125H172.449V17.7078H169.952V17.8406ZM167.15 25.3711C167.15 24.8974 167.314 24.4901 167.641 24.1492C167.969 23.8083 168.438 23.5493 169.049 23.3723C169.66 23.1908 170.382 23.1 171.214 23.1C172.042 23.1 172.757 23.1908 173.359 23.3723C173.961 23.5493 174.424 23.8083 174.747 24.1492C175.075 24.4901 175.238 24.8974 175.238 25.3711C175.238 25.8492 175.075 26.2609 174.747 26.6063C174.424 26.9516 173.961 27.215 173.359 27.3965C172.757 27.578 172.042 27.6688 171.214 27.6688C170.382 27.6688 169.66 27.578 169.049 27.3965C168.438 27.215 167.969 26.9516 167.641 26.6063C167.314 26.2609 167.15 25.8492 167.15 25.3711ZM168.624 25.3711C168.624 25.7385 168.848 26.0197 169.295 26.2145C169.742 26.4092 170.382 26.5089 171.214 26.5133C172.038 26.5089 172.671 26.4092 173.113 26.2145C173.556 26.0197 173.777 25.7385 173.777 25.3711C173.777 25.0081 173.556 24.7314 173.113 24.541C172.671 24.3507 172.038 24.2555 171.214 24.2555C170.386 24.2555 169.747 24.3507 169.295 24.541C168.848 24.7314 168.624 25.0081 168.624 25.3711ZM173.645 15.6758H175.119V18.5578H176.792V19.7664H175.119V22.8344H173.645V15.6758ZM187.377 21.7984H185.916V15.6758H187.377V21.7984ZM177.39 20.6297C178.019 20.4305 178.556 20.1383 179.004 19.7531C179.451 19.368 179.787 18.9297 180.013 18.4383C180.243 17.9424 180.356 17.4289 180.352 16.8977V15.968H181.879V16.8977C181.875 17.4112 181.985 17.9026 182.211 18.3719C182.437 18.8367 182.767 19.2507 183.2 19.6137C183.639 19.9723 184.168 20.2445 184.788 20.4305L184.07 21.5727C183.384 21.3602 182.793 21.0436 182.297 20.623C181.801 20.198 181.414 19.6934 181.135 19.109C180.856 19.7421 180.462 20.291 179.953 20.7559C179.444 21.2163 178.838 21.5594 178.134 21.7852L177.39 20.6297ZM179.435 22.3562H187.404V25.4773H180.909V26.407H187.763V27.5758H179.462V24.375H185.93V23.4984H179.435V22.3562ZM196.634 17.5883C196.634 18.0974 196.743 18.5844 196.96 19.0492C197.177 19.5141 197.498 19.9258 197.923 20.2844C198.348 20.643 198.861 20.9174 199.463 21.1078L198.666 22.2633C198.029 22.0464 197.478 21.7298 197.013 21.3137C196.553 20.8975 196.187 20.4039 195.917 19.8328C195.652 20.4836 195.275 21.048 194.788 21.5262C194.306 21.9999 193.726 22.3562 193.048 22.5953L192.252 21.4398C192.88 21.2229 193.412 20.913 193.845 20.5102C194.279 20.1029 194.605 19.638 194.822 19.1156C195.043 18.5888 195.156 18.0354 195.16 17.4555V16.3133H196.634V17.5883ZM193.885 25.3844C193.885 24.9151 194.049 24.51 194.377 24.1691C194.704 23.8283 195.173 23.5693 195.784 23.3922C196.395 23.2151 197.117 23.1266 197.949 23.1266C198.773 23.1266 199.485 23.2151 200.088 23.3922C200.694 23.5693 201.159 23.8283 201.482 24.1691C201.81 24.51 201.973 24.9151 201.973 25.3844C201.973 25.8625 201.81 26.272 201.482 26.6129C201.159 26.9582 200.696 27.2194 200.094 27.3965C199.492 27.578 198.777 27.6688 197.949 27.6688C197.117 27.6688 196.395 27.578 195.784 27.3965C195.173 27.2194 194.704 26.9582 194.377 26.6129C194.049 26.272 193.885 25.8625 193.885 25.3844ZM195.359 25.3844C195.359 25.7518 195.583 26.0307 196.03 26.2211C196.477 26.407 197.117 26.5 197.949 26.5C198.777 26.5 199.41 26.407 199.848 26.2211C200.291 26.0307 200.513 25.7518 200.513 25.3844C200.513 25.0302 200.289 24.7579 199.842 24.5676C199.399 24.3772 198.768 24.282 197.949 24.282C197.126 24.282 196.488 24.3794 196.037 24.5742C195.585 24.7646 195.359 25.0346 195.359 25.3844ZM200.38 15.6758H201.854V18.5977H203.527V19.8195H201.854V22.8609H200.38V15.6758ZM209.411 18.1594H205.984V20.125H209.198V21.2805H205.984V23.618C206.768 23.6091 207.439 23.587 207.997 23.5516C208.559 23.5161 209.132 23.4542 209.716 23.3656L209.836 24.5742C209.203 24.6805 208.579 24.7535 207.963 24.7934C207.352 24.8332 206.6 24.8531 205.706 24.8531H205.387H204.577V16.9773H209.411V18.1594ZM210.447 15.8883H211.841V20.3906H213.077V15.6758H214.498V27.682H213.077V21.5859H211.841V27.0977H210.447V15.8883ZM225.614 20.2445H217.3V16.1141H218.761V19.0758H225.614V20.2445ZM215.879 21.6391H226.849V22.8078H215.879V21.6391ZM217.194 23.8703H218.668V26.2078H225.694V27.4031H217.194V23.8703ZM234.154 16.5523C234.69 16.5523 235.174 16.6962 235.608 16.984C236.042 17.2717 236.396 17.6835 236.671 18.2191C236.945 18.7504 237.118 19.3768 237.189 20.0984H239.48V15.6758H240.941V27.6953H239.48V21.2937H237.202C237.149 22.0552 236.987 22.7193 236.717 23.2859C236.447 23.8482 236.091 24.282 235.648 24.5875C235.205 24.8885 234.707 25.0391 234.154 25.0391C233.552 25.0391 233.016 24.8664 232.547 24.5211C232.082 24.1714 231.719 23.6755 231.458 23.0336C231.201 22.3917 231.073 21.6435 231.073 20.7891C231.073 19.9391 231.201 19.1953 231.458 18.5578C231.719 17.9159 232.084 17.4223 232.554 17.077C233.023 16.7272 233.556 16.5523 234.154 16.5523ZM232.494 20.7891C232.494 21.3956 232.562 21.918 232.7 22.3562C232.837 22.7945 233.029 23.1288 233.277 23.359C233.53 23.5892 233.822 23.7065 234.154 23.7109C234.486 23.7065 234.778 23.5892 235.031 23.359C235.283 23.1288 235.478 22.7945 235.615 22.3562C235.757 21.918 235.827 21.3956 235.827 20.7891C235.827 20.187 235.757 19.6668 235.615 19.2285C235.478 18.7902 235.283 18.456 235.031 18.2258C234.778 17.9956 234.486 17.8805 234.154 17.8805C233.822 17.8805 233.53 17.9978 233.277 18.2324C233.029 18.4626 232.837 18.7969 232.7 19.2352C232.562 19.669 232.494 20.187 232.494 20.7891ZM250.676 18.5445H251.698V15.6758H253.106V22.582H251.698V19.7266H250.676V22.4891H249.321V15.9148H250.676V18.5445ZM242.906 16.5391H245.43V17.7344H244.261V20.7824C244.677 20.7603 245.098 20.7005 245.523 20.6031L245.629 21.7984C245.04 21.9268 244.427 21.991 243.79 21.991L243.411 21.9844H242.906V16.5391ZM243.358 26.4602C243.858 26.2875 244.281 26.0484 244.626 25.743C244.976 25.4331 245.237 25.0878 245.41 24.707C245.587 24.3219 245.678 23.9279 245.682 23.525V23.0336H247.09V23.525C247.09 24.0518 247.214 24.5543 247.462 25.0324C247.71 25.5105 248.084 25.9112 248.584 26.2344C249.08 25.8935 249.454 25.4796 249.706 24.9926C249.959 24.5012 250.087 24.012 250.091 23.525V23.0336H251.566V23.525C251.566 23.9544 251.65 24.3639 251.818 24.7535C251.991 25.1387 252.25 25.4818 252.595 25.7828C252.945 26.0794 253.376 26.3052 253.89 26.4602L253.146 27.5492C252.584 27.3589 252.106 27.0822 251.712 26.7191C251.322 26.3561 251.019 25.9267 250.802 25.4309C250.594 25.9355 250.306 26.3827 249.939 26.7723C249.571 27.1618 249.122 27.4607 248.591 27.6688C248.046 27.4607 247.59 27.1663 247.223 26.7855C246.86 26.4048 246.581 25.9599 246.386 25.4508C246.165 25.9333 245.861 26.3539 245.476 26.7125C245.091 27.0755 244.628 27.3544 244.088 27.5492L243.358 26.4602ZM245.988 16.5391H248.617V17.7344H247.342V20.7824C247.807 20.7603 248.276 20.6961 248.75 20.5898L248.883 21.8117C248.267 21.9312 247.626 21.991 246.957 21.991L246.519 21.9844H245.988V16.5391ZM265.564 21.5195H263.784V27.6555H262.31V15.6758H263.784V20.3109H265.564V21.5195ZM254.806 16.8445H256.267V23.4719C258.082 23.4409 259.787 23.2594 261.381 22.9273L261.54 24.1758C260.597 24.3661 259.656 24.499 258.718 24.5742C257.779 24.6495 256.812 24.6893 255.816 24.6937H254.806V16.8445ZM277.106 26.2211H266.135V25.0125H268.672V21.9777C268.185 21.6988 267.806 21.3469 267.536 20.9219C267.271 20.4969 267.14 20.0232 267.145 19.5008C267.145 18.8721 267.333 18.3187 267.709 17.8406C268.09 17.3581 268.619 16.9862 269.296 16.725C269.973 16.4594 270.739 16.3266 271.594 16.3266C272.453 16.3266 273.221 16.4594 273.898 16.725C274.58 16.9862 275.111 17.3581 275.492 17.8406C275.877 18.3187 276.07 18.8721 276.07 19.5008C276.074 20.0143 275.946 20.4792 275.684 20.8953C275.423 21.3115 275.056 21.6612 274.582 21.9445V25.0125H277.106V26.2211ZM268.592 19.5008C268.592 19.9036 268.716 20.2578 268.964 20.5633C269.216 20.8643 269.568 21.0967 270.02 21.2605C270.476 21.4243 271.001 21.5062 271.594 21.5062C272.187 21.5062 272.712 21.4243 273.168 21.2605C273.628 21.0967 273.984 20.8643 274.237 20.5633C274.494 20.2578 274.622 19.9036 274.622 19.5008C274.622 19.0935 274.494 18.7371 274.237 18.4316C273.984 18.1262 273.628 17.8937 273.168 17.7344C272.712 17.575 272.187 17.4953 271.594 17.4953C270.996 17.4953 270.469 17.575 270.013 17.7344C269.562 17.8937 269.212 18.1262 268.964 18.4316C268.716 18.7327 268.592 19.0891 268.592 19.5008ZM273.081 25.0125V22.509C272.612 22.6108 272.116 22.6617 271.594 22.6617C271.094 22.6617 270.607 22.613 270.133 22.5156V25.0125H273.081ZM279.921 23.5516C279.926 23.007 279.979 22.5665 280.081 22.2301C280.182 21.8936 280.324 21.6236 280.506 21.4199C280.691 21.2163 280.939 21.0193 281.249 20.8289C281.564 20.6253 281.809 20.4061 281.986 20.1715C282.163 19.9368 282.25 19.6646 282.245 19.3547C282.245 19.1112 282.188 18.8987 282.073 18.7172C281.962 18.5312 281.807 18.3874 281.608 18.2855C281.409 18.1837 281.187 18.1328 280.944 18.1328C280.718 18.1328 280.506 18.1815 280.306 18.2789C280.107 18.3763 279.943 18.5246 279.815 18.7238C279.687 18.923 279.616 19.1643 279.602 19.4477H277.942C277.956 18.8721 278.097 18.3829 278.367 17.9801C278.637 17.5728 278.996 17.2673 279.443 17.0637C279.895 16.8556 280.399 16.7516 280.957 16.7516C281.55 16.7516 282.075 16.8578 282.531 17.0703C282.991 17.2784 283.348 17.5772 283.6 17.9668C283.857 18.3564 283.985 18.8102 283.985 19.3281C283.981 19.8461 283.857 20.291 283.613 20.6629C283.374 21.0348 283.029 21.3557 282.577 21.6258C282.312 21.7896 282.099 21.9556 281.94 22.1238C281.785 22.2921 281.67 22.4891 281.595 22.7148C281.519 22.9406 281.479 23.2195 281.475 23.5516V23.6711H279.921V23.5516ZM279.709 25.5703C279.709 25.3888 279.755 25.2206 279.848 25.0656C279.941 24.9062 280.067 24.7801 280.227 24.6871C280.386 24.5941 280.559 24.5477 280.745 24.5477C280.926 24.5477 281.094 24.5941 281.249 24.6871C281.409 24.7801 281.535 24.9062 281.628 25.0656C281.721 25.2206 281.767 25.3888 281.767 25.5703C281.767 25.7562 281.721 25.9289 281.628 26.0883C281.535 26.2477 281.409 26.3738 281.249 26.4668C281.094 26.5598 280.926 26.6063 280.745 26.6063C280.559 26.6063 280.386 26.5598 280.227 26.4668C280.067 26.3738 279.941 26.2477 279.848 26.0883C279.755 25.9289 279.709 25.7562 279.709 25.5703Z" fill="white"/>
</g>
<defs>
<filter id="filter0_d_120_5371" x="0.466667" y="0.466667" width="346.067" height="43.0667" filterUnits="userSpaceOnUse" color-interpolation-filters="sRGB">
<feFlood flood-opacity="0" result="BackgroundImageFix"/>
<feColorMatrix in="SourceAlpha" type="matrix" values="0 0 0 0 0 0 0 0 0 0 0 0 0 0 0 0 0 0 127 0" result="hardAlpha"/>
<feOffset/>
<feGaussianBlur stdDeviation="2.26667"/>
<feComposite in2="hardAlpha" operator="out"/>
<feColorMatrix type="matrix" values="0 0 0 0 0 0 0 0 0 0 0 0 0 0 0 0 0 0 0.22 0"/>
<feBlend mode="normal" in2="BackgroundImageFix" result="effect1_dropShadow_120_5371"/>
<feBlend mode="normal" in="SourceGraphic" in2="effect1_dropShadow_120_5371" result="shape"/>
</filter>
</defs>
</svg>
