<svg width="268" height="44" viewBox="0 0 268 44" fill="none" xmlns="http://www.w3.org/2000/svg">
<g filter="url(#filter0_d_120_5216)">
<rect x="5" y="5" width="258" height="34" rx="17" fill="#8000FF" shape-rendering="crispEdges"/>
<path d="M30.1006 21.8544C30.3039 21.5626 30.6357 21.5773 30.931 21.5158C31.9806 21.2982 33.035 21.1028 34.0815 20.8715C35.2625 20.6106 36.1047 19.6542 36.2465 18.4418C36.3839 17.2678 36.5084 16.0919 36.6403 14.9169C36.6846 14.5202 36.7324 14.1235 36.7821 13.7277C36.8097 13.5092 36.9746 13.3575 37.172 13.3595C37.3733 13.361 37.5392 13.5096 37.5633 13.7267C37.6647 14.6334 37.7499 15.5421 37.8651 16.4468C37.9621 17.2063 37.9778 17.9786 38.1511 18.7253C38.4351 19.947 39.2311 20.6652 40.448 20.9202C41.5782 21.1565 42.7119 21.3775 43.8436 21.6083C44.1168 21.664 44.2616 21.8126 44.2419 22.0218C44.2197 22.2615 44.0622 22.358 43.8353 22.4028C42.646 22.6381 41.4562 22.8724 40.2718 23.1288C39.1017 23.3823 38.2392 24.3471 38.1033 25.5299C37.9498 26.8663 37.8065 28.2037 37.6578 29.5406C37.6298 29.7917 37.6002 30.0432 37.5628 30.2933C37.5308 30.5049 37.4058 30.6309 37.1867 30.6423C36.979 30.6531 36.8097 30.5118 36.7846 30.2938C36.6822 29.4023 36.5931 28.5089 36.4838 27.6185C36.3888 26.8417 36.3578 26.0556 36.1983 25.2887C35.9561 24.1246 35.0582 23.2967 33.8856 23.0781C32.7598 22.8684 31.6409 22.6218 30.5161 22.4077C30.3295 22.3723 30.2168 22.2704 30.0996 22.1498V21.8549L30.1006 21.8544ZM41.69 22.0297C41.6767 21.9524 41.6383 21.9603 41.6097 21.9544C40.9757 21.818 40.3235 21.7526 39.7106 21.5325C38.2653 21.0137 37.3359 19.7182 37.2694 18.1745C37.2606 17.9717 37.2222 17.7699 37.1971 17.5676C37.1075 17.8999 37.0666 18.2272 37.0268 18.5545C36.9165 19.4597 36.5138 20.2104 35.8438 20.8267C35.1822 21.4356 34.3621 21.6561 33.509 21.8047C33.222 21.8544 32.9375 21.9194 32.652 21.9775C33.1728 22.1355 33.6887 22.2389 34.2041 22.3462C35.7021 22.6588 36.8515 23.9228 37.0268 25.4467C37.0622 25.7569 37.105 26.0665 37.1439 26.3761C37.2227 26.1846 37.2562 25.9907 37.2704 25.7948C37.3221 25.0815 37.519 24.417 37.9291 23.8263C38.5799 22.8891 39.5058 22.4181 40.6114 22.2463C40.9737 22.1901 41.3316 22.1025 41.69 22.0292V22.0297Z" fill="white"/>
<path d="M47.5371 11.0002C47.6941 11.1287 47.7763 11.2828 47.7965 11.4964C47.8792 12.381 47.9924 13.2625 48.0742 14.1476C48.1446 14.9135 48.3794 15.5701 49.134 15.9162C49.5076 16.0875 49.9211 16.1111 50.3159 16.2031C50.7826 16.3114 51.2527 16.4064 51.7233 16.499C51.9542 16.5442 52.1033 16.6624 52.1004 16.9041C52.0974 17.1334 51.9532 17.2442 51.7317 17.289C50.9657 17.4445 50.2002 17.6016 49.4377 17.7733C48.7239 17.9343 48.2056 18.5279 48.1258 19.2486C48.0102 20.2946 47.8965 21.3405 47.7822 22.3865C47.7557 22.6287 47.6104 22.7788 47.3978 22.7833C47.1817 22.7877 47.0256 22.6415 46.9991 22.4018C46.8829 21.3474 46.7662 20.2926 46.6535 19.2377C46.5796 18.5471 46.0426 17.9279 45.3559 17.7748C44.5938 17.605 43.8294 17.446 43.0644 17.29C42.835 17.2432 42.6804 17.1275 42.6814 16.8893C42.6824 16.6629 42.831 16.5457 43.0496 16.5004C43.8136 16.3424 44.5786 16.1884 45.3386 16.0146C46.079 15.8453 46.5841 15.2226 46.6599 14.4656C46.7608 13.4594 46.8883 12.4558 46.9892 11.4492C47.0094 11.2488 47.1014 11.1179 47.2427 11.0002H47.5376L47.5371 11.0002ZM47.3894 18.8459C47.765 17.6897 48.5295 17.0862 49.6465 16.8918C48.5 16.7003 47.7552 16.0717 47.3884 14.9356C47.0291 16.0722 46.2784 16.6914 45.1491 16.8952C46.2646 17.0906 47.0104 17.6985 47.3894 18.8459Z" fill="white"/>
<path d="M49.7503 28.2943C49.7272 28.505 49.613 28.6345 49.4028 28.6773C48.8446 28.791 48.2873 28.9111 47.7271 29.0159C46.8962 29.1715 46.525 29.5953 46.4512 30.4385C46.3867 31.1773 46.2932 31.9137 46.2075 32.6506C46.1829 32.8647 46.0111 33.006 45.8053 32.9996C45.5976 32.9932 45.4543 32.8544 45.4273 32.6235C45.3332 31.8217 45.255 31.0178 45.1447 30.2185C45.0482 29.5195 44.6716 29.1557 43.9795 29.0218C43.405 28.9106 42.832 28.792 42.2581 28.6797C42.0385 28.6369 41.8953 28.5168 41.8953 28.2884C41.8953 28.0605 42.0385 27.9384 42.2576 27.8951C42.8227 27.7824 43.3868 27.6613 43.9529 27.5545C44.7228 27.4093 45.1132 26.9584 45.1836 26.1664C45.25 25.4197 45.3411 24.6745 45.4302 23.9297C45.4553 23.7195 45.5917 23.592 45.8063 23.5763C46.0047 23.5615 46.1814 23.7161 46.2065 23.9312C46.2932 24.6671 46.3788 25.4035 46.4536 26.1408C46.5265 26.8555 46.7583 27.429 47.896 27.6032C48.3941 27.6795 48.8854 27.7991 49.3806 27.8956C49.6017 27.9389 49.7237 28.0674 49.7503 28.2943ZM45.8201 26.9771C45.5228 27.6495 45.0541 28.0699 44.3275 28.2919C45.0605 28.5006 45.5223 28.9264 45.8201 29.5953C46.0982 28.919 46.5841 28.5203 47.2737 28.2855C46.5737 28.0556 46.1095 27.6505 45.8201 26.9771Z" fill="white"/>
<path d="M69.3527 27.682H67.8785V21.5727H65.3418V20.3641H67.8785V15.6758H69.3527V27.682ZM59.2191 24.3617C60.7376 23.618 61.8665 22.737 62.6059 21.7187C63.3452 20.7005 63.779 19.5008 63.9074 18.1195H59.777V16.9508H65.3949C65.3905 18.1992 65.2178 19.3414 64.877 20.3773C64.5405 21.4089 63.9738 22.3585 63.177 23.2262C62.3845 24.0939 61.322 24.8576 59.9895 25.5172L59.2191 24.3617ZM81.0535 27.6953H79.5926V15.6758H81.0535V27.6953ZM71.7035 16.725H77.3613V21.2273H73.2309V23.6445C74.2314 23.6357 75.1566 23.6003 76.0066 23.5383C76.8566 23.4763 77.7288 23.3701 78.623 23.2195L78.7559 24.4281C77.8262 24.5875 76.9098 24.6982 76.0066 24.7602C75.1079 24.8221 74.1074 24.8531 73.0051 24.8531H72.766H71.7168V20.0586H75.8605V17.9203H71.7035V16.725ZM92.2098 20.3641H93.9895V21.5992H92.2098V27.6555H90.7355V15.6758H92.2098V20.3641ZM82.7402 24.375C84.2056 23.6445 85.3345 22.7658 86.127 21.7387C86.9194 20.7072 87.3887 19.5096 87.5348 18.1461H83.391V16.9242H89.0355C89.0267 20.8643 87.2072 23.7286 83.577 25.5172L82.7402 24.375ZM108.36 27.6688H106.939V21.5328H105.81V27.1242H104.429V15.9016H105.81V20.3375H106.939V15.6625H108.36V27.6688ZM97.6684 24.1359C98.2837 23.2904 98.7286 22.4005 99.0031 21.4664C99.282 20.5323 99.448 19.4742 99.5012 18.2922H98.0402V17.1102H100.763C100.763 18.1328 100.71 19.078 100.604 19.9457C100.497 20.8134 100.3 21.659 100.013 22.4824C99.7292 23.3059 99.3329 24.0828 98.8238 24.8133L97.6684 24.1359ZM100.497 24.9195C100.953 24.282 101.31 23.6091 101.566 22.9008C101.828 22.188 102.011 21.462 102.118 20.7227C102.228 19.9789 102.295 19.1687 102.317 18.2922H101.135V17.1102H103.605C103.605 18.2258 103.559 19.2529 103.466 20.1914C103.373 21.1299 103.182 22.0618 102.895 22.9871C102.611 23.9124 102.202 24.769 101.666 25.557L100.497 24.9195ZM120.486 21.9711H109.542V20.8023H112.497C112.838 19.6513 113.03 18.5224 113.075 17.4156H110.564V16.2203H114.536V16.6719C114.531 17.088 114.52 17.4732 114.502 17.8273C114.485 18.1771 114.436 18.6109 114.356 19.1289C114.281 19.6469 114.164 20.2047 114.004 20.8023H117.338C117.599 19.6602 117.743 18.5312 117.77 17.4156H115.266V16.2203H119.211V16.7383V16.8977C119.206 17.5307 119.18 18.1461 119.131 18.7437C119.087 19.337 118.98 20.0232 118.812 20.8023H120.486V21.9711ZM110.272 26.4867C111.087 26.3805 111.793 26.1835 112.391 25.8957C112.993 25.6035 113.453 25.2538 113.772 24.8465C114.091 24.4348 114.252 23.9943 114.257 23.525V23.0469H115.731V23.525C115.735 23.9943 115.897 24.4348 116.216 24.8465C116.534 25.2538 116.995 25.6035 117.597 25.8957C118.203 26.1835 118.918 26.3805 119.742 26.4867L119.184 27.6422C118.21 27.4961 117.362 27.226 116.641 26.832C115.923 26.4424 115.377 25.9555 115 25.3711C114.629 25.9555 114.084 26.4424 113.367 26.832C112.65 27.226 111.808 27.4961 110.843 27.6422L110.272 26.4867ZM130.699 20.457H132.545V21.6789H130.699V27.682H129.238V15.6758H130.699V20.457ZM121.229 17.5219H124.071V15.8484H125.546V17.5219H128.308V18.7039H121.229V17.5219ZM121.787 22.3164C121.783 21.7719 121.911 21.2849 122.172 20.8555C122.433 20.4216 122.794 20.0852 123.255 19.8461C123.715 19.607 124.235 19.4875 124.815 19.4875C125.386 19.4875 125.9 19.607 126.356 19.8461C126.812 20.0852 127.17 20.4216 127.432 20.8555C127.697 21.2849 127.83 21.7719 127.83 22.3164C127.83 22.8609 127.697 23.3479 127.432 23.7773C127.17 24.2023 126.812 24.5344 126.356 24.7734C125.9 25.0125 125.386 25.132 124.815 25.132C124.235 25.132 123.715 25.0125 123.255 24.7734C122.794 24.5344 122.433 24.2023 122.172 23.7773C121.911 23.3479 121.783 22.8609 121.787 22.3164ZM123.195 22.3164C123.195 22.6352 123.264 22.9163 123.401 23.1598C123.538 23.3988 123.728 23.5848 123.972 23.7176C124.22 23.846 124.501 23.9102 124.815 23.9102C125.121 23.9102 125.395 23.846 125.639 23.7176C125.882 23.5892 126.073 23.4033 126.21 23.1598C126.347 22.9163 126.418 22.6352 126.422 22.3164C126.418 21.9977 126.345 21.7165 126.203 21.473C126.066 21.2251 125.876 21.0348 125.632 20.902C125.393 20.7647 125.121 20.6961 124.815 20.6961C124.501 20.6961 124.22 20.7647 123.972 20.902C123.728 21.0348 123.538 21.2251 123.401 21.473C123.264 21.7165 123.195 21.9977 123.195 22.3164ZM142.851 17.9336V18.073C142.847 18.7415 142.833 19.3215 142.811 19.8129C142.794 20.2999 142.752 20.8665 142.685 21.5129C142.619 22.1548 142.515 22.8521 142.373 23.6047L140.886 23.4453C141.032 22.7237 141.138 22.0441 141.204 21.4066C141.275 20.7647 141.317 20.2003 141.33 19.7133C141.348 19.2263 141.359 18.6419 141.364 17.9602H134.192V16.7781H142.851V17.9336ZM133.05 24.9195H137.087V20.7492H138.548V24.9195H143.993V26.1281H133.05V24.9195ZM158.085 22.8078H156.611V19.8727H154.565V18.6641H156.611V15.6758H158.085V22.8078ZM147.991 21.6125C148.615 21.4 149.149 21.0923 149.591 20.6895C150.039 20.2866 150.375 19.8306 150.601 19.3215C150.827 18.8124 150.939 18.2878 150.939 17.7477V17.6547H148.443V16.4594H154.924V17.6547H152.44V17.7344C152.44 18.2302 152.549 18.7128 152.766 19.182C152.983 19.6469 153.304 20.0652 153.729 20.4371C154.154 20.8046 154.667 21.0901 155.269 21.2937L154.525 22.4625C153.875 22.2411 153.312 21.9158 152.839 21.4863C152.365 21.0525 151.991 20.5456 151.716 19.9656C151.446 20.6208 151.061 21.1919 150.561 21.6789C150.061 22.1659 149.461 22.5333 148.761 22.7812L147.991 21.6125ZM149.943 25.3977C149.939 24.924 150.101 24.5167 150.428 24.1758C150.756 23.8305 151.225 23.5671 151.836 23.3855C152.451 23.204 153.18 23.1133 154.021 23.1133C154.866 23.1133 155.597 23.204 156.212 23.3855C156.827 23.5671 157.299 23.8283 157.627 24.1691C157.959 24.51 158.125 24.9195 158.125 25.3977C158.125 25.8758 157.959 26.2853 157.627 26.6262C157.299 26.9671 156.827 27.2283 156.212 27.4098C155.597 27.5913 154.866 27.682 154.021 27.682C153.18 27.682 152.451 27.5913 151.836 27.4098C151.225 27.2283 150.756 26.9648 150.428 26.6195C150.101 26.2786 149.939 25.8714 149.943 25.3977ZM151.404 25.3977C151.4 25.7651 151.621 26.0484 152.068 26.2477C152.52 26.4424 153.157 26.5398 153.981 26.5398C154.84 26.5398 155.499 26.4424 155.96 26.2477C156.42 26.0529 156.65 25.7695 156.65 25.3977C156.65 25.0258 156.422 24.7402 155.966 24.541C155.515 24.3418 154.866 24.2422 154.021 24.2422C153.184 24.2422 152.538 24.3418 152.082 24.541C151.626 24.7402 151.4 25.0258 151.404 25.3977ZM170.742 23.0469H159.785V21.8648H164.513V20.5633H161.126V16.2734H169.414V17.4687H162.6V19.368H169.52V20.5633H166V21.8648H170.742V23.0469ZM161.139 23.95H162.587V26.2477H169.6V27.443H161.139V23.95ZM178.684 21.8516H176.254V23.9434C177.329 23.9035 178.361 23.8305 179.348 23.7242L179.468 24.8133C178.294 24.9859 177.099 25.0988 175.882 25.152C174.664 25.2051 173.296 25.2339 171.778 25.2383L171.592 24.0164H172.349C173.132 24.0164 173.943 24.0098 174.779 23.9965V21.8516H172.429V16.7781H178.631V17.9469H173.889V20.6562H178.684V21.8516ZM180.065 15.6758H181.539V27.6953H180.065V15.6758ZM186.573 16.5523C187.109 16.5523 187.593 16.6962 188.027 16.984C188.461 17.2717 188.815 17.6835 189.09 18.2191C189.364 18.7504 189.537 19.3768 189.608 20.0984H191.899V15.6758H193.36V27.6953H191.899V21.2937H189.621C189.568 22.0552 189.406 22.7193 189.136 23.2859C188.866 23.8482 188.51 24.282 188.067 24.5875C187.624 24.8885 187.126 25.0391 186.573 25.0391C185.971 25.0391 185.435 24.8664 184.966 24.5211C184.501 24.1714 184.138 23.6755 183.877 23.0336C183.62 22.3917 183.492 21.6435 183.492 20.7891C183.492 19.9391 183.62 19.1953 183.877 18.5578C184.138 17.9159 184.503 17.4223 184.973 17.077C185.442 16.7272 185.975 16.5523 186.573 16.5523ZM184.913 20.7891C184.913 21.3956 184.982 21.918 185.119 22.3562C185.256 22.7945 185.449 23.1288 185.696 23.359C185.949 23.5892 186.241 23.7065 186.573 23.7109C186.905 23.7065 187.197 23.5892 187.45 23.359C187.702 23.1288 187.897 22.7945 188.034 22.3562C188.176 21.918 188.246 21.3956 188.246 20.7891C188.246 20.187 188.176 19.6668 188.034 19.2285C187.897 18.7902 187.702 18.456 187.45 18.2258C187.197 17.9956 186.905 17.8805 186.573 17.8805C186.241 17.8805 185.949 17.9978 185.696 18.2324C185.449 18.4626 185.256 18.7969 185.119 19.2352C184.982 19.669 184.913 20.187 184.913 20.7891ZM199.31 23.4852C199.31 24.012 199.434 24.5167 199.682 24.9992C199.93 25.4773 200.301 25.8758 200.797 26.1945C201.298 25.8581 201.678 25.4441 201.939 24.9527C202.201 24.4613 202.333 23.9721 202.338 23.4852V22.9937H203.786V23.4852C203.781 23.9146 203.863 24.3219 204.031 24.707C204.204 25.0922 204.463 25.4353 204.808 25.7363C205.158 26.0329 205.587 26.2609 206.096 26.4203L205.379 27.4961C204.808 27.3057 204.326 27.029 203.932 26.666C203.542 26.303 203.239 25.8736 203.022 25.3777C202.814 25.878 202.528 26.3207 202.165 26.7059C201.802 27.0954 201.359 27.3943 200.837 27.6023C200.288 27.4031 199.828 27.1154 199.456 26.7391C199.084 26.3628 198.798 25.9245 198.599 25.4242C198.378 25.8979 198.072 26.3118 197.683 26.666C197.298 27.0246 196.835 27.3013 196.295 27.4961L195.564 26.4203C196.065 26.2432 196.487 26.002 196.833 25.6965C197.178 25.3866 197.437 25.0413 197.61 24.6605C197.782 24.2754 197.871 23.8836 197.875 23.4852V22.9937H199.31V23.4852ZM195.259 19.182C195.259 18.6286 195.398 18.135 195.677 17.7012C195.961 17.2673 196.348 16.9309 196.839 16.6918C197.331 16.4483 197.884 16.3266 198.5 16.3266C199.111 16.3266 199.662 16.4483 200.153 16.6918C200.645 16.9309 201.03 17.2673 201.309 17.7012C201.587 18.135 201.727 18.6286 201.727 19.182C201.727 19.731 201.587 20.2224 201.309 20.6562C201.03 21.0857 200.645 21.4221 200.153 21.6656C199.662 21.9047 199.111 22.0242 198.5 22.0242C197.884 22.0242 197.331 21.9047 196.839 21.6656C196.348 21.4221 195.961 21.0857 195.677 20.6562C195.398 20.2224 195.259 19.731 195.259 19.182ZM196.707 19.182C196.707 19.5052 196.782 19.7885 196.932 20.032C197.083 20.2755 197.293 20.4659 197.563 20.6031C197.838 20.7359 198.15 20.8023 198.5 20.8023C198.84 20.8023 199.146 20.7359 199.416 20.6031C199.686 20.4659 199.896 20.2755 200.047 20.032C200.202 19.7885 200.279 19.5052 200.279 19.182C200.279 18.8589 200.202 18.5755 200.047 18.332C199.896 18.0885 199.686 17.9026 199.416 17.7742C199.146 17.6414 198.84 17.575 198.5 17.575C198.15 17.575 197.838 17.6414 197.563 17.7742C197.293 17.9026 197.083 18.0885 196.932 18.332C196.782 18.5755 196.707 18.8589 196.707 19.182ZM203.56 15.6891H205.047V22.4891H203.56V15.6891ZM217.983 21.5195H216.204V27.6555H214.729V15.6758H216.204V20.3109H217.983V21.5195ZM207.225 16.8445H208.686V23.4719C210.501 23.4409 212.206 23.2594 213.8 22.9273L213.959 24.1758C213.016 24.3661 212.075 24.499 211.137 24.5742C210.198 24.6495 209.231 24.6893 208.235 24.6937H207.225V16.8445ZM229.525 26.2211H218.554V25.0125H221.091V21.9777C220.604 21.6988 220.226 21.3469 219.955 20.9219C219.69 20.4969 219.559 20.0232 219.564 19.5008C219.564 18.8721 219.752 18.3187 220.128 17.8406C220.509 17.3581 221.038 16.9862 221.715 16.725C222.393 16.4594 223.158 16.3266 224.013 16.3266C224.872 16.3266 225.64 16.4594 226.317 16.725C226.999 16.9862 227.53 17.3581 227.911 17.8406C228.296 18.3187 228.489 18.8721 228.489 19.5008C228.493 20.0143 228.365 20.4792 228.104 20.8953C227.842 21.3115 227.475 21.6612 227.001 21.9445V25.0125H229.525V26.2211ZM221.011 19.5008C221.011 19.9036 221.135 20.2578 221.383 20.5633C221.636 20.8643 221.987 21.0967 222.439 21.2605C222.895 21.4243 223.42 21.5062 224.013 21.5062C224.606 21.5062 225.131 21.4243 225.587 21.2605C226.047 21.0967 226.404 20.8643 226.656 20.5633C226.913 20.2578 227.041 19.9036 227.041 19.5008C227.041 19.0935 226.913 18.7371 226.656 18.4316C226.404 18.1262 226.047 17.8937 225.587 17.7344C225.131 17.575 224.606 17.4953 224.013 17.4953C223.415 17.4953 222.888 17.575 222.432 17.7344C221.981 17.8937 221.631 18.1262 221.383 18.4316C221.135 18.7327 221.011 19.0891 221.011 19.5008ZM225.5 25.0125V22.509C225.031 22.6108 224.535 22.6617 224.013 22.6617C223.513 22.6617 223.026 22.613 222.552 22.5156V25.0125H225.5ZM232.34 23.5516C232.345 23.007 232.398 22.5665 232.5 22.2301C232.601 21.8936 232.743 21.6236 232.925 21.4199C233.111 21.2163 233.358 21.0193 233.668 20.8289C233.983 20.6253 234.228 20.4061 234.405 20.1715C234.583 19.9368 234.669 19.6646 234.664 19.3547C234.664 19.1112 234.607 18.8987 234.492 18.7172C234.381 18.5312 234.226 18.3874 234.027 18.2855C233.828 18.1837 233.606 18.1328 233.363 18.1328C233.137 18.1328 232.925 18.1815 232.725 18.2789C232.526 18.3763 232.362 18.5246 232.234 18.7238C232.106 18.923 232.035 19.1643 232.021 19.4477H230.361C230.375 18.8721 230.516 18.3829 230.786 17.9801C231.056 17.5728 231.415 17.2673 231.862 17.0637C232.314 16.8556 232.818 16.7516 233.376 16.7516C233.969 16.7516 234.494 16.8578 234.95 17.0703C235.41 17.2784 235.767 17.5772 236.019 17.9668C236.276 18.3564 236.404 18.8102 236.404 19.3281C236.4 19.8461 236.276 20.291 236.032 20.6629C235.793 21.0348 235.448 21.3557 234.996 21.6258C234.731 21.7896 234.518 21.9556 234.359 22.1238C234.204 22.2921 234.089 22.4891 234.014 22.7148C233.938 22.9406 233.899 23.2195 233.894 23.5516V23.6711H232.34V23.5516ZM232.128 25.5703C232.128 25.3888 232.174 25.2206 232.267 25.0656C232.36 24.9062 232.486 24.7801 232.646 24.6871C232.805 24.5941 232.978 24.5477 233.164 24.5477C233.345 24.5477 233.513 24.5941 233.668 24.6871C233.828 24.7801 233.954 24.9062 234.047 25.0656C234.14 25.2206 234.186 25.3888 234.186 25.5703C234.186 25.7562 234.14 25.9289 234.047 26.0883C233.954 26.2477 233.828 26.3738 233.668 26.4668C233.513 26.5598 233.345 26.6063 233.164 26.6063C232.978 26.6063 232.805 26.5598 232.646 26.4668C232.486 26.3738 232.36 26.2477 232.267 26.0883C232.174 25.9289 232.128 25.7562 232.128 25.5703Z" fill="white"/>
</g>
<defs>
<filter id="filter0_d_120_5216" x="0.466667" y="0.466667" width="267.067" height="43.0667" filterUnits="userSpaceOnUse" color-interpolation-filters="sRGB">
<feFlood flood-opacity="0" result="BackgroundImageFix"/>
<feColorMatrix in="SourceAlpha" type="matrix" values="0 0 0 0 0 0 0 0 0 0 0 0 0 0 0 0 0 0 127 0" result="hardAlpha"/>
<feOffset/>
<feGaussianBlur stdDeviation="2.26667"/>
<feComposite in2="hardAlpha" operator="out"/>
<feColorMatrix type="matrix" values="0 0 0 0 0 0 0 0 0 0 0 0 0 0 0 0 0 0 0.22 0"/>
<feBlend mode="normal" in2="BackgroundImageFix" result="effect1_dropShadow_120_5216"/>
<feBlend mode="normal" in="SourceGraphic" in2="effect1_dropShadow_120_5216" result="shape"/>
</filter>
</defs>
</svg>
