<svg width="147" height="34" viewBox="0 0 147 34" fill="none" xmlns="http://www.w3.org/2000/svg">
<rect x="0.5" y="0.5" width="146" height="33" rx="16.5" fill="white"/>
<path d="M17.2473 27H21.9532M19.6002 8.17647V7M25.4826 10.5294L26.6591 9.35294M13.7179 10.5294L12.5414 9.35294M25.4826 21.1176L26.6591 22.2941M13.7179 21.1176L12.5414 22.2941M11.3649 15.2353H10.1885M29.012 15.2353H27.8355M19.6002 11.1176C20.7947 11.1169 21.9544 11.5201 22.8907 12.2618C23.827 13.0035 24.485 14.04 24.7578 15.2029C25.0305 16.3659 24.9019 17.5869 24.393 18.6675C23.884 19.7481 23.0246 20.6249 21.9544 21.1553L21.9532 22.2941C21.9532 22.9182 21.7053 23.5166 21.264 23.9579C20.8228 24.3992 20.2243 24.6471 19.6002 24.6471C18.9762 24.6471 18.3777 24.3992 17.9365 23.9579C17.4952 23.5166 17.2473 22.9182 17.2473 22.2941V21.1553C16.1771 20.6249 15.3178 19.7483 14.8088 18.6678C14.2998 17.5872 14.1712 16.3664 14.4438 15.2035C14.7164 14.0407 15.3742 13.0041 16.3103 12.2624C17.2464 11.5206 18.4059 11.1172 19.6002 11.1176Z" stroke="#DF1515" stroke-width="1.17647" stroke-linecap="round" stroke-linejoin="round"/>
<path d="M45.6131 15.3641H47.3928V16.5992H45.6131V22.6555H44.1389V10.6758H45.6131V15.3641ZM36.1436 19.375C37.6089 18.6445 38.7378 17.7658 39.5303 16.7387C40.3227 15.7072 40.792 14.5096 40.9381 13.1461H36.7943V11.9242H42.4389C42.43 15.8643 40.6105 18.7286 36.9803 20.5172L36.1436 19.375ZM58.9342 21.2875H47.9639V20.0656H52.692V18.1133H49.2654V14.182H56.1717V12.6945H49.2389V11.4992H57.6326V15.3508H50.7396V16.9047H57.9115V18.1133H54.1529V20.0656H58.9342V21.2875ZM70.6748 17.4492H59.7178V16.2406H70.6748V17.4492ZM60.9928 20.4641C60.9928 20.0036 61.1588 19.6096 61.4908 19.282C61.8273 18.9544 62.3076 18.7065 62.9318 18.5383C63.5605 18.3701 64.3087 18.2859 65.1764 18.2859C66.0352 18.2859 66.7768 18.3701 67.401 18.5383C68.0252 18.7065 68.5033 18.9544 68.8354 19.282C69.1674 19.6096 69.3334 20.0036 69.3334 20.4641C69.3334 20.9333 69.1674 21.3318 68.8354 21.6594C68.5033 21.9914 68.0252 22.2415 67.401 22.4098C66.7812 22.5824 66.0396 22.6688 65.1764 22.6688C64.3087 22.6688 63.5605 22.5824 62.9318 22.4098C62.3076 22.2415 61.8273 21.9914 61.4908 21.6594C61.1588 21.3273 60.9928 20.9289 60.9928 20.4641ZM61.0592 11.0609H69.3467V12.2562H62.5334V14.1156H69.4131V15.2977H61.0592V11.0609ZM62.4936 20.4641C62.4891 20.8182 62.7149 21.0839 63.1709 21.2609C63.6269 21.438 64.2954 21.5266 65.1764 21.5266C66.0441 21.5266 66.7059 21.438 67.1619 21.2609C67.6223 21.0839 67.8548 20.8182 67.8592 20.4641C67.8503 20.1232 67.6157 19.8642 67.1553 19.6871C66.6949 19.5056 66.0352 19.4148 65.1764 19.4148C64.3042 19.4148 63.638 19.5056 63.1775 19.6871C62.7171 19.8642 62.4891 20.1232 62.4936 20.4641ZM81.4592 22.6953H79.9717V10.6758H81.4592V22.6953ZM71.8568 15.7891C71.8568 14.9435 71.9896 14.1997 72.2553 13.5578C72.5209 12.9159 72.8906 12.4223 73.3643 12.077C73.8424 11.7272 74.3847 11.5523 74.9912 11.5523C75.5889 11.5523 76.1245 11.7272 76.5982 12.077C77.0764 12.4223 77.4505 12.9159 77.7205 13.5578C77.9906 14.1997 78.1256 14.9435 78.1256 15.7891C78.1256 16.6435 77.9906 17.3917 77.7205 18.0336C77.4505 18.6755 77.0764 19.1714 76.5982 19.5211C76.1245 19.8664 75.5889 20.0391 74.9912 20.0391C74.3847 20.0391 73.8424 19.8664 73.3643 19.5211C72.8906 19.1714 72.5209 18.6755 72.2553 18.0336C71.9896 17.3917 71.8568 16.6435 71.8568 15.7891ZM73.2779 15.7891C73.2779 16.3956 73.3488 16.918 73.4904 17.3562C73.6365 17.7945 73.838 18.1288 74.0947 18.359C74.3515 18.5892 74.6503 18.7065 74.9912 18.7109C75.3277 18.7065 75.6243 18.5892 75.8811 18.359C76.1378 18.1288 76.337 17.7945 76.4787 17.3562C76.6204 16.918 76.6912 16.3956 76.6912 15.7891C76.6912 15.187 76.6204 14.669 76.4787 14.2352C76.337 13.7969 76.1378 13.4626 75.8811 13.2324C75.6243 12.9978 75.3277 12.8805 74.9912 12.8805C74.6503 12.8805 74.3515 12.9978 74.0947 13.2324C73.838 13.4626 73.6365 13.7969 73.4904 14.2352C73.3488 14.669 73.2779 15.187 73.2779 15.7891ZM95.9225 13.2656H97.5959V14.4875H95.9225V16.7187H94.4482V10.6758H95.9225V13.2656ZM86.8646 11.4461H92.549V16.4H86.8646V11.4461ZM87.5951 17.7414H89.0428V21.148C89.8264 21.1038 90.5214 20.982 91.1279 20.7828L91.3404 21.9383C90.8579 22.1065 90.3709 22.2172 89.8795 22.2703C89.3881 22.3279 88.8391 22.3544 88.2326 22.35H87.5951V17.7414ZM91.1014 15.2445V12.6016H88.3123V15.2445H91.1014ZM90.9287 17.8742H93.2396V16.9312H94.6873V17.8742H96.9717V18.9367H90.9287V17.8742ZM91.6592 20.982C91.6548 20.6367 91.7477 20.3379 91.9381 20.0855C92.1285 19.8288 92.3963 19.634 92.7416 19.5012C93.0913 19.3639 93.492 19.2953 93.9436 19.2953C94.3907 19.2953 94.7869 19.3639 95.1322 19.5012C95.482 19.634 95.7542 19.8288 95.949 20.0855C96.1438 20.3379 96.2412 20.6367 96.2412 20.982C96.2412 21.3185 96.1438 21.6129 95.949 21.8652C95.7542 22.1176 95.482 22.3124 95.1322 22.4496C94.7869 22.5868 94.3907 22.6555 93.9436 22.6555C93.4876 22.6555 93.0869 22.5868 92.7416 22.4496C92.3963 22.3124 92.1285 22.1176 91.9381 21.8652C91.7477 21.6129 91.6548 21.3185 91.6592 20.982ZM92.974 20.9687C92.974 21.1857 93.0626 21.3561 93.2396 21.4801C93.4167 21.5996 93.6514 21.6594 93.9436 21.6594C94.2313 21.6594 94.4637 21.5996 94.6408 21.4801C94.8223 21.3605 94.9131 21.1945 94.9131 20.982C94.9131 20.7695 94.8245 20.6035 94.6475 20.484C94.4704 20.3645 94.2357 20.3047 93.9436 20.3047C93.6558 20.3047 93.4212 20.3645 93.2396 20.484C93.0626 20.5991 92.974 20.7607 92.974 20.9687ZM109.151 18.0602H98.2068V16.8781H109.151V18.0602ZM99.3357 13.4914C99.3357 12.9911 99.5128 12.5573 99.867 12.1898C100.226 11.8224 100.73 11.5435 101.381 11.3531C102.032 11.1583 102.793 11.0609 103.665 11.0609C104.533 11.0609 105.292 11.1583 105.943 11.3531C106.598 11.5435 107.103 11.8224 107.457 12.1898C107.816 12.5573 107.995 12.9911 107.995 13.4914C107.995 13.9961 107.816 14.4344 107.457 14.8062C107.103 15.1737 106.598 15.457 105.943 15.6562C105.292 15.851 104.533 15.9484 103.665 15.9484C102.793 15.9484 102.032 15.851 101.381 15.6562C100.73 15.457 100.226 15.1737 99.867 14.8062C99.5128 14.4344 99.3357 13.9961 99.3357 13.4914ZM99.5615 18.95H101.036V21.2477H107.915V22.443H99.5615V18.95ZM100.876 13.4914C100.872 13.8943 101.111 14.2042 101.594 14.4211C102.081 14.6336 102.758 14.7398 103.626 14.7398C104.529 14.7398 105.228 14.6336 105.724 14.4211C106.22 14.2086 106.468 13.8987 106.468 13.4914C106.468 13.0974 106.22 12.7919 105.724 12.575C105.233 12.3536 104.546 12.243 103.665 12.243C103.085 12.243 102.585 12.2917 102.165 12.3891C101.744 12.4865 101.423 12.6303 101.202 12.8207C100.98 13.0066 100.872 13.2302 100.876 13.4914ZM123.242 22.682H121.768V16.5727H119.231V15.3641H121.768V10.6758H123.242V22.682ZM113.108 19.3617C114.627 18.618 115.756 17.737 116.495 16.7187C117.234 15.7005 117.668 14.5008 117.797 13.1195H113.666V11.9508H119.284C119.28 13.1992 119.107 14.3414 118.766 15.3773C118.43 16.4089 117.863 17.3585 117.066 18.2262C116.274 19.0939 115.211 19.8576 113.879 20.5172L113.108 19.3617ZM134.943 22.6953H133.482V10.6758H134.943V22.6953ZM125.593 11.725H131.251V16.2273H127.12V18.6445C128.121 18.6357 129.046 18.6003 129.896 18.5383C130.746 18.4763 131.618 18.3701 132.512 18.2195L132.645 19.4281C131.715 19.5875 130.799 19.6982 129.896 19.7602C128.997 19.8221 127.997 19.8531 126.894 19.8531H126.655H125.606V15.0586H129.75V12.9203H125.593V11.725Z" fill="#DF1515"/>
<rect x="0.5" y="0.5" width="146" height="33" rx="16.5" stroke="#F2F2F2"/>
</svg>
