<svg width="268" height="44" viewBox="0 0 268 44" fill="none" xmlns="http://www.w3.org/2000/svg">
<g filter="url(#filter0_d_120_5213)">
<rect x="5" y="5" width="258" height="34" rx="17" fill="#8000FF" shape-rendering="crispEdges"/>
<path fill-rule="evenodd" clip-rule="evenodd" d="M39.1159 12.7466C38.8861 12.7466 38.6585 12.7918 38.4462 12.8798C38.2339 12.9677 38.041 13.0966 37.8785 13.2591C37.716 13.4216 37.5871 13.6146 37.4991 13.8269C37.4112 14.0392 37.3659 14.2668 37.3659 14.4966C37.3659 14.7264 37.4112 14.954 37.4991 15.1663C37.5871 15.3786 37.716 15.5715 37.8785 15.734C38.041 15.8965 38.2339 16.0254 38.4462 16.1134C38.6585 16.2013 38.8861 16.2466 39.1159 16.2466C39.58 16.2466 40.0252 16.0622 40.3533 15.734C40.6815 15.4058 40.8659 14.9607 40.8659 14.4966C40.8659 14.0325 40.6815 13.5873 40.3533 13.2591C40.0252 12.931 39.58 12.7466 39.1159 12.7466ZM35.8659 14.4966C35.8659 13.6346 36.2083 12.808 36.8178 12.1985C37.4273 11.589 38.2539 11.2466 39.1159 11.2466C39.9779 11.2466 40.8045 11.589 41.414 12.1985C42.0235 12.808 42.3659 13.6346 42.3659 14.4966C42.3659 15.3585 42.0235 16.1852 41.414 16.7947C40.8045 17.4042 39.9779 17.7466 39.1159 17.7466C38.2539 17.7466 37.4273 17.4042 36.8178 16.7947C36.2083 16.1852 35.8659 15.3585 35.8659 14.4966ZM40.1439 20.7496C40.058 20.746 39.9719 20.745 39.8859 20.7466H38.7949L38.7039 21.6586C38.5299 23.3986 38.4689 24.0986 38.6239 24.7596C38.7799 25.4216 39.1459 26.0206 40.0769 27.5016L42.6509 31.5976C42.754 31.7659 42.7866 31.9682 42.7416 32.1604C42.6965 32.3526 42.5775 32.5193 42.4104 32.6243C42.2432 32.7294 42.0414 32.7643 41.8486 32.7214C41.6559 32.6786 41.4878 32.5615 41.3809 32.3956L38.8069 28.2996L38.7339 28.1836C37.8989 26.8566 37.3839 26.0376 37.1639 25.1036C36.9439 24.1686 37.0409 23.2056 37.1979 21.6446L37.2109 21.5086L37.2869 20.7476C36.7869 20.7506 36.4149 20.7596 36.1169 20.7966C35.7389 20.8416 35.5629 20.9216 35.4379 21.0216C35.3139 21.1216 35.1979 21.2756 35.0709 21.6346C34.9379 22.0116 34.8229 22.5226 34.6519 23.2916L34.3479 24.6596C34.3024 24.8514 34.1832 25.0176 34.0162 25.1222C33.8491 25.2268 33.6475 25.2614 33.4551 25.2186C33.2627 25.1757 33.0949 25.0588 32.988 24.8932C32.8811 24.7276 32.8437 24.5266 32.8839 24.3336L33.1979 22.9226C33.3559 22.2086 33.4899 21.6086 33.6569 21.1346C33.8339 20.6326 34.0759 20.1916 34.4999 19.8516C34.9239 19.5116 35.4059 19.3716 35.9349 19.3066C36.4339 19.2466 37.0489 19.2466 37.7799 19.2466H39.9109C40.0469 19.2466 40.1519 19.2466 40.2509 19.2536C40.7956 19.2926 41.3164 19.4929 41.7468 19.8289C42.1773 20.165 42.4979 20.6216 42.6679 21.1406C42.6979 21.2346 42.7239 21.3376 42.7579 21.4696L42.7629 21.4936C42.8189 21.7176 42.8359 21.7816 42.8519 21.8256C43.0619 22.4316 43.6969 22.7806 44.3209 22.6326C44.3669 22.6226 44.4299 22.6016 44.6489 22.5286L45.3789 22.2856C45.5651 22.2313 45.7652 22.2512 45.937 22.3412C46.1088 22.4313 46.2391 22.5844 46.3004 22.7684C46.3618 22.9524 46.3494 23.1531 46.266 23.3282C46.1825 23.5033 46.0345 23.6393 45.8529 23.7076L45.1229 23.9516L45.0909 23.9616C44.9515 24.0109 44.81 24.0542 44.6669 24.0916C44.0041 24.2486 43.3067 24.1541 42.7096 23.8264C42.1125 23.4987 41.6583 22.961 41.4349 22.3176C41.3892 22.1767 41.3495 22.0339 41.3159 21.8896L41.3079 21.8566C41.2884 21.7726 41.2664 21.6892 41.2419 21.6066C41.1646 21.3709 41.0189 21.1636 40.8233 21.011C40.6278 20.8584 40.3913 20.7674 40.1439 20.7496ZM37.0319 26.8726C37.1974 26.9829 37.3123 27.1545 37.3513 27.3495C37.3903 27.5445 37.3502 27.7471 37.2399 27.9126L34.2399 32.4126C34.1858 32.4957 34.1157 32.5673 34.0338 32.6231C33.9518 32.679 33.8596 32.7181 33.7625 32.7381C33.6653 32.758 33.5652 32.7586 33.4678 32.7396C33.3705 32.7206 33.2778 32.6825 33.1953 32.6275C33.1128 32.5725 33.042 32.5016 32.987 32.4191C32.9321 32.3365 32.894 32.2438 32.8751 32.1465C32.8562 32.0491 32.8568 31.949 32.8768 31.8518C32.8969 31.7547 32.936 31.6625 32.9919 31.5806L35.9919 27.0806C36.1022 26.9151 36.2738 26.8002 36.4688 26.7612C36.6639 26.7222 36.8664 26.7623 37.0319 26.8726Z" fill="white"/>
<path d="M57.827 18.5578C57.8225 19.2794 57.9354 19.9833 58.1656 20.6695C58.4003 21.3557 58.7367 21.9711 59.175 22.5156C59.6177 23.0557 60.1423 23.4719 60.7488 23.7641L59.8457 24.9461C59.2082 24.6229 58.6548 24.1625 58.1855 23.5648C57.7207 22.9672 57.3577 22.2766 57.0965 21.493C56.8264 22.3297 56.4457 23.069 55.9543 23.7109C55.4673 24.3484 54.8874 24.8354 54.2145 25.1719L53.3113 23.9898C53.9355 23.6932 54.4757 23.2616 54.9316 22.6949C55.3921 22.1238 55.7418 21.4797 55.9809 20.7625C56.2243 20.0409 56.3483 19.306 56.3527 18.5578V16.6453H57.827V18.5578ZM61.466 15.6758H62.9402V20.3773H64.7863V21.6391H62.9402V27.682H61.466V15.6758ZM74.7605 18.6109H76.4473V19.8461H74.7605V22.8211H73.2863V15.6891H74.7605V18.6109ZM65.7426 16.3H71.2277V19.8195H67.2301V21.1078C68.3236 21.1034 69.2488 21.079 70.0059 21.0348C70.7629 20.9861 71.5288 20.8953 72.3035 20.7625L72.4629 21.9312C71.6572 22.0818 70.8492 22.1836 70.0391 22.2367C69.2333 22.2898 68.2417 22.3164 67.0641 22.3164H66.7387H65.7559V18.7039H69.7801V17.482H65.7426V16.3ZM66.991 23.3523H74.7605V27.5359H66.991V23.3523ZM73.3129 26.3406V24.5078H68.4387V26.3406H73.3129ZM88.002 21.6523H77.0449V20.4836H88.002V21.6523ZM78.3332 22.4758H86.6207V25.4906H79.7941V26.407H86.9527V27.5625H78.3465V24.4281H85.173V23.5914H78.3332V22.4758ZM78.4395 15.9812H86.5941V17.1633H79.9137V18.5445H86.7004V19.7133H78.4395V15.9812ZM98.7863 27.6953H97.2988V15.6758H98.7863V27.6953ZM89.184 20.7891C89.184 19.9435 89.3168 19.1997 89.5824 18.5578C89.848 17.9159 90.2177 17.4223 90.6914 17.077C91.1695 16.7272 91.7118 16.5523 92.3184 16.5523C92.916 16.5523 93.4517 16.7272 93.9254 17.077C94.4035 17.4223 94.7776 17.9159 95.0477 18.5578C95.3177 19.1997 95.4527 19.9435 95.4527 20.7891C95.4527 21.6435 95.3177 22.3917 95.0477 23.0336C94.7776 23.6755 94.4035 24.1714 93.9254 24.5211C93.4517 24.8664 92.916 25.0391 92.3184 25.0391C91.7118 25.0391 91.1695 24.8664 90.6914 24.5211C90.2177 24.1714 89.848 23.6755 89.5824 23.0336C89.3168 22.3917 89.184 21.6435 89.184 20.7891ZM90.6051 20.7891C90.6051 21.3956 90.6759 21.918 90.8176 22.3562C90.9637 22.7945 91.1651 23.1288 91.4219 23.359C91.6786 23.5892 91.9775 23.7065 92.3184 23.7109C92.6548 23.7065 92.9514 23.5892 93.2082 23.359C93.465 23.1288 93.6642 22.7945 93.8059 22.3562C93.9475 21.918 94.0184 21.3956 94.0184 20.7891C94.0184 20.187 93.9475 19.669 93.8059 19.2352C93.6642 18.7969 93.465 18.4626 93.2082 18.2324C92.9514 17.9978 92.6548 17.8805 92.3184 17.8805C91.9775 17.8805 91.6786 17.9978 91.4219 18.2324C91.1651 18.4626 90.9637 18.7969 90.8176 19.2352C90.6759 19.669 90.6051 20.187 90.6051 20.7891ZM113.25 18.2656H114.923V19.4875H113.25V21.7187H111.775V15.6758H113.25V18.2656ZM104.192 16.4461H109.876V21.4H104.192V16.4461ZM104.922 22.7414H106.37V26.148C107.154 26.1038 107.849 25.982 108.455 25.7828L108.668 26.9383C108.185 27.1065 107.698 27.2172 107.207 27.2703C106.715 27.3279 106.166 27.3544 105.56 27.35H104.922V22.7414ZM108.429 20.2445V17.6016H105.639V20.2445H108.429ZM108.256 22.8742H110.567V21.9312H112.014V22.8742H114.299V23.9367H108.256V22.8742ZM108.986 25.982C108.982 25.6367 109.075 25.3379 109.265 25.0855C109.456 24.8288 109.723 24.634 110.069 24.5012C110.418 24.3639 110.819 24.2953 111.271 24.2953C111.718 24.2953 112.114 24.3639 112.459 24.5012C112.809 24.634 113.081 24.8288 113.276 25.0855C113.471 25.3379 113.568 25.6367 113.568 25.982C113.568 26.3185 113.471 26.6129 113.276 26.8652C113.081 27.1176 112.809 27.3124 112.459 27.4496C112.114 27.5868 111.718 27.6555 111.271 27.6555C110.815 27.6555 110.414 27.5868 110.069 27.4496C109.723 27.3124 109.456 27.1176 109.265 26.8652C109.075 26.6129 108.982 26.3185 108.986 25.982ZM110.301 25.9687C110.301 26.1857 110.39 26.3561 110.567 26.4801C110.744 26.5996 110.979 26.6594 111.271 26.6594C111.558 26.6594 111.791 26.5996 111.968 26.4801C112.149 26.3605 112.24 26.1945 112.24 25.982C112.24 25.7695 112.152 25.6035 111.975 25.484C111.798 25.3645 111.563 25.3047 111.271 25.3047C110.983 25.3047 110.748 25.3645 110.567 25.484C110.39 25.5991 110.301 25.7607 110.301 25.9687ZM125.521 27.6953H124.034V15.6758H125.521V27.6953ZM115.919 20.7891C115.919 19.9435 116.052 19.1997 116.318 18.5578C116.583 17.9159 116.953 17.4223 117.427 17.077C117.905 16.7272 118.447 16.5523 119.054 16.5523C119.651 16.5523 120.187 16.7272 120.661 17.077C121.139 17.4223 121.513 17.9159 121.783 18.5578C122.053 19.1997 122.188 19.9435 122.188 20.7891C122.188 21.6435 122.053 22.3917 121.783 23.0336C121.513 23.6755 121.139 24.1714 120.661 24.5211C120.187 24.8664 119.651 25.0391 119.054 25.0391C118.447 25.0391 117.905 24.8664 117.427 24.5211C116.953 24.1714 116.583 23.6755 116.318 23.0336C116.052 22.3917 115.919 21.6435 115.919 20.7891ZM117.34 20.7891C117.34 21.3956 117.411 21.918 117.553 22.3562C117.699 22.7945 117.9 23.1288 118.157 23.359C118.414 23.5892 118.713 23.7065 119.054 23.7109C119.39 23.7065 119.687 23.5892 119.943 23.359C120.2 23.1288 120.399 22.7945 120.541 22.3562C120.683 21.918 120.754 21.3956 120.754 20.7891C120.754 20.187 120.683 19.669 120.541 19.2352C120.399 18.7969 120.2 18.4626 119.943 18.2324C119.687 17.9978 119.39 17.8805 119.054 17.8805C118.713 17.8805 118.414 17.9978 118.157 18.2324C117.9 18.4626 117.699 18.7969 117.553 19.2352C117.411 19.669 117.34 20.187 117.34 20.7891ZM139.918 20.2312H141.764V21.4398H139.918V27.6953H138.444V15.6758H139.918V20.2312ZM131.007 16.818H136.625V18.0133H132.481V23.525C133.455 23.5206 134.331 23.4896 135.111 23.432C135.89 23.3745 136.678 23.2771 137.475 23.1398L137.647 24.3883C136.775 24.5388 135.916 24.6384 135.071 24.6871C134.225 24.7358 133.202 24.7602 132.003 24.7602H131.007V16.818ZM152.283 27.682H150.822V15.6758H152.283V27.682ZM142.96 16.8445H144.421V23.4055C146.311 23.3745 148.086 23.193 149.746 22.8609L149.932 24.0961C148.064 24.4857 146.085 24.676 143.996 24.6672H142.96V16.8445ZM163.745 20.2445H155.431V16.1141H156.892V19.0758H163.745V20.2445ZM154.01 21.6391H164.98V22.8078H154.01V21.6391ZM155.325 23.8703H156.799V26.2078H163.825V27.4031H155.325V23.8703ZM179.058 27.682H177.584V21.5727H175.047V20.3641H177.584V15.6758H179.058V27.682ZM168.925 24.3617C170.443 23.618 171.572 22.737 172.311 21.7187C173.051 20.7005 173.485 19.5008 173.613 18.1195H169.482V16.9508H175.1C175.096 18.1992 174.923 19.3414 174.582 20.3773C174.246 21.4089 173.679 22.3585 172.882 23.2262C172.09 24.0939 171.027 24.8576 169.695 25.5172L168.925 24.3617ZM190.759 27.6953H189.298V15.6758H190.759V27.6953ZM181.409 16.725H187.067V21.2273H182.936V23.6445C183.937 23.6357 184.862 23.6003 185.712 23.5383C186.562 23.4763 187.434 23.3701 188.329 23.2195L188.461 24.4281C187.532 24.5875 186.615 24.6982 185.712 24.7602C184.813 24.8221 183.813 24.8531 182.711 24.8531H182.471H181.422V20.0586H185.566V17.9203H181.409V16.725ZM202.513 24.3617H201.025V15.6891H202.513V24.3617ZM192.725 19.4742C192.725 18.9031 192.866 18.3896 193.15 17.9336C193.437 17.4776 193.827 17.1212 194.318 16.8645C194.814 16.6033 195.363 16.4727 195.965 16.4727C196.567 16.4727 197.114 16.6033 197.605 16.8645C198.101 17.1212 198.489 17.4776 198.768 17.9336C199.051 18.3896 199.193 18.9031 199.193 19.4742C199.193 20.0542 199.051 20.5743 198.768 21.0348C198.489 21.4908 198.101 21.8471 197.605 22.1039C197.114 22.3607 196.567 22.4891 195.965 22.4891C195.363 22.4891 194.814 22.3607 194.318 22.1039C193.827 21.8471 193.437 21.4908 193.15 21.0348C192.866 20.5743 192.725 20.0542 192.725 19.4742ZM194.172 19.4742C194.172 19.8195 194.248 20.1228 194.398 20.384C194.553 20.6452 194.766 20.8466 195.036 20.9883C195.31 21.1299 195.62 21.2008 195.965 21.2008C196.302 21.2008 196.605 21.1299 196.875 20.9883C197.145 20.8466 197.358 20.6452 197.513 20.384C197.667 20.1228 197.745 19.8195 197.745 19.4742C197.745 19.1378 197.667 18.8389 197.513 18.5777C197.358 18.3165 197.143 18.1151 196.868 17.9734C196.598 17.8318 196.297 17.7609 195.965 17.7609C195.624 17.7609 195.317 17.8318 195.042 17.9734C194.768 18.1151 194.553 18.3165 194.398 18.5777C194.248 18.8389 194.172 19.1378 194.172 19.4742ZM194.571 23.4852H196.058V26.2477H202.845V27.443H194.571V23.4852ZM213.669 20.3641H215.449V21.5992H213.669V27.6555H212.195V15.6758H213.669V20.3641ZM204.2 24.375C205.665 23.6445 206.794 22.7658 207.586 21.7387C208.379 20.7072 208.848 19.5096 208.994 18.1461H204.85V16.9242H210.495C210.486 20.8643 208.667 23.7286 205.036 25.5172L204.2 24.375ZM226.99 26.2211H216.02V25.0125H218.557V21.9777C218.07 21.6988 217.691 21.3469 217.421 20.9219C217.155 20.4969 217.025 20.0232 217.029 19.5008C217.029 18.8721 217.217 18.3187 217.594 17.8406C217.974 17.3581 218.504 16.9862 219.181 16.725C219.858 16.4594 220.624 16.3266 221.479 16.3266C222.337 16.3266 223.105 16.4594 223.783 16.725C224.465 16.9862 224.996 17.3581 225.377 17.8406C225.762 18.3187 225.954 18.8721 225.954 19.5008C225.959 20.0143 225.83 20.4792 225.569 20.8953C225.308 21.3115 224.941 21.6612 224.467 21.9445V25.0125H226.99V26.2211ZM218.477 19.5008C218.477 19.9036 218.601 20.2578 218.849 20.5633C219.101 20.8643 219.453 21.0967 219.905 21.2605C220.361 21.4243 220.885 21.5062 221.479 21.5062C222.072 21.5062 222.596 21.4243 223.052 21.2605C223.513 21.0967 223.869 20.8643 224.121 20.5633C224.378 20.2578 224.507 19.9036 224.507 19.5008C224.507 19.0935 224.378 18.7371 224.121 18.4316C223.869 18.1262 223.513 17.8937 223.052 17.7344C222.596 17.575 222.072 17.4953 221.479 17.4953C220.881 17.4953 220.354 17.575 219.898 17.7344C219.446 17.8937 219.097 18.1262 218.849 18.4316C218.601 18.7327 218.477 19.0891 218.477 19.5008ZM222.966 25.0125V22.509C222.497 22.6108 222.001 22.6617 221.479 22.6617C220.978 22.6617 220.491 22.613 220.018 22.5156V25.0125H222.966ZM229.806 23.5516C229.81 23.007 229.863 22.5665 229.965 22.2301C230.067 21.8936 230.209 21.6236 230.39 21.4199C230.576 21.2163 230.824 21.0193 231.134 20.8289C231.448 20.6253 231.694 20.4061 231.871 20.1715C232.048 19.9368 232.135 19.6646 232.13 19.3547C232.13 19.1112 232.073 18.8987 231.957 18.7172C231.847 18.5312 231.692 18.3874 231.493 18.2855C231.293 18.1837 231.072 18.1328 230.829 18.1328C230.603 18.1328 230.39 18.1815 230.191 18.2789C229.992 18.3763 229.828 18.5246 229.7 18.7238C229.571 18.923 229.5 19.1643 229.487 19.4477H227.827C227.84 18.8721 227.982 18.3829 228.252 17.9801C228.522 17.5728 228.881 17.2673 229.328 17.0637C229.779 16.8556 230.284 16.7516 230.842 16.7516C231.435 16.7516 231.96 16.8578 232.416 17.0703C232.876 17.2784 233.232 17.5772 233.485 17.9668C233.742 18.3564 233.87 18.8102 233.87 19.3281C233.866 19.8461 233.742 20.291 233.498 20.6629C233.259 21.0348 232.914 21.3557 232.462 21.6258C232.196 21.7896 231.984 21.9556 231.825 22.1238C231.67 22.2921 231.555 22.4891 231.479 22.7148C231.404 22.9406 231.364 23.2195 231.36 23.5516V23.6711H229.806V23.5516ZM229.593 25.5703C229.593 25.3888 229.64 25.2206 229.733 25.0656C229.826 24.9062 229.952 24.7801 230.111 24.6871C230.271 24.5941 230.443 24.5477 230.629 24.5477C230.811 24.5477 230.979 24.5941 231.134 24.6871C231.293 24.7801 231.42 24.9062 231.513 25.0656C231.605 25.2206 231.652 25.3888 231.652 25.5703C231.652 25.7562 231.605 25.9289 231.513 26.0883C231.42 26.2477 231.293 26.3738 231.134 26.4668C230.979 26.5598 230.811 26.6063 230.629 26.6063C230.443 26.6063 230.271 26.5598 230.111 26.4668C229.952 26.3738 229.826 26.2477 229.733 26.0883C229.64 25.9289 229.593 25.7562 229.593 25.5703Z" fill="white"/>
</g>
<defs>
<filter id="filter0_d_120_5213" x="0.466667" y="0.466667" width="267.067" height="43.0667" filterUnits="userSpaceOnUse" color-interpolation-filters="sRGB">
<feFlood flood-opacity="0" result="BackgroundImageFix"/>
<feColorMatrix in="SourceAlpha" type="matrix" values="0 0 0 0 0 0 0 0 0 0 0 0 0 0 0 0 0 0 127 0" result="hardAlpha"/>
<feOffset/>
<feGaussianBlur stdDeviation="2.26667"/>
<feComposite in2="hardAlpha" operator="out"/>
<feColorMatrix type="matrix" values="0 0 0 0 0 0 0 0 0 0 0 0 0 0 0 0 0 0 0.22 0"/>
<feBlend mode="normal" in2="BackgroundImageFix" result="effect1_dropShadow_120_5213"/>
<feBlend mode="normal" in="SourceGraphic" in2="effect1_dropShadow_120_5213" result="shape"/>
</filter>
</defs>
</svg>
