<svg width="119" height="34" viewBox="0 0 119 34" fill="none" xmlns="http://www.w3.org/2000/svg">
<rect x="0.5" y="0.5" width="118" height="33" rx="16.5" fill="white"/>
<path d="M14.1006 16.8544C14.3039 16.5625 14.6357 16.5773 14.931 16.5158C15.9806 16.2982 17.035 16.1028 18.0815 15.8714C19.2625 15.6105 20.1047 14.6541 20.2465 13.4418C20.3839 12.2678 20.5084 11.0919 20.6403 9.91691C20.6846 9.52017 20.7324 9.12343 20.7821 8.72767C20.8097 8.50912 20.9746 8.35752 21.172 8.35949C21.3733 8.36096 21.5392 8.50962 21.5633 8.72669C21.6647 9.63338 21.7499 10.542 21.8651 11.4468C21.9621 12.2063 21.9778 12.9786 22.1511 13.7253C22.4351 14.947 23.2311 15.6652 24.448 15.9202C25.5782 16.1564 26.7119 16.3774 27.8436 16.6083C28.1168 16.6639 28.2616 16.8126 28.2419 17.0218C28.2197 17.2615 28.0622 17.358 27.8353 17.4028C26.646 17.638 25.4562 17.8723 24.2718 18.1288C23.1017 18.3823 22.2392 19.3471 22.1033 20.5299C21.9498 21.8663 21.8065 23.2037 21.6578 24.5406C21.6298 24.7916 21.6002 25.0432 21.5628 25.2932C21.5308 25.5049 21.4058 25.6309 21.1867 25.6422C20.979 25.6531 20.8097 25.5118 20.7846 25.2937C20.6822 24.4023 20.5931 23.5089 20.4838 22.6184C20.3888 21.8417 20.3578 21.0556 20.1983 20.2887C19.9561 19.1246 19.0582 18.2967 17.8856 18.0781C16.7598 17.8684 15.6409 17.6218 14.5161 17.4077C14.3295 17.3722 14.2168 17.2704 14.0996 17.1498V16.8549L14.1006 16.8544ZM25.69 17.0296C25.6767 16.9524 25.6383 16.9602 25.6097 16.9543C24.9757 16.818 24.3235 16.7525 23.7106 16.5325C22.2653 16.0137 21.3359 14.7181 21.2694 13.1745C21.2606 12.9717 21.2222 12.7699 21.1971 12.5676C21.1075 12.8998 21.0666 13.2272 21.0268 13.5545C20.9165 14.4597 20.5138 15.2104 19.8438 15.8266C19.1822 16.4355 18.3621 16.656 17.509 16.8047C17.222 16.8544 16.9375 16.9194 16.652 16.9775C17.1728 17.1355 17.6887 17.2388 18.2041 17.3462C19.7021 17.6587 20.8515 18.9228 21.0268 20.4467C21.0622 20.7568 21.105 21.0664 21.1439 21.3761C21.2227 21.1846 21.2562 20.9906 21.2704 20.7947C21.3221 20.0815 21.519 19.417 21.9291 18.8263C22.5799 17.8891 23.5058 17.418 24.6114 17.2462C24.9737 17.1901 25.3316 17.1025 25.69 17.0292V17.0296Z" fill="#DF1515"/>
<path d="M31.5373 6.00023C31.6944 6.1287 31.7766 6.28277 31.7968 6.4964C31.8795 7.38094 31.9927 8.26252 32.0744 9.14756C32.1448 9.91347 32.3796 10.5701 33.1342 10.9161C33.5079 11.0874 33.9214 11.1111 34.3162 11.2031C34.7828 11.3114 35.253 11.4064 35.7236 11.4989C35.9544 11.5442 36.1036 11.6624 36.1006 11.9041C36.0977 12.1334 35.9534 12.2442 35.7319 12.289C34.966 12.4445 34.2005 12.6015 33.438 12.7733C32.7242 12.9343 32.2058 13.5279 32.1261 14.2486C32.0104 15.2945 31.8967 16.3405 31.7825 17.3865C31.7559 17.6287 31.6107 17.7788 31.398 17.7833C31.1819 17.7877 31.0259 17.6415 30.9993 17.4018C30.8831 16.3474 30.7665 15.2926 30.6537 14.2377C30.5799 13.5471 30.0428 12.9279 29.3561 12.7748C28.5941 12.605 27.8296 12.446 27.0646 12.29C26.8352 12.2432 26.6807 12.1275 26.6816 11.8893C26.6826 11.6629 26.8313 11.5457 27.0499 11.5004C27.8139 11.3424 28.5788 11.1883 29.3389 11.0146C30.0793 10.8453 30.5843 10.2226 30.6601 9.46554C30.761 8.45942 30.8885 7.45576 30.9895 6.44914C31.0096 6.24881 31.1017 6.11787 31.243 6.00023H31.5378L31.5373 6.00023ZM31.3897 13.8459C31.7653 12.6897 32.5297 12.0862 33.6467 11.8917C32.5002 11.7003 31.7554 11.0717 31.3887 9.93562C31.0293 11.0722 30.2786 11.6914 29.1494 11.8952C30.2648 12.0906 31.0106 12.6985 31.3897 13.8459Z" fill="#DF1515"/>
<path d="M33.7506 23.2943C33.7274 23.505 33.6132 23.6345 33.403 23.6773C32.8448 23.791 32.2876 23.9111 31.7274 24.0159C30.8964 24.1715 30.5253 24.5953 30.4514 25.4385C30.3869 26.1773 30.2934 26.9137 30.2077 27.6506C30.1831 27.8647 30.0113 28.006 29.8056 27.9996C29.5978 27.9932 29.4546 27.8544 29.4275 27.6235C29.3335 26.8217 29.2552 26.0178 29.1449 25.2185C29.0485 24.5195 28.6719 24.1557 27.9798 24.0218C27.4053 23.9106 26.8323 23.792 26.2583 23.6797C26.0388 23.6369 25.8955 23.5168 25.8955 23.2884C25.8955 23.0605 26.0388 22.9384 26.2578 22.8951C26.8229 22.7824 27.3871 22.6613 27.9532 22.5545C28.7231 22.4093 29.1134 21.9584 29.1838 21.1664C29.2503 20.4197 29.3414 19.6745 29.4305 18.9297C29.4556 18.7195 29.5919 18.592 29.8065 18.5763C30.0049 18.5615 30.1817 18.7161 30.2068 18.9312C30.2934 19.6671 30.3791 20.4034 30.4539 21.1408C30.5267 21.8555 30.7586 22.429 31.8962 22.6032C32.3944 22.6795 32.8857 22.7991 33.3809 22.8956C33.6019 22.9389 33.724 23.0674 33.7506 23.2943ZM29.8203 21.9771C29.523 22.6495 29.0544 23.0699 28.3278 23.2919C29.0608 23.5006 29.5225 23.9263 29.8203 24.5953C30.0985 23.919 30.5843 23.5203 31.274 23.2855C30.574 23.0556 30.1098 22.6505 29.8203 21.9771Z" fill="#DF1515"/>
<path d="M53.3527 17.8078H51.8785V14.8727H49.8332V13.6641H51.8785V10.6758H53.3527V17.8078ZM43.259 16.6125C43.8832 16.4 44.4167 16.0923 44.8594 15.6895C45.3065 15.2866 45.643 14.8306 45.8688 14.3215C46.0945 13.8124 46.2074 13.2878 46.2074 12.7477V12.6547H43.7105V11.4594H50.1918V12.6547H47.7082V12.7344C47.7082 13.2302 47.8167 13.7128 48.0336 14.182C48.2505 14.6469 48.5715 15.0652 48.9965 15.4371C49.4215 15.8046 49.935 16.0901 50.5371 16.2937L49.7934 17.4625C49.1426 17.2411 48.5803 16.9158 48.1066 16.4863C47.6329 16.0525 47.2589 15.5456 46.9844 14.9656C46.7143 15.6208 46.3292 16.1919 45.8289 16.6789C45.3286 17.1659 44.7288 17.5333 44.0293 17.7812L43.259 16.6125ZM45.2113 20.3977C45.2069 19.924 45.3685 19.5167 45.6961 19.1758C46.0237 18.8305 46.493 18.5671 47.1039 18.3855C47.7193 18.204 48.4475 18.1133 49.2887 18.1133C50.1342 18.1133 50.8647 18.204 51.4801 18.3855C52.0954 18.5671 52.5669 18.8283 52.8945 19.1691C53.2266 19.51 53.3926 19.9195 53.3926 20.3977C53.3926 20.8758 53.2266 21.2853 52.8945 21.6262C52.5669 21.9671 52.0954 22.2283 51.4801 22.4098C50.8647 22.5913 50.1342 22.682 49.2887 22.682C48.4475 22.682 47.7193 22.5913 47.1039 22.4098C46.493 22.2283 46.0237 21.9648 45.6961 21.6195C45.3685 21.2786 45.2069 20.8714 45.2113 20.3977ZM46.6723 20.3977C46.6678 20.7651 46.8892 21.0484 47.3363 21.2477C47.7879 21.4424 48.4254 21.5398 49.2488 21.5398C50.1077 21.5398 50.7673 21.4424 51.2277 21.2477C51.6882 21.0529 51.9184 20.7695 51.9184 20.3977C51.9184 20.0258 51.6904 19.7402 51.2344 19.541C50.7828 19.3418 50.1342 19.2422 49.2887 19.2422C48.452 19.2422 47.8056 19.3418 47.3496 19.541C46.8936 19.7402 46.6678 20.0258 46.6723 20.3977ZM66.0098 18.0469H55.0527V16.8648H59.7809V15.5633H56.3941V11.2734H64.6816V12.4687H57.8684V14.368H64.7879V15.5633H61.2684V16.8648H66.0098V18.0469ZM56.4074 18.95H57.8551V21.2477H64.8676V22.443H56.4074V18.95ZM73.7926 15.6297H71.5613V16.991C72.6238 16.9467 73.6022 16.8781 74.4965 16.7852L74.6027 17.8477C73.4473 18.007 72.2409 18.1177 70.9836 18.1797C69.7307 18.2372 68.4225 18.2682 67.059 18.2727L66.8598 17.0906C68.272 17.0818 69.3434 17.0663 70.0738 17.0441V15.6297H67.8957V11.4195H73.6996V12.6148H69.3832V14.4477H73.7926V15.6297ZM68.7723 19.0297H70.2598V21.2477H77.166V22.443H68.7723V19.0297ZM75.3332 10.6758H76.8207V19.6937H75.3332V10.6758ZM91.8418 22.682H90.3676V16.5727H87.8309V15.3641H90.3676V10.6758H91.8418V22.682ZM81.7082 19.3617C83.2267 18.618 84.3556 17.737 85.0949 16.7187C85.8342 15.7005 86.2681 14.5008 86.3965 13.1195H82.266V11.9508H87.884C87.8796 13.1992 87.7069 14.3414 87.366 15.3773C87.0296 16.4089 86.4629 17.3585 85.666 18.2262C84.8736 19.0939 83.8111 19.8576 82.4785 20.5172L81.7082 19.3617ZM103.543 22.6953H102.082V10.6758H103.543V22.6953ZM94.1926 11.725H99.8504V16.2273H95.7199V18.6445C96.7204 18.6357 97.6457 18.6003 98.4957 18.5383C99.3457 18.4763 100.218 18.3701 101.112 18.2195L101.245 19.4281C100.315 19.5875 99.3988 19.6982 98.4957 19.7602C97.597 19.8221 96.5965 19.8531 95.4941 19.8531H95.2551H94.2059V15.0586H98.3496V12.9203H94.1926V11.725Z" fill="#DF1515"/>
<rect x="0.5" y="0.5" width="118" height="33" rx="16.5" stroke="#F2F2F2"/>
</svg>
