<svg width="132" height="34" viewBox="0 0 132 34" fill="none" xmlns="http://www.w3.org/2000/svg">
<rect x="0.5" y="0.5" width="131" height="33" rx="16.5" fill="white"/>
<path fill-rule="evenodd" clip-rule="evenodd" d="M23.6159 7.74657C23.3861 7.74657 23.1585 7.79183 22.9462 7.87978C22.7339 7.96772 22.541 8.09663 22.3785 8.25913C22.216 8.42163 22.0871 8.61455 21.9991 8.82687C21.9112 9.03919 21.8659 9.26675 21.8659 9.49657C21.8659 9.72638 21.9112 9.95394 21.9991 10.1663C22.0871 10.3786 22.216 10.5715 22.3785 10.734C22.541 10.8965 22.7339 11.0254 22.9462 11.1134C23.1585 11.2013 23.3861 11.2466 23.6159 11.2466C24.08 11.2466 24.5252 11.0622 24.8533 10.734C25.1815 10.4058 25.3659 9.9607 25.3659 9.49657C25.3659 9.03244 25.1815 8.58732 24.8533 8.25913C24.5252 7.93094 24.08 7.74657 23.6159 7.74657ZM20.3659 9.49657C20.3659 8.63461 20.7083 7.80796 21.3178 7.19847C21.9273 6.58898 22.7539 6.24657 23.6159 6.24657C24.4779 6.24657 25.3045 6.58898 25.914 7.19847C26.5235 7.80796 26.8659 8.63461 26.8659 9.49657C26.8659 10.3585 26.5235 11.1852 25.914 11.7947C25.3045 12.4042 24.4779 12.7466 23.6159 12.7466C22.7539 12.7466 21.9273 12.4042 21.3178 11.7947C20.7083 11.1852 20.3659 10.3585 20.3659 9.49657ZM24.6439 15.7496C24.558 15.746 24.4719 15.745 24.3859 15.7466H23.2949L23.2039 16.6586C23.0299 18.3986 22.9689 19.0986 23.1239 19.7596C23.2799 20.4216 23.6459 21.0206 24.5769 22.5016L27.1509 26.5976C27.254 26.7659 27.2866 26.9681 27.2416 27.1604C27.1965 27.3526 27.0775 27.5193 26.9104 27.6243C26.7432 27.7294 26.5414 27.7642 26.3486 27.7214C26.1559 27.6786 25.9878 27.5615 25.8809 27.3956L23.3069 23.2996L23.2339 23.1836C22.3989 21.8566 21.8839 21.0376 21.6639 20.1036C21.4439 19.1686 21.5409 18.2056 21.6979 16.6446L21.7109 16.5086L21.7869 15.7476C21.2869 15.7506 20.9149 15.7596 20.6169 15.7966C20.2389 15.8416 20.0629 15.9216 19.9379 16.0216C19.8139 16.1216 19.6979 16.2756 19.5709 16.6346C19.4379 17.0116 19.3229 17.5226 19.1519 18.2916L18.8479 19.6596C18.8024 19.8514 18.6832 20.0175 18.5162 20.1222C18.3491 20.2268 18.1475 20.2614 17.9551 20.2185C17.7627 20.1757 17.5949 20.0588 17.488 19.8932C17.3811 19.7276 17.3437 19.5265 17.3839 19.3336L17.6979 17.9226C17.8559 17.2086 17.9899 16.6086 18.1569 16.1346C18.3339 15.6326 18.5759 15.1916 18.9999 14.8516C19.4239 14.5116 19.9059 14.3716 20.4349 14.3066C20.9339 14.2466 21.5489 14.2466 22.2799 14.2466H24.4109C24.5469 14.2466 24.6519 14.2466 24.7509 14.2536C25.2956 14.2926 25.8164 14.4929 26.2468 14.8289C26.6773 15.165 26.9979 15.6216 27.1679 16.1406C27.1979 16.2346 27.2239 16.3376 27.2579 16.4696L27.2629 16.4936C27.3189 16.7176 27.3359 16.7816 27.3519 16.8256C27.5619 17.4316 28.1969 17.7806 28.8209 17.6326C28.8669 17.6226 28.9299 17.6016 29.1489 17.5286L29.8789 17.2856C30.0651 17.2313 30.2652 17.2512 30.437 17.3412C30.6088 17.4313 30.7391 17.5844 30.8004 17.7684C30.8618 17.9524 30.8494 18.1531 30.766 18.3282C30.6825 18.5033 30.5345 18.6393 30.3529 18.7076L29.6229 18.9516L29.5909 18.9616C29.4515 19.0109 29.31 19.0542 29.1669 19.0916C28.5041 19.2486 27.8067 19.1541 27.2096 18.8264C26.6125 18.4987 26.1583 17.961 25.9349 17.3176C25.8892 17.1767 25.8495 17.0339 25.8159 16.8896L25.8079 16.8566C25.7884 16.7726 25.7664 16.6892 25.7419 16.6066C25.6646 16.3709 25.5189 16.1636 25.3233 16.011C25.1278 15.8584 24.8913 15.7674 24.6439 15.7496ZM21.5319 21.8726C21.6974 21.9829 21.8123 22.1545 21.8513 22.3495C21.8903 22.5445 21.8502 22.7471 21.7399 22.9126L18.7399 27.4126C18.6858 27.4957 18.6157 27.5673 18.5338 27.6231C18.4518 27.679 18.3596 27.7181 18.2625 27.738C18.1653 27.758 18.0652 27.7585 17.9678 27.7396C17.8705 27.7206 17.7778 27.6825 17.6953 27.6275C17.6128 27.5724 17.542 27.5016 17.487 27.419C17.4321 27.3365 17.394 27.2438 17.3751 27.1465C17.3562 27.0491 17.3568 26.949 17.3768 26.8518C17.3969 26.7547 17.436 26.6625 17.4919 26.5806L20.4919 22.0806C20.6022 21.9151 20.7738 21.8002 20.9688 21.7612C21.1639 21.7222 21.3664 21.7622 21.5319 21.8726Z" fill="#FFC700"/>
<path d="M42.327 13.5578C42.3225 14.2794 42.4354 14.9833 42.6656 15.6695C42.9003 16.3557 43.2367 16.9711 43.675 17.5156C44.1177 18.0557 44.6423 18.4719 45.2488 18.7641L44.3457 19.9461C43.7082 19.6229 43.1548 19.1625 42.6855 18.5648C42.2207 17.9672 41.8577 17.2766 41.5965 16.493C41.3264 17.3297 40.9457 18.069 40.4543 18.7109C39.9673 19.3484 39.3874 19.8354 38.7145 20.1719L37.8113 18.9898C38.4355 18.6932 38.9757 18.2616 39.4316 17.6949C39.8921 17.1238 40.2418 16.4797 40.4809 15.7625C40.7243 15.0409 40.8483 14.306 40.8527 13.5578V11.6453H42.327V13.5578ZM45.966 10.6758H47.4402V15.3773H49.2863V16.6391H47.4402V22.682H45.966V10.6758ZM59.2605 13.6109H60.9473V14.8461H59.2605V17.8211H57.7863V10.6891H59.2605V13.6109ZM50.2426 11.3H55.7277V14.8195H51.7301V16.1078C52.8236 16.1034 53.7488 16.079 54.5059 16.0348C55.2629 15.9861 56.0288 15.8953 56.8035 15.7625L56.9629 16.9312C56.1572 17.0818 55.3492 17.1836 54.5391 17.2367C53.7333 17.2898 52.7417 17.3164 51.5641 17.3164H51.2387H50.2559V13.7039H54.2801V12.482H50.2426V11.3ZM51.491 18.3523H59.2605V22.5359H51.491V18.3523ZM57.8129 21.3406V19.5078H52.9387V21.3406H57.8129ZM74.2418 13.2656H75.9152V14.4875H74.2418V16.7187H72.7676V10.6758H74.2418V13.2656ZM65.184 11.4461H70.8684V16.4H65.184V11.4461ZM65.9145 17.7414H67.3621V21.148C68.1457 21.1038 68.8408 20.982 69.4473 20.7828L69.6598 21.9383C69.1772 22.1065 68.6902 22.2172 68.1988 22.2703C67.7074 22.3279 67.1585 22.3544 66.552 22.35H65.9145V17.7414ZM69.4207 15.2445V12.6016H66.6316V15.2445H69.4207ZM69.248 17.8742H71.559V16.9312H73.0066V17.8742H75.291V18.9367H69.248V17.8742ZM69.9785 20.982C69.9741 20.6367 70.0671 20.3379 70.2574 20.0855C70.4478 19.8288 70.7156 19.634 71.0609 19.5012C71.4107 19.3639 71.8113 19.2953 72.2629 19.2953C72.71 19.2953 73.1063 19.3639 73.4516 19.5012C73.8013 19.634 74.0736 19.8288 74.2684 20.0855C74.4632 20.3379 74.5605 20.6367 74.5605 20.982C74.5605 21.3185 74.4632 21.6129 74.2684 21.8652C74.0736 22.1176 73.8013 22.3124 73.4516 22.4496C73.1063 22.5868 72.71 22.6555 72.2629 22.6555C71.8069 22.6555 71.4063 22.5868 71.0609 22.4496C70.7156 22.3124 70.4478 22.1176 70.2574 21.8652C70.0671 21.6129 69.9741 21.3185 69.9785 20.982ZM71.2934 20.9687C71.2934 21.1857 71.3819 21.3561 71.559 21.4801C71.7361 21.5996 71.9707 21.6594 72.2629 21.6594C72.5507 21.6594 72.7831 21.5996 72.9602 21.4801C73.1417 21.3605 73.2324 21.1945 73.2324 20.982C73.2324 20.7695 73.1439 20.6035 72.9668 20.484C72.7897 20.3645 72.5551 20.3047 72.2629 20.3047C71.9751 20.3047 71.7405 20.3645 71.559 20.484C71.3819 20.5991 71.2934 20.7607 71.2934 20.9687ZM87.4699 18.0602H76.5262V16.8781H87.4699V18.0602ZM77.6551 13.4914C77.6551 12.9911 77.8322 12.5573 78.1863 12.1898C78.5449 11.8224 79.0496 11.5435 79.7004 11.3531C80.3512 11.1583 81.1126 11.0609 81.9848 11.0609C82.8525 11.0609 83.6117 11.1583 84.2625 11.3531C84.9177 11.5435 85.4224 11.8224 85.7766 12.1898C86.1352 12.5573 86.3145 12.9911 86.3145 13.4914C86.3145 13.9961 86.1352 14.4344 85.7766 14.8062C85.4224 15.1737 84.9177 15.457 84.2625 15.6562C83.6117 15.851 82.8525 15.9484 81.9848 15.9484C81.1126 15.9484 80.3512 15.851 79.7004 15.6562C79.0496 15.457 78.5449 15.1737 78.1863 14.8062C77.8322 14.4344 77.6551 13.9961 77.6551 13.4914ZM77.8809 18.95H79.3551V21.2477H86.2348V22.443H77.8809V18.95ZM79.1957 13.4914C79.1913 13.8943 79.4303 14.2042 79.9129 14.4211C80.3999 14.6336 81.0772 14.7398 81.9449 14.7398C82.848 14.7398 83.5475 14.6336 84.0434 14.4211C84.5392 14.2086 84.7871 13.8987 84.7871 13.4914C84.7871 13.0974 84.5392 12.7919 84.0434 12.575C83.552 12.3536 82.8658 12.243 81.9848 12.243C81.4048 12.243 80.9046 12.2917 80.484 12.3891C80.0634 12.4865 79.7424 12.6303 79.5211 12.8207C79.2997 13.0066 79.1913 13.2302 79.1957 13.4914ZM101.561 22.682H100.087V16.5727H97.5504V15.3641H100.087V10.6758H101.561V22.682ZM91.4277 19.3617C92.9462 18.618 94.0751 17.737 94.8145 16.7187C95.5538 15.7005 95.9876 14.5008 96.116 13.1195H91.9855V11.9508H97.6035C97.5991 13.1992 97.4264 14.3414 97.0855 15.3773C96.7491 16.4089 96.1824 17.3585 95.3855 18.2262C94.5931 19.0939 93.5306 19.8576 92.198 20.5172L91.4277 19.3617ZM113.262 22.6953H111.801V10.6758H113.262V22.6953ZM103.912 11.725H109.57V16.2273H105.439V18.6445C106.44 18.6357 107.365 18.6003 108.215 18.5383C109.065 18.4763 109.937 18.3701 110.832 18.2195L110.964 19.4281C110.035 19.5875 109.118 19.6982 108.215 19.7602C107.317 19.8221 106.316 19.8531 105.214 19.8531H104.975H103.925V15.0586H108.069V12.9203H103.912V11.725Z" fill="#FFC700"/>
<rect x="0.5" y="0.5" width="131" height="33" rx="16.5" stroke="#F2F2F2"/>
</svg>
