<svg width="268" height="44" viewBox="0 0 268 44" fill="none" xmlns="http://www.w3.org/2000/svg">
<g filter="url(#filter0_d_120_5209)">
<rect x="5" y="5" width="258" height="34" rx="17" fill="#8000FF" shape-rendering="crispEdges"/>
<path d="M62.2471 32H66.9529M64.6 13.1765V12M70.4824 15.5294L71.6588 14.3529M58.7176 15.5294L57.5412 14.3529M70.4824 26.1176L71.6588 27.2941M58.7176 26.1176L57.5412 27.2941M56.3647 20.2353H55.1882M74.0118 20.2353H72.8353M64.6 16.1176C65.7945 16.1169 66.9541 16.5201 67.8904 17.2618C68.8268 18.0035 69.4848 19.04 69.7575 20.2029C70.0302 21.3659 69.9017 22.5869 69.3928 23.6675C68.8838 24.7481 68.0244 25.6249 66.9541 26.1553L66.9529 27.2941C66.9529 27.9182 66.705 28.5166 66.2638 28.9579C65.8225 29.3992 65.224 29.6471 64.6 29.6471C63.976 29.6471 63.3775 29.3992 62.9362 28.9579C62.495 28.5166 62.2471 27.9182 62.2471 27.2941V26.1553C61.1769 25.6249 60.3175 24.7483 59.8085 23.6678C59.2996 22.5872 59.1709 21.3664 59.4435 20.2035C59.7161 19.0407 60.3739 18.0041 61.31 17.2624C62.2462 16.5206 63.4056 16.1172 64.6 16.1176Z" stroke="white" stroke-width="1.17647" stroke-linecap="round" stroke-linejoin="round"/>
<path d="M92.154 23.5648H87.386V27.6688H85.925V23.5648H81.2102V22.3695H92.154V23.5648ZM81.7813 20.4039C82.5472 20.3065 83.229 20.1139 83.8266 19.8262C84.4287 19.5384 84.9024 19.1931 85.2477 18.7902C85.5974 18.3829 85.79 17.9602 85.8254 17.5219H82.2196V16.3531H91.1446V17.5219H87.5387C87.5741 17.9602 87.7623 18.3829 88.1032 18.7902C88.4485 19.1931 88.9222 19.5384 89.5243 19.8262C90.1264 20.1139 90.8125 20.3065 91.5829 20.4039L91.0516 21.5594C90.0334 21.4133 89.1413 21.1189 88.3754 20.6762C87.614 20.2335 87.0495 19.6867 86.6821 19.0359C86.3102 19.6867 85.7458 20.2335 84.9887 20.6762C84.2317 21.1189 83.3485 21.4133 82.3391 21.5594L81.7813 20.4039ZM103.018 24.5477H101.544V21.5328H99.1266V22.5953H93.5086V16.4727H94.9829V18.4117H97.6657V16.4727H99.1266V17.7609H101.544V15.6891H103.018V24.5477ZM97.6657 21.4266V19.5539H94.9829V21.4266H97.6657ZM95.1024 23.6711H96.6032V26.2477H103.284V27.443H95.1024V23.6711ZM101.544 20.3375V18.9562H99.1266V20.3375H101.544ZM114.706 27.6953H113.218V15.6758H114.706V27.6953ZM105.103 20.7891C105.103 19.9435 105.236 19.1997 105.502 18.5578C105.767 17.9159 106.137 17.4223 106.611 17.077C107.089 16.7272 107.631 16.5523 108.238 16.5523C108.835 16.5523 109.371 16.7272 109.845 17.077C110.323 17.4223 110.697 17.9159 110.967 18.5578C111.237 19.1997 111.372 19.9435 111.372 20.7891C111.372 21.6435 111.237 22.3917 110.967 23.0336C110.697 23.6755 110.323 24.1714 109.845 24.5211C109.371 24.8664 108.835 25.0391 108.238 25.0391C107.631 25.0391 107.089 24.8664 106.611 24.5211C106.137 24.1714 105.767 23.6755 105.502 23.0336C105.236 22.3917 105.103 21.6435 105.103 20.7891ZM106.524 20.7891C106.524 21.3956 106.595 21.918 106.737 22.3562C106.883 22.7945 107.084 23.1288 107.341 23.359C107.598 23.5892 107.897 23.7065 108.238 23.7109C108.574 23.7065 108.871 23.5892 109.127 23.359C109.384 23.1288 109.583 22.7945 109.725 22.3562C109.867 21.918 109.938 21.3956 109.938 20.7891C109.938 20.187 109.867 19.669 109.725 19.2352C109.583 18.7969 109.384 18.4626 109.127 18.2324C108.871 17.9978 108.574 17.8805 108.238 17.8805C107.897 17.8805 107.598 17.9978 107.341 18.2324C107.084 18.4626 106.883 18.7969 106.737 19.2352C106.595 19.669 106.524 20.187 106.524 20.7891ZM121.572 17.8539H124.374V16.2602H125.835V21.5992H120.111V16.2602H121.572V17.8539ZM120.828 22.6086H124.839V25.557H122.302V26.4469C123.144 26.4469 123.794 26.4314 124.255 26.4004C124.715 26.365 125.167 26.2964 125.609 26.1945L125.756 27.2969C125.264 27.3987 124.764 27.4651 124.255 27.4961C123.75 27.5315 123.013 27.5492 122.043 27.5492H121.625H120.855V24.5211H123.405V23.7242H120.828V22.6086ZM124.374 20.4305V18.9562H121.572V20.4305H124.374ZM125.357 22.6086H129.169V27.6156H127.708V23.7773H125.357V22.6086ZM127.695 15.6758H129.169V18.1594H130.842V19.3812H129.169V22.0641H127.695V15.6758ZM142.397 23.0602H131.453V21.8781H142.397V23.0602ZM132.582 18.4914C132.582 17.9911 132.759 17.5573 133.113 17.1898C133.472 16.8224 133.977 16.5435 134.627 16.3531C135.278 16.1583 136.04 16.0609 136.912 16.0609C137.779 16.0609 138.539 16.1583 139.19 16.3531C139.845 16.5435 140.349 16.8224 140.704 17.1898C141.062 17.5573 141.241 17.9911 141.241 18.4914C141.241 18.9961 141.062 19.4344 140.704 19.8062C140.349 20.1737 139.845 20.457 139.19 20.6562C138.539 20.851 137.779 20.9484 136.912 20.9484C136.04 20.9484 135.278 20.851 134.627 20.6562C133.977 20.457 133.472 20.1737 133.113 19.8062C132.759 19.4344 132.582 18.9961 132.582 18.4914ZM132.808 23.95H134.282V26.2477H141.162V27.443H132.808V23.95ZM134.123 18.4914C134.118 18.8943 134.357 19.2042 134.84 19.4211C135.327 19.6336 136.004 19.7398 136.872 19.7398C137.775 19.7398 138.475 19.6336 138.97 19.4211C139.466 19.2086 139.714 18.8987 139.714 18.4914C139.714 18.0974 139.466 17.7919 138.97 17.575C138.479 17.3536 137.793 17.243 136.912 17.243C136.332 17.243 135.832 17.2917 135.411 17.3891C134.99 17.4865 134.669 17.6303 134.448 17.8207C134.227 18.0066 134.118 18.2302 134.123 18.4914ZM156.488 27.682H155.014V21.5727H152.477V20.3641H155.014V15.6758H156.488V27.682ZM146.355 24.3617C147.873 23.618 149.002 22.737 149.741 21.7187C150.481 20.7005 150.915 19.5008 151.043 18.1195H146.913V16.9508H152.531C152.526 18.1992 152.353 19.3414 152.013 20.3773C151.676 21.4089 151.109 22.3585 150.313 23.2262C149.52 24.0939 148.458 24.8576 147.125 25.5172L146.355 24.3617ZM168.189 27.6953H166.728V15.6758H168.189V27.6953ZM158.839 16.725H164.497V21.2273H160.366V23.6445C161.367 23.6357 162.292 23.6003 163.142 23.5383C163.992 23.4763 164.864 23.3701 165.759 23.2195L165.891 24.4281C164.962 24.5875 164.045 24.6982 163.142 24.7602C162.244 24.8221 161.243 24.8531 160.141 24.8531H159.902H158.852V20.0586H162.996V17.9203H158.839V16.725ZM179.943 24.3617H178.456V15.6891H179.943V24.3617ZM170.155 19.4742C170.155 18.9031 170.296 18.3896 170.58 17.9336C170.867 17.4776 171.257 17.1212 171.748 16.8645C172.244 16.6033 172.793 16.4727 173.395 16.4727C173.997 16.4727 174.544 16.6033 175.036 16.8645C175.531 17.1212 175.919 17.4776 176.198 17.9336C176.481 18.3896 176.623 18.9031 176.623 19.4742C176.623 20.0542 176.481 20.5743 176.198 21.0348C175.919 21.4908 175.531 21.8471 175.036 22.1039C174.544 22.3607 173.997 22.4891 173.395 22.4891C172.793 22.4891 172.244 22.3607 171.748 22.1039C171.257 21.8471 170.867 21.4908 170.58 21.0348C170.296 20.5743 170.155 20.0542 170.155 19.4742ZM171.602 19.4742C171.602 19.8195 171.678 20.1228 171.828 20.384C171.983 20.6452 172.196 20.8466 172.466 20.9883C172.74 21.1299 173.05 21.2008 173.395 21.2008C173.732 21.2008 174.035 21.1299 174.305 20.9883C174.575 20.8466 174.788 20.6452 174.943 20.384C175.098 20.1228 175.175 19.8195 175.175 19.4742C175.175 19.1378 175.098 18.8389 174.943 18.5777C174.788 18.3165 174.573 18.1151 174.298 17.9734C174.028 17.8318 173.727 17.7609 173.395 17.7609C173.054 17.7609 172.747 17.8318 172.472 17.9734C172.198 18.1151 171.983 18.3165 171.828 18.5777C171.678 18.8389 171.602 19.1378 171.602 19.4742ZM172.001 23.4852H173.488V26.2477H180.275V27.443H172.001V23.4852ZM191.099 20.3641H192.879V21.5992H191.099V27.6555H189.625V15.6758H191.099V20.3641ZM181.63 24.375C183.095 23.6445 184.224 22.7658 185.016 21.7387C185.809 20.7072 186.278 19.5096 186.424 18.1461H182.281V16.9242H187.925C187.916 20.8643 186.097 23.7286 182.466 25.5172L181.63 24.375ZM204.42 26.2211H193.45V25.0125H195.987V21.9777C195.5 21.6988 195.121 21.3469 194.851 20.9219C194.586 20.4969 194.455 20.0232 194.459 19.5008C194.459 18.8721 194.648 18.3187 195.024 17.8406C195.405 17.3581 195.934 16.9862 196.611 16.725C197.288 16.4594 198.054 16.3266 198.909 16.3266C199.767 16.3266 200.536 16.4594 201.213 16.725C201.895 16.9862 202.426 17.3581 202.807 17.8406C203.192 18.3187 203.384 18.8721 203.384 19.5008C203.389 20.0143 203.26 20.4792 202.999 20.8953C202.738 21.3115 202.371 21.6612 201.897 21.9445V25.0125H204.42V26.2211ZM195.907 19.5008C195.907 19.9036 196.031 20.2578 196.279 20.5633C196.531 20.8643 196.883 21.0967 197.335 21.2605C197.791 21.4243 198.315 21.5062 198.909 21.5062C199.502 21.5062 200.026 21.4243 200.482 21.2605C200.943 21.0967 201.299 20.8643 201.552 20.5633C201.808 20.2578 201.937 19.9036 201.937 19.5008C201.937 19.0935 201.808 18.7371 201.552 18.4316C201.299 18.1262 200.943 17.8937 200.482 17.7344C200.026 17.575 199.502 17.4953 198.909 17.4953C198.311 17.4953 197.784 17.575 197.328 17.7344C196.877 17.8937 196.527 18.1262 196.279 18.4316C196.031 18.7327 195.907 19.0891 195.907 19.5008ZM200.396 25.0125V22.509C199.927 22.6108 199.431 22.6617 198.909 22.6617C198.408 22.6617 197.921 22.613 197.448 22.5156V25.0125H200.396ZM207.236 23.5516C207.24 23.007 207.294 22.5665 207.395 22.2301C207.497 21.8936 207.639 21.6236 207.82 21.4199C208.006 21.2163 208.254 21.0193 208.564 20.8289C208.878 20.6253 209.124 20.4061 209.301 20.1715C209.478 19.9368 209.565 19.6646 209.56 19.3547C209.56 19.1112 209.503 18.8987 209.388 18.7172C209.277 18.5312 209.122 18.3874 208.923 18.2855C208.723 18.1837 208.502 18.1328 208.259 18.1328C208.033 18.1328 207.82 18.1815 207.621 18.2789C207.422 18.3763 207.258 18.5246 207.13 18.7238C207.001 18.923 206.931 19.1643 206.917 19.4477H205.257C205.27 18.8721 205.412 18.3829 205.682 17.9801C205.952 17.5728 206.311 17.2673 206.758 17.0637C207.209 16.8556 207.714 16.7516 208.272 16.7516C208.865 16.7516 209.39 16.8578 209.846 17.0703C210.306 17.2784 210.663 17.5772 210.915 17.9668C211.172 18.3564 211.3 18.8102 211.3 19.3281C211.296 19.8461 211.172 20.291 210.928 20.6629C210.689 21.0348 210.344 21.3557 209.892 21.6258C209.627 21.7896 209.414 21.9556 209.255 22.1238C209.1 22.2921 208.985 22.4891 208.909 22.7148C208.834 22.9406 208.794 23.2195 208.79 23.5516V23.6711H207.236V23.5516ZM207.023 25.5703C207.023 25.3888 207.07 25.2206 207.163 25.0656C207.256 24.9062 207.382 24.7801 207.541 24.6871C207.701 24.5941 207.873 24.5477 208.059 24.5477C208.241 24.5477 208.409 24.5941 208.564 24.6871C208.723 24.7801 208.85 24.9062 208.943 25.0656C209.036 25.2206 209.082 25.3888 209.082 25.5703C209.082 25.7562 209.036 25.9289 208.943 26.0883C208.85 26.2477 208.723 26.3738 208.564 26.4668C208.409 26.5598 208.241 26.6063 208.059 26.6063C207.873 26.6063 207.701 26.5598 207.541 26.4668C207.382 26.3738 207.256 26.2477 207.163 26.0883C207.07 25.9289 207.023 25.7562 207.023 25.5703Z" fill="white"/>
</g>
<defs>
<filter id="filter0_d_120_5209" x="0.466667" y="0.466667" width="267.067" height="43.0667" filterUnits="userSpaceOnUse" color-interpolation-filters="sRGB">
<feFlood flood-opacity="0" result="BackgroundImageFix"/>
<feColorMatrix in="SourceAlpha" type="matrix" values="0 0 0 0 0 0 0 0 0 0 0 0 0 0 0 0 0 0 127 0" result="hardAlpha"/>
<feOffset/>
<feGaussianBlur stdDeviation="2.26667"/>
<feComposite in2="hardAlpha" operator="out"/>
<feColorMatrix type="matrix" values="0 0 0 0 0 0 0 0 0 0 0 0 0 0 0 0 0 0 0.22 0"/>
<feBlend mode="normal" in2="BackgroundImageFix" result="effect1_dropShadow_120_5209"/>
<feBlend mode="normal" in="SourceGraphic" in2="effect1_dropShadow_120_5209" result="shape"/>
</filter>
</defs>
</svg>
