<svg width="352" height="69" viewBox="0 0 352 69" fill="none" xmlns="http://www.w3.org/2000/svg">
<g filter="url(#filter0_d_120_5377)">
<path d="M7 18.9528C7 11.2469 13.2469 5 20.9528 5H329.047C336.753 5 343 11.2469 343 18.9528V44.0472C343 51.7531 336.753 58 329.047 58H20.9528C13.2469 58 7 51.7531 7 44.0472V18.9528Z" fill="#AEAEAE"/>
</g>
<path d="M142.875 38.2551H141.419V24.5309H142.875V38.2551ZM131.708 34.5024C132.403 34.1909 133.018 33.7442 133.554 33.1621C134.09 32.5801 134.506 31.9215 134.802 31.1862C135.099 30.451 135.247 29.703 135.247 28.9423V28.0386H132.122V26.8745H135.231V24.8067H136.671V26.8745H139.75V28.0386H136.671V28.9423C136.671 29.6673 136.822 30.3846 137.123 31.0943C137.424 31.7989 137.845 32.432 138.387 32.9937C138.933 33.5502 139.556 33.9765 140.255 34.2726L139.459 35.3908C138.673 35.0487 137.976 34.5407 137.368 33.8667C136.766 33.1877 136.304 32.4116 135.982 31.5385C135.67 32.4678 135.211 33.2923 134.603 34.0122C134.001 34.727 133.306 35.2631 132.52 35.6205L131.708 34.5024ZM155.848 28.6206H157.839V29.846H155.848V34.6096H154.393V24.5156H155.848V28.6206ZM145.279 28.881C145.274 28.2275 145.43 27.6429 145.747 27.1272C146.068 26.6064 146.507 26.2005 147.064 25.9095C147.62 25.6134 148.241 25.4653 148.925 25.4653C149.609 25.4653 150.229 25.6134 150.786 25.9095C151.342 26.2005 151.779 26.6064 152.095 27.1272C152.417 27.6429 152.58 28.2275 152.586 28.881C152.58 29.5345 152.417 30.1217 152.095 30.6425C151.779 31.1633 151.342 31.5692 150.786 31.8602C150.229 32.1512 149.609 32.2967 148.925 32.2967C148.241 32.2967 147.62 32.1512 147.064 31.8602C146.507 31.5692 146.068 31.1633 145.747 30.6425C145.43 30.1217 145.274 29.5345 145.279 28.881ZM146.704 28.881C146.699 29.2997 146.793 29.6724 146.987 29.9992C147.181 30.3208 147.447 30.5735 147.784 30.7574C148.126 30.9361 148.506 31.0254 148.925 31.0254C149.343 31.0254 149.721 30.9361 150.058 30.7574C150.4 30.5735 150.668 30.3208 150.862 29.9992C151.062 29.6724 151.161 29.2997 151.161 28.881C151.161 28.4623 151.062 28.0922 150.862 27.7705C150.668 27.4438 150.4 27.191 150.058 27.0123C149.721 26.8285 149.343 26.7366 148.925 26.7366C148.506 26.7366 148.126 26.8285 147.784 27.0123C147.447 27.191 147.181 27.4438 146.987 27.7705C146.793 28.0922 146.699 28.4623 146.704 28.881ZM147.148 33.5527H148.603V36.7846H156.43V37.9641H147.148V33.5527ZM170.139 26.706H168.822V30.8569C169.45 30.8059 170.011 30.7497 170.507 30.6884L170.568 31.7913C169.388 31.9751 168.135 32.0976 166.808 32.1589C165.48 32.2201 164.094 32.2508 162.649 32.2508L162.465 31.0407C163.185 31.0407 163.742 31.0382 164.135 31.0331V26.706H162.848V25.5266H170.139V26.706ZM164.655 35.7431C164.655 35.2121 164.839 34.7602 165.207 34.3875C165.575 34.0097 166.106 33.7238 166.8 33.5298C167.499 33.3306 168.332 33.2311 169.297 33.2311C170.256 33.2311 171.084 33.3306 171.778 33.5298C172.477 33.7238 173.011 34.0097 173.379 34.3875C173.751 34.7602 173.938 35.2121 173.938 35.7431C173.938 36.2639 173.751 36.7106 173.379 37.0833C173.006 37.456 172.472 37.7394 171.778 37.9334C171.084 38.1274 170.256 38.2244 169.297 38.2244C168.332 38.2244 167.499 38.1274 166.8 37.9334C166.106 37.7394 165.575 37.456 165.207 37.0833C164.839 36.7106 164.655 36.2639 164.655 35.7431ZM165.544 31.0101C166.167 30.9948 166.795 30.9718 167.428 30.9412V26.706H165.544V31.0101ZM166.095 35.7431C166.09 36.172 166.368 36.5064 166.93 36.7463C167.492 36.9812 168.281 37.1012 169.297 37.1063C170.308 37.1012 171.091 36.9812 171.648 36.7463C172.209 36.5064 172.493 36.172 172.498 35.7431C172.493 35.304 172.214 34.9645 171.663 34.7245C171.112 34.4845 170.338 34.3645 169.343 34.3645C168.306 34.3645 167.504 34.4845 166.938 34.7245C166.371 34.9593 166.09 35.2989 166.095 35.7431ZM170.338 29.4171H172.437V28.0845H170.338V26.9204H172.437V24.5309H173.892V32.9707H172.437V30.5812H170.338V29.4171ZM186.697 29.9992H188.826V31.2092H186.697V38.2398H185.242V24.5309H186.697V29.9992ZM176.021 34.579C177.736 33.7212 179.061 32.6745 179.996 31.439C180.935 30.2034 181.479 28.784 181.627 27.1808H176.71V25.9708H183.113C183.102 28.0641 182.594 29.9455 181.589 31.6151C180.583 33.2796 178.997 34.6453 176.833 35.7124L176.021 34.579ZM197.557 25.1436C198.22 25.1436 198.81 25.2585 199.326 25.4883C199.847 25.718 200.252 26.0397 200.543 26.4532C200.835 26.8668 200.983 27.3442 200.988 27.8854C200.983 28.3449 200.868 28.761 200.643 29.1337C200.423 29.5065 200.115 29.8154 199.716 30.0604C199.318 30.3055 198.853 30.4689 198.323 30.5506V31.7759C199.619 31.7045 200.809 31.587 201.891 31.4236L201.999 32.4958C200.773 32.7154 199.479 32.866 198.116 32.9477C196.758 33.0243 195.356 33.0626 193.911 33.0626H193.528L193.375 31.8832H194.064C195.142 31.8832 196.076 31.8678 196.867 31.8372V30.5659C196.321 30.4893 195.841 30.3285 195.428 30.0834C195.019 29.8383 194.703 29.5269 194.478 29.1491C194.253 28.7712 194.141 28.35 194.141 27.8854C194.141 27.3442 194.284 26.8668 194.57 26.4532C194.861 26.0397 195.264 25.718 195.78 25.4883C196.301 25.2585 196.893 25.1436 197.557 25.1436ZM195.32 34.1195H196.775V36.7693H204.679V37.9641H195.32V34.1195ZM195.504 27.8854C195.499 28.2019 195.583 28.4828 195.757 28.7278C195.93 28.9729 196.173 29.1618 196.484 29.2946C196.796 29.4273 197.153 29.4937 197.557 29.4937C197.96 29.4937 198.317 29.4273 198.629 29.2946C198.94 29.1618 199.18 28.9755 199.349 28.7355C199.522 28.4904 199.609 28.2071 199.609 27.8854C199.609 27.5586 199.522 27.2727 199.349 27.0276C199.18 26.7826 198.94 26.5937 198.629 26.4609C198.317 26.3282 197.96 26.2618 197.557 26.2618C197.153 26.2618 196.796 26.3282 196.484 26.4609C196.173 26.5937 195.93 26.7826 195.757 27.0276C195.583 27.2727 195.499 27.5586 195.504 27.8854ZM202.734 24.5463H204.189V29.0801H206.15V30.3055H204.189V35.0385H202.734V24.5463ZM219.506 36.6161H206.946V35.3908H210.377V32.9707H208.478V28.6053H216.535V26.6907H208.447V25.4959H217.974V29.7847H209.918V31.7759H218.296V32.9707H216.213V35.3908H219.506V36.6161ZM214.788 35.3908V32.9707H211.786V35.3908H214.788Z" fill="white"/>
<defs>
<filter id="filter0_d_120_5377" x="0.914492" y="0.266828" width="350.876" height="67.8757" filterUnits="userSpaceOnUse" color-interpolation-filters="sRGB">
<feFlood flood-opacity="0" result="BackgroundImageFix"/>
<feColorMatrix in="SourceAlpha" type="matrix" values="0 0 0 0 0 0 0 0 0 0 0 0 0 0 0 0 0 0 127 0" result="hardAlpha"/>
<feMorphology radius="2.70467" operator="dilate" in="SourceAlpha" result="effect1_dropShadow_120_5377"/>
<feOffset dx="1.35234" dy="2.70467"/>
<feGaussianBlur stdDeviation="2.36659"/>
<feComposite in2="hardAlpha" operator="out"/>
<feColorMatrix type="matrix" values="0 0 0 0 0.867014 0 0 0 0 0.889334 0 0 0 0 0.945833 0 0 0 0.4 0"/>
<feBlend mode="normal" in2="BackgroundImageFix" result="effect1_dropShadow_120_5377"/>
<feBlend mode="normal" in="SourceGraphic" in2="effect1_dropShadow_120_5377" result="shape"/>
</filter>
</defs>
</svg>
