<svg width="165" height="34" viewBox="0 0 165 34" fill="none" xmlns="http://www.w3.org/2000/svg">
<rect x="0.5" y="0.5" width="164" height="33" rx="16.5" fill="white"/>
<path d="M18.8799 18.9995L19.6199 19.1225C19.6377 19.0151 19.632 18.905 19.603 18.8C19.5741 18.695 19.5226 18.5976 19.4522 18.5145C19.3817 18.4315 19.2941 18.3647 19.1952 18.3189C19.0964 18.2732 18.9888 18.2495 18.8799 18.2495V18.9995ZM29.8799 18.9995V19.7495C30.0788 19.7495 30.2696 19.6705 30.4102 19.5298C30.5509 19.3892 30.6299 19.1984 30.6299 18.9995H29.8799ZM27.8799 8.2495H16.5199V9.7495H27.8799V8.2495ZM15.3199 19.7495H18.8799V18.2495H15.3199V19.7495ZM18.1399 18.8765L17.3339 23.7115L18.8139 23.9585L19.6199 19.1225L18.1399 18.8765ZM19.0599 25.7495H19.2739V24.2495H19.0609L19.0599 25.7495ZM22.3949 24.0795L24.9099 20.3065L23.6619 19.4745L21.1469 23.2475L22.3949 24.0795ZM25.9499 19.7495H29.8799V18.2495H25.9499V19.7495ZM30.6299 18.9995V10.9995H29.1299V18.9995H30.6299ZM13.8229 10.4595L12.6229 16.4595L14.0929 16.7545L15.2929 10.7545L13.8229 10.4605V10.4595ZM24.9099 20.3065C25.024 20.1352 25.1786 19.9958 25.36 19.8986C25.5415 19.8014 25.7441 19.7506 25.9499 19.7505V18.2505C25.0299 18.2505 24.1719 18.7095 23.6619 19.4745L24.9099 20.3065ZM17.3339 23.7115C17.2922 23.9621 17.3056 24.2198 17.3732 24.4648C17.4407 24.7097 17.5608 24.937 17.725 25.1308C17.8893 25.3247 18.0938 25.4804 18.3243 25.5872C18.5548 25.6941 18.8058 25.7495 19.0599 25.7495L19.0609 24.2495C19.0246 24.2494 18.9878 24.2414 18.955 24.2261C18.9221 24.2108 18.893 24.1886 18.8696 24.1609C18.8462 24.1332 18.8291 24.1008 18.8195 24.0658C18.8098 24.0309 18.8079 23.9943 18.8139 23.9585L17.3339 23.7115ZM15.3199 18.2505C14.5299 18.2505 13.9399 17.5285 14.0939 16.7555L12.6229 16.4605C12.5433 16.8594 12.5532 17.272 12.6519 17.6666C12.7506 18.0612 12.9356 18.429 13.1935 18.7435C13.4515 19.058 13.776 19.3114 14.1437 19.4854C14.5114 19.6593 14.9131 19.7495 15.3199 19.7495V18.2495V18.2505ZM16.5199 8.2495C15.8842 8.24938 15.2681 8.4705 14.7764 8.87342C14.2846 9.27634 13.9477 9.83717 13.8229 10.4605L15.2929 10.7555C15.3496 10.4719 15.5028 10.2167 15.7266 10.0335C15.9503 9.85022 16.2307 9.74921 16.5199 9.7495V8.2495ZM19.2739 25.7495C19.8912 25.7495 20.499 25.598 21.0433 25.3067C21.5875 25.0154 22.0515 24.5942 22.3939 24.0805L21.1469 23.2475C20.9413 23.5558 20.6628 23.8096 20.3361 23.9844C20.0093 24.1592 19.6445 24.2496 19.2739 24.2495V25.7495ZM27.8799 9.7495C28.5699 9.7495 29.1299 10.3095 29.1299 10.9995H30.6299C30.6299 10.2702 30.3402 9.57068 29.8244 9.05496C29.3087 8.53923 28.6092 8.2495 27.8799 8.2495V9.7495Z" fill="black"/>
<path d="M25.8799 18.9995V8.9995" stroke="black" stroke-width="1.1"/>
<path d="M47.8161 22.6953H46.3286V10.6758H47.8161V22.6953ZM38.4661 11.6586H39.9403V14.6602H42.8489V11.6586H44.3099V19.8664H38.4661V11.6586ZM42.8489 18.6578V15.8156H39.9403V18.6578H42.8489ZM60.5263 19.0961H55.7716V22.6953H54.3106V19.0961H49.5825V17.8875H60.5263V19.0961ZM50.1802 15.9883C50.9549 15.8953 51.6455 15.7116 52.2521 15.4371C52.8586 15.1582 53.3389 14.8284 53.6931 14.4477C54.0472 14.0625 54.2487 13.6685 54.2974 13.2656H50.5919V12.0969H54.3106V10.6891H55.7716V12.0969H59.5036V13.2656H55.7981C55.8468 13.6685 56.0461 14.0603 56.3958 14.441C56.75 14.8217 57.2303 15.1516 57.8368 15.4305C58.4433 15.7094 59.1317 15.8953 59.9021 15.9883L59.3575 17.157C58.3791 17.0331 57.5159 16.7697 56.7677 16.3668C56.0195 15.9639 55.4484 15.4681 55.0544 14.8793C54.656 15.4725 54.0782 15.9706 53.3212 16.3734C52.5686 16.7719 51.6987 17.0331 50.7114 17.157L50.1802 15.9883ZM65.6528 13.518C65.6484 14.0005 65.7569 14.4654 65.9782 14.9125C66.204 15.3596 66.5338 15.7581 66.9677 16.1078C67.406 16.4576 67.9328 16.7276 68.5481 16.918L67.831 18.0734C67.1625 17.8742 66.5825 17.5687 66.0911 17.157C65.5997 16.7453 65.2146 16.2583 64.9356 15.6961C64.6656 16.3026 64.2826 16.8294 63.7868 17.2766C63.291 17.7193 62.7 18.0513 62.0138 18.2727L61.2966 17.1172C61.9119 16.9268 62.4343 16.6479 62.8638 16.2805C63.2976 15.913 63.6252 15.4924 63.8466 15.0187C64.0679 14.5406 64.1786 14.0404 64.1786 13.518V13.332H61.6685V12.1633H64.1786V10.7555H65.6661V12.1633H68.163V13.332H65.6528V13.518ZM63.5146 18.8305H64.9888V21.2477H71.6958V22.443H63.5146V18.8305ZM67.7646 14.2617H69.9161V10.6891H71.3903V19.6008H69.9161V15.4437H67.7646V14.2617ZM82.4935 15.457H84.3396V16.6789H82.4935V22.682H81.0325V10.6758H82.4935V15.457ZM73.0239 12.5219H75.8661V10.8484H77.3403V12.5219H80.1028V13.7039H73.0239V12.5219ZM73.5817 17.3164C73.5773 16.7719 73.7057 16.2849 73.9669 15.8555C74.2281 15.4216 74.5889 15.0852 75.0493 14.8461C75.5097 14.607 76.0299 14.4875 76.6099 14.4875C77.181 14.4875 77.6945 14.607 78.1505 14.8461C78.6065 15.0852 78.9651 15.4216 79.2263 15.8555C79.4919 16.2849 79.6247 16.7719 79.6247 17.3164C79.6247 17.8609 79.4919 18.3479 79.2263 18.7773C78.9651 19.2023 78.6065 19.5344 78.1505 19.7734C77.6945 20.0125 77.181 20.132 76.6099 20.132C76.0299 20.132 75.5097 20.0125 75.0493 19.7734C74.5889 19.5344 74.2281 19.2023 73.9669 18.7773C73.7057 18.3479 73.5773 17.8609 73.5817 17.3164ZM74.9896 17.3164C74.9896 17.6352 75.0582 17.9163 75.1954 18.1598C75.3326 18.3988 75.523 18.5848 75.7665 18.7176C76.0144 18.846 76.2955 18.9102 76.6099 18.9102C76.9153 18.9102 77.1898 18.846 77.4333 18.7176C77.6768 18.5892 77.8672 18.4033 78.0044 18.1598C78.1416 17.9163 78.2125 17.6352 78.2169 17.3164C78.2125 16.9977 78.1394 16.7165 77.9978 16.473C77.8605 16.2251 77.6701 16.0348 77.4267 15.902C77.1876 15.7647 76.9153 15.6961 76.6099 15.6961C76.2955 15.6961 76.0144 15.7647 75.7665 15.902C75.523 16.0348 75.3326 16.2251 75.1954 16.473C75.0582 16.7165 74.9896 16.9977 74.9896 17.3164ZM94.5661 15.2445H86.2521V11.1141H87.713V14.0758H94.5661V15.2445ZM84.831 16.6391H95.8013V17.8078H84.831V16.6391ZM86.1458 18.8703H87.62V21.2078H94.6458V22.4031H86.1458V18.8703ZM106.533 12.7078H105.47V16.1145C105.97 16.0746 106.4 16.0326 106.758 15.9883V14.9125H108.405V13.8766H106.758V12.6945H108.405V10.6758H109.879V18.0336H108.405V16.0945H106.792L106.851 17.0773C105.833 17.2456 104.757 17.3585 103.624 17.416C102.491 17.4691 101.282 17.4979 99.9981 17.5023L99.8388 16.2805C100.423 16.2805 100.875 16.2783 101.193 16.2738V12.7078H100.144V11.5125H106.533V12.7078ZM101.738 20.4641C101.734 19.9992 101.893 19.6008 102.216 19.2687C102.544 18.9323 103.013 18.6777 103.624 18.5051C104.239 18.3324 104.97 18.2461 105.815 18.2461C106.665 18.2461 107.398 18.3324 108.013 18.5051C108.629 18.6777 109.1 18.9301 109.428 19.2621C109.755 19.5941 109.919 19.9948 109.919 20.4641C109.919 20.9201 109.755 21.3141 109.428 21.6461C109.1 21.9781 108.629 22.2305 108.013 22.4031C107.398 22.5802 106.665 22.6688 105.815 22.6688C104.974 22.6688 104.246 22.5802 103.631 22.4031C103.015 22.2305 102.544 21.9781 102.216 21.6461C101.893 21.3141 101.734 20.9201 101.738 20.4641ZM102.628 16.2539C102.938 16.2451 103.411 16.2273 104.049 16.2008V12.7078H102.628V16.2539ZM103.199 20.4641C103.194 20.8094 103.418 21.0728 103.87 21.2543C104.321 21.4358 104.97 21.5266 105.815 21.5266C106.665 21.5266 107.316 21.4358 107.768 21.2543C108.219 21.0728 108.445 20.8094 108.445 20.4641C108.445 20.1099 108.217 19.8398 107.761 19.6539C107.309 19.468 106.661 19.375 105.815 19.375C104.97 19.375 104.321 19.468 103.87 19.6539C103.418 19.8398 103.194 20.1099 103.199 20.4641ZM120.983 15.3641H122.762V16.5992H120.983V22.6555H119.508V10.6758H120.983V15.3641ZM111.513 19.375C112.978 18.6445 114.107 17.7658 114.9 16.7387C115.692 15.7072 116.161 14.5096 116.308 13.1461H112.164V11.9242H117.808C117.799 15.8643 115.98 18.7286 112.35 20.5172L111.513 19.375Z" fill="#202821"/>
<path d="M130.201 21.6193C129.536 21.6193 128.966 21.4463 128.488 21.1003C128.015 20.7503 127.653 20.2432 127.403 19.579C127.152 18.9148 127.027 18.1153 127.027 17.1807C127.027 16.25 127.152 15.4526 127.403 14.7884C127.657 14.1241 128.021 13.617 128.494 13.267C128.972 12.917 129.54 12.742 130.201 12.742C130.857 12.742 131.422 12.917 131.895 13.267C132.372 13.617 132.738 14.1241 132.993 14.7884C133.247 15.4526 133.374 16.25 133.374 17.1807C133.374 18.1153 133.247 18.9168 132.993 19.5849C132.742 20.2491 132.38 20.7543 131.907 21.1003C131.434 21.4463 130.865 21.6193 130.201 21.6193ZM128.339 17.2105C128.339 17.9145 128.413 18.5111 128.56 19.0003C128.707 19.4895 128.92 19.8594 129.198 20.1099C129.477 20.3605 129.811 20.4858 130.201 20.4858C130.59 20.4858 130.924 20.3605 131.203 20.1099C131.481 19.8554 131.694 19.4815 131.841 18.9884C131.988 18.4952 132.062 17.8926 132.062 17.1807C132.062 16.4727 131.986 15.8702 131.835 15.373C131.688 14.8759 131.475 14.5 131.197 14.2455C130.919 13.9869 130.586 13.8557 130.201 13.8517C129.811 13.8517 129.477 13.983 129.198 14.2455C128.92 14.504 128.707 14.8858 128.56 15.3909C128.413 15.892 128.339 16.4986 128.339 17.2105ZM137.742 21.6193C137.077 21.6193 136.507 21.4463 136.029 21.1003C135.556 20.7503 135.194 20.2432 134.944 19.579C134.693 18.9148 134.568 18.1153 134.568 17.1807C134.568 16.25 134.693 15.4526 134.944 14.7884C135.198 14.1241 135.562 13.617 136.035 13.267C136.513 12.917 137.081 12.742 137.742 12.742C138.398 12.742 138.963 12.917 139.436 13.267C139.913 13.617 140.279 14.1241 140.534 14.7884C140.788 15.4526 140.915 16.25 140.915 17.1807C140.915 18.1153 140.788 18.9168 140.534 19.5849C140.283 20.2491 139.921 20.7543 139.448 21.1003C138.974 21.4463 138.406 21.6193 137.742 21.6193ZM135.88 17.2105C135.88 17.9145 135.954 18.5111 136.101 19.0003C136.248 19.4895 136.461 19.8594 136.739 20.1099C137.018 20.3605 137.352 20.4858 137.742 20.4858C138.131 20.4858 138.465 20.3605 138.744 20.1099C139.022 19.8554 139.235 19.4815 139.382 18.9884C139.529 18.4952 139.603 17.8926 139.603 17.1807C139.603 16.4727 139.527 15.8702 139.376 15.373C139.229 14.8759 139.016 14.5 138.738 14.2455C138.459 13.9869 138.127 13.8557 137.742 13.8517C137.352 13.8517 137.018 13.983 136.739 14.2455C136.461 14.504 136.248 14.8858 136.101 15.3909C135.954 15.892 135.88 16.4986 135.88 17.2105ZM150.819 18.1352H149.685V16.5483H147.359V17.4193H142.395V12.6227H147.359V13.5057H149.685V11.8233H150.819V18.1352ZM146.249 16.5125V13.5295H143.517V16.5125H146.249ZM143.624 20.4739C143.624 20.0443 143.767 19.6764 144.053 19.3702C144.344 19.0639 144.759 18.8312 145.3 18.6722C145.845 18.5131 146.492 18.4335 147.239 18.4335C147.983 18.4335 148.625 18.5131 149.166 18.6722C149.707 18.8312 150.123 19.0639 150.413 19.3702C150.707 19.6764 150.855 20.0443 150.855 20.4739C150.855 20.8994 150.707 21.2634 150.413 21.5656C150.123 21.8679 149.707 22.0966 149.166 22.2517C148.625 22.4108 147.983 22.4903 147.239 22.4903C146.492 22.4903 145.845 22.4108 145.3 22.2517C144.759 22.0966 144.344 21.8679 144.053 21.5656C143.767 21.2634 143.624 20.8994 143.624 20.4739ZM144.746 20.4739C144.746 20.7125 144.843 20.9173 145.038 21.0884C145.237 21.2594 145.523 21.3906 145.897 21.4821C146.271 21.5736 146.718 21.6193 147.239 21.6193C147.756 21.6193 148.202 21.5736 148.576 21.4821C148.949 21.3906 149.236 21.2594 149.435 21.0884C149.634 20.9173 149.733 20.7125 149.733 20.4739C149.729 20.1 149.508 19.8136 149.071 19.6148C148.633 19.4119 148.023 19.3085 147.239 19.3045C146.448 19.3085 145.833 19.4119 145.396 19.6148C144.958 19.8136 144.742 20.1 144.746 20.4739ZM149.685 15.6295V14.4125H147.359V15.6295H149.685Z" fill="#717579"/>
<rect x="0.5" y="0.5" width="164" height="33" rx="16.5" stroke="#F2F2F2"/>
</svg>
