<svg width="165" height="35" viewBox="0 0 165 35" fill="none" xmlns="http://www.w3.org/2000/svg">
<rect x="0.5" y="1" width="164" height="33" rx="16.5" fill="white"/>
<path d="M22.8801 19.4995L23.6201 19.6225C23.638 19.5151 23.6322 19.405 23.6033 19.3C23.5743 19.195 23.5228 19.0976 23.4524 19.0145C23.382 18.9315 23.2943 18.8647 23.1955 18.8189C23.0966 18.7732 22.989 18.7495 22.8801 18.7495V19.4995ZM33.8801 19.4995V20.2495C34.079 20.2495 34.2698 20.1705 34.4105 20.0298C34.5511 19.8892 34.6301 19.6984 34.6301 19.4995H33.8801ZM31.8801 8.74949H20.5201V10.2495H31.8801V8.74949ZM19.3201 20.2495H22.8801V18.7495H19.3201V20.2495ZM22.1401 19.3765L21.3341 24.2115L22.8141 24.4585L23.6201 19.6225L22.1401 19.3765ZM23.0601 26.2495H23.2741V24.7495H23.0611L23.0601 26.2495ZM26.3951 24.5795L28.9101 20.8065L27.6621 19.9745L25.1471 23.7475L26.3951 24.5795ZM29.9501 20.2495H33.8801V18.7495H29.9501V20.2495ZM34.6301 19.4995V11.4995H33.1301V19.4995H34.6301ZM17.8231 10.9595L16.6231 16.9595L18.0931 17.2545L19.2931 11.2545L17.8231 10.9605V10.9595ZM28.9101 20.8065C29.0242 20.6352 29.1789 20.4957 29.3603 20.3986C29.5417 20.3014 29.7443 20.2505 29.9501 20.2505V18.7505C29.0301 18.7505 28.1721 19.2095 27.6621 19.9745L28.9101 20.8065ZM21.3341 24.2115C21.2925 24.4621 21.3059 24.7198 21.3734 24.9647C21.441 25.2097 21.561 25.437 21.7253 25.6308C21.8895 25.8246 22.094 25.9804 22.3245 26.0872C22.555 26.1941 22.8061 26.2494 23.0601 26.2495L23.0611 24.7495C23.0249 24.7494 22.9881 24.7414 22.9552 24.7261C22.9224 24.7108 22.8932 24.6886 22.8698 24.6609C22.8464 24.6332 22.8293 24.6008 22.8197 24.5658C22.8101 24.5309 22.8082 24.4942 22.8141 24.4585L21.3341 24.2115ZM19.3201 18.7505C18.5301 18.7505 17.9401 18.0285 18.0941 17.2555L16.6231 16.9605C16.5435 17.3594 16.5535 17.772 16.6521 18.1666C16.7508 18.5612 16.9358 18.929 17.1938 19.2435C17.4517 19.558 17.7763 19.8114 18.144 19.9853C18.5117 20.1593 18.9134 20.2495 19.3201 20.2495V18.7495V18.7505ZM20.5201 8.74949C19.8844 8.74936 19.2683 8.97049 18.7766 9.37341C18.2849 9.77633 17.948 10.3372 17.8231 10.9605L19.2931 11.2555C19.3498 10.9719 19.5031 10.7167 19.7268 10.5335C19.9506 10.3502 20.2309 10.2492 20.5201 10.2495V8.74949ZM23.2741 26.2495C23.8915 26.2494 24.4992 26.098 25.0435 25.8067C25.5878 25.5153 26.0517 25.0942 26.3941 24.5805L25.1471 23.7475C24.9416 24.0558 24.6631 24.3096 24.3363 24.4844C24.0096 24.6592 23.6447 24.7496 23.2741 24.7495V26.2495ZM31.8801 10.2495C32.5701 10.2495 33.1301 10.8095 33.1301 11.4995H34.6301C34.6301 10.7701 34.3404 10.0707 33.8247 9.55494C33.3089 9.03922 32.6095 8.74949 31.8801 8.74949V10.2495Z" fill="black"/>
<path d="M29.8801 19.4995V9.49951" stroke="black" stroke-width="1.1"/>
<path d="M51.8161 23.1953H50.3286V11.1758H51.8161V23.1953ZM42.4661 12.1586H43.9403V15.1602H46.8489V12.1586H48.3099V20.3664H42.4661V12.1586ZM46.8489 19.1578V16.3156H43.9403V19.1578H46.8489ZM64.5263 19.5961H59.7716V23.1953H58.3106V19.5961H53.5825V18.3875H64.5263V19.5961ZM54.1802 16.4883C54.9549 16.3953 55.6455 16.2116 56.2521 15.9371C56.8586 15.6582 57.3389 15.3284 57.6931 14.9477C58.0472 14.5625 58.2487 14.1685 58.2974 13.7656H54.5919V12.5969H58.3106V11.1891H59.7716V12.5969H63.5036V13.7656H59.7981C59.8468 14.1685 60.0461 14.5603 60.3958 14.941C60.75 15.3217 61.2303 15.6516 61.8368 15.9305C62.4433 16.2094 63.1317 16.3953 63.9021 16.4883L63.3575 17.657C62.3791 17.5331 61.5159 17.2697 60.7677 16.8668C60.0195 16.4639 59.4484 15.9681 59.0544 15.3793C58.656 15.9725 58.0782 16.4706 57.3212 16.8734C56.5686 17.2719 55.6987 17.5331 54.7114 17.657L54.1802 16.4883ZM69.6528 14.018C69.6484 14.5005 69.7569 14.9654 69.9782 15.4125C70.204 15.8596 70.5338 16.2581 70.9677 16.6078C71.406 16.9576 71.9328 17.2276 72.5481 17.418L71.831 18.5734C71.1625 18.3742 70.5825 18.0687 70.0911 17.657C69.5997 17.2453 69.2146 16.7583 68.9356 16.1961C68.6656 16.8026 68.2826 17.3294 67.7868 17.7766C67.291 18.2193 66.7 18.5513 66.0138 18.7727L65.2966 17.6172C65.9119 17.4268 66.4343 17.1479 66.8638 16.7805C67.2976 16.413 67.6252 15.9924 67.8466 15.5187C68.0679 15.0406 68.1786 14.5404 68.1786 14.018V13.832H65.6685V12.6633H68.1786V11.2555H69.6661V12.6633H72.163V13.832H69.6528V14.018ZM67.5146 19.3305H68.9888V21.7477H75.6958V22.943H67.5146V19.3305ZM71.7646 14.7617H73.9161V11.1891H75.3903V20.1008H73.9161V15.9437H71.7646V14.7617ZM86.4935 15.957H88.3396V17.1789H86.4935V23.182H85.0325V11.1758H86.4935V15.957ZM77.0239 13.0219H79.8661V11.3484H81.3403V13.0219H84.1028V14.2039H77.0239V13.0219ZM77.5817 17.8164C77.5773 17.2719 77.7057 16.7849 77.9669 16.3555C78.2281 15.9216 78.5889 15.5852 79.0493 15.3461C79.5097 15.107 80.0299 14.9875 80.6099 14.9875C81.181 14.9875 81.6945 15.107 82.1505 15.3461C82.6065 15.5852 82.9651 15.9216 83.2263 16.3555C83.4919 16.7849 83.6247 17.2719 83.6247 17.8164C83.6247 18.3609 83.4919 18.8479 83.2263 19.2773C82.9651 19.7023 82.6065 20.0344 82.1505 20.2734C81.6945 20.5125 81.181 20.632 80.6099 20.632C80.0299 20.632 79.5097 20.5125 79.0493 20.2734C78.5889 20.0344 78.2281 19.7023 77.9669 19.2773C77.7057 18.8479 77.5773 18.3609 77.5817 17.8164ZM78.9896 17.8164C78.9896 18.1352 79.0582 18.4163 79.1954 18.6598C79.3326 18.8988 79.523 19.0848 79.7665 19.2176C80.0144 19.346 80.2955 19.4102 80.6099 19.4102C80.9153 19.4102 81.1898 19.346 81.4333 19.2176C81.6768 19.0892 81.8672 18.9033 82.0044 18.6598C82.1416 18.4163 82.2125 18.1352 82.2169 17.8164C82.2125 17.4977 82.1394 17.2165 81.9978 16.973C81.8605 16.7251 81.6701 16.5348 81.4267 16.402C81.1876 16.2647 80.9153 16.1961 80.6099 16.1961C80.2955 16.1961 80.0144 16.2647 79.7665 16.402C79.523 16.5348 79.3326 16.7251 79.1954 16.973C79.0582 17.2165 78.9896 17.4977 78.9896 17.8164ZM98.5661 15.7445H90.2521V11.6141H91.713V14.5758H98.5661V15.7445ZM88.831 17.1391H99.8013V18.3078H88.831V17.1391ZM90.1458 19.3703H91.62V21.7078H98.6458V22.9031H90.1458V19.3703ZM110.533 13.2078H109.47V16.6145C109.97 16.5746 110.4 16.5326 110.758 16.4883V15.4125H112.405V14.3766H110.758V13.1945H112.405V11.1758H113.879V18.5336H112.405V16.5945H110.792L110.851 17.5773C109.833 17.7456 108.757 17.8585 107.624 17.916C106.491 17.9691 105.282 17.9979 103.998 18.0023L103.839 16.7805C104.423 16.7805 104.875 16.7783 105.193 16.7738V13.2078H104.144V12.0125H110.533V13.2078ZM105.738 20.9641C105.734 20.4992 105.893 20.1008 106.216 19.7687C106.544 19.4323 107.013 19.1777 107.624 19.0051C108.239 18.8324 108.97 18.7461 109.815 18.7461C110.665 18.7461 111.398 18.8324 112.013 19.0051C112.629 19.1777 113.1 19.4301 113.428 19.7621C113.755 20.0941 113.919 20.4948 113.919 20.9641C113.919 21.4201 113.755 21.8141 113.428 22.1461C113.1 22.4781 112.629 22.7305 112.013 22.9031C111.398 23.0802 110.665 23.1688 109.815 23.1688C108.974 23.1688 108.246 23.0802 107.631 22.9031C107.015 22.7305 106.544 22.4781 106.216 22.1461C105.893 21.8141 105.734 21.4201 105.738 20.9641ZM106.628 16.7539C106.938 16.7451 107.411 16.7273 108.049 16.7008V13.2078H106.628V16.7539ZM107.199 20.9641C107.194 21.3094 107.418 21.5728 107.87 21.7543C108.321 21.9358 108.97 22.0266 109.815 22.0266C110.665 22.0266 111.316 21.9358 111.768 21.7543C112.219 21.5728 112.445 21.3094 112.445 20.9641C112.445 20.6099 112.217 20.3398 111.761 20.1539C111.309 19.968 110.661 19.875 109.815 19.875C108.97 19.875 108.321 19.968 107.87 20.1539C107.418 20.3398 107.194 20.6099 107.199 20.9641ZM124.983 15.8641H126.762V17.0992H124.983V23.1555H123.508V11.1758H124.983V15.8641ZM115.513 19.875C116.978 19.1445 118.107 18.2658 118.9 17.2387C119.692 16.2072 120.161 15.0096 120.308 13.6461H116.164V12.4242H121.808C121.799 16.3643 119.98 19.2286 116.35 21.0172L115.513 19.875Z" fill="#202821"/>
<path d="M131.194 21.0455L134.189 18.0267C134.551 17.6528 134.827 17.3506 135.018 17.1199C135.209 16.8852 135.354 16.6585 135.453 16.4398C135.557 16.217 135.609 15.9824 135.609 15.7358C135.609 15.4574 135.539 15.2128 135.4 15.002C135.261 14.7912 135.07 14.6281 134.827 14.5128C134.584 14.3974 134.312 14.3398 134.01 14.3398C133.692 14.3398 133.413 14.4034 133.174 14.5307C132.94 14.658 132.757 14.8369 132.626 15.0676C132.498 15.2943 132.435 15.5608 132.435 15.867H131.194C131.19 15.35 131.309 14.8926 131.552 14.4949C131.794 14.0972 132.132 13.7889 132.566 13.5702C132.999 13.3514 133.489 13.242 134.034 13.242C134.578 13.242 135.064 13.3494 135.489 13.5642C135.919 13.775 136.253 14.0673 136.492 14.4412C136.734 14.8151 136.857 15.2347 136.861 15.7C136.857 16.0301 136.794 16.3483 136.671 16.6545C136.547 16.9568 136.336 17.2949 136.038 17.6687C135.74 18.0386 135.318 18.492 134.773 19.029L133.019 20.8068V20.8784H137.005V22H131.194V21.0455ZM147.003 18.6352H145.87V17.0483H143.543V17.9193H138.58V13.1227H143.543V14.0057H145.87V12.3233H147.003V18.6352ZM142.434 17.0125V14.0295H139.701V17.0125H142.434ZM139.809 20.9739C139.809 20.5443 139.952 20.1764 140.238 19.8702C140.528 19.5639 140.944 19.3312 141.485 19.1722C142.03 19.0131 142.676 18.9335 143.424 18.9335C144.168 18.9335 144.81 19.0131 145.351 19.1722C145.892 19.3312 146.307 19.5639 146.598 19.8702C146.892 20.1764 147.039 20.5443 147.039 20.9739C147.039 21.3994 146.892 21.7634 146.598 22.0656C146.307 22.3679 145.892 22.5966 145.351 22.7517C144.81 22.9108 144.168 22.9903 143.424 22.9903C142.676 22.9903 142.03 22.9108 141.485 22.7517C140.944 22.5966 140.528 22.3679 140.238 22.0656C139.952 21.7634 139.809 21.3994 139.809 20.9739ZM140.93 20.9739C140.93 21.2125 141.028 21.4173 141.223 21.5884C141.421 21.7594 141.708 21.8906 142.082 21.9821C142.455 22.0736 142.903 22.1193 143.424 22.1193C143.941 22.1193 144.386 22.0736 144.76 21.9821C145.134 21.8906 145.421 21.7594 145.619 21.5884C145.818 21.4173 145.918 21.2125 145.918 20.9739C145.914 20.6 145.693 20.3136 145.255 20.1148C144.818 19.9119 144.207 19.8085 143.424 19.8045C142.632 19.8085 142.018 19.9119 141.58 20.1148C141.143 20.3136 140.926 20.6 140.93 20.9739ZM145.87 16.1295V14.9125H143.543V16.1295H145.87Z" fill="#717579"/>
<rect x="0.5" y="1" width="164" height="33" rx="16.5" stroke="#F2F2F2"/>
</svg>
